<svg xmlns="http://www.w3.org/2000/svg" xmlns:xlink="http://www.w3.org/1999/xlink" width="108" height="108" viewBox="0 0 108 108">
  <defs>
    <filter id="Trazado_904820" x="0" y="0" width="108" height="108" filterUnits="userSpaceOnUse">
      <feOffset dy="3" input="SourceAlpha"/>
      <feGaussianBlur stdDeviation="3" result="blur"/>
      <feFlood flood-opacity="0.161"/>
      <feComposite operator="in" in2="blur"/>
      <feComposite in="SourceGraphic"/>
    </filter>
  </defs>
  <g id="Grupo_1207075" data-name="Grupo 1207075" transform="translate(-200 -322.5)">
    <g id="Grupo_1174704" data-name="Grupo 1174704" transform="translate(209 328.5)">
      <g id="Grupo_1173585" data-name="Grupo 1173585" transform="translate(0 0)">
        <g id="Grupo_1173428" data-name="Grupo 1173428">
          <g id="Grupo_1171958" data-name="Grupo 1171958">
            <g id="Grupo_1167341" data-name="Grupo 1167341">
              <g id="Grupo_1166792" data-name="Grupo 1166792">
                <g transform="matrix(1, 0, 0, 1, -9, -6)" filter="url(#Trazado_904820)">
                  <g id="Trazado_904820-2" data-name="Trazado 904820" transform="translate(9 6)" fill="#effbfe">
                    <path d="M 44.99999618530273 88.49999237060547 C 39.12687301635742 88.49999237060547 33.43022155761719 87.35006713867188 28.06829643249512 85.08216857910156 C 22.88852119445801 82.89130401611328 18.23629570007324 79.75457763671875 14.24084663391113 75.75914001464844 C 10.24540901184082 71.76369476318359 7.108683586120605 67.11146545410156 4.917821407318115 61.93169403076172 C 2.649921178817749 56.56976699829102 1.499996185302734 50.87311553955078 1.499996185302734 44.99999237060547 C 1.499996185302734 39.12686920166016 2.649921178817749 33.43021774291992 4.917821407318115 28.06829261779785 C 7.108683586120605 22.88851737976074 10.24540901184082 18.23630523681641 14.24084663391113 14.24085521697998 C 18.23629570007324 10.24540519714355 22.88852119445801 7.108692169189453 28.06829643249512 4.917829990386963 C 33.43022155761719 2.649929761886597 39.12687301635742 1.500004887580872 44.99999618530273 1.500004887580872 C 50.87311935424805 1.500004887580872 56.56977081298828 2.649929761886597 61.93169784545898 4.917829990386963 C 67.11147308349609 7.108692169189453 71.76369476318359 10.24540519714355 75.75914764404297 14.24085521697998 C 79.75458526611328 18.23630523681641 82.89131164550781 22.88851737976074 85.08216857910156 28.06829261779785 C 87.35007476806641 33.43021774291992 88.5 39.12686920166016 88.5 44.99999237060547 C 88.5 50.87311553955078 87.35007476806641 56.56976699829102 85.08216857910156 61.93169403076172 C 82.89131164550781 67.11146545410156 79.75458526611328 71.76369476318359 75.75914764404297 75.75914001464844 C 71.76369476318359 79.75457763671875 67.11147308349609 82.89130401611328 61.93169784545898 85.08216857910156 C 56.56977081298828 87.35006713867188 50.87311935424805 88.49999237060547 44.99999618530273 88.49999237060547 Z" stroke="none"/>
                    <path d="M 44.99999618530273 2.999992370605469 C 39.32870864868164 2.999992370605469 33.82865142822266 4.11004638671875 28.65262603759766 6.299331665039062 C 23.65165710449219 8.414566040039062 19.15968322753906 11.44333648681641 15.301513671875 15.30150604248047 C 11.44333648681641 19.15967559814453 8.414566040039062 23.65164947509766 6.299339294433594 28.65262222290039 C 4.110054016113281 33.82864761352539 2.999992370605469 39.32870483398438 2.999992370605469 44.99999237060547 C 2.999992370605469 50.67127990722656 4.110054016113281 56.17132186889648 6.299339294433594 61.34736633300781 C 8.414566040039062 66.34833526611328 11.44333648681641 70.84029388427734 15.301513671875 74.69846343994141 C 19.15968322753906 78.55663299560547 23.65165710449219 81.58540344238281 28.65262603759766 83.70063781738281 C 33.82865142822266 85.88992309570312 39.32870864868164 86.99997711181641 44.99999618530273 86.99997711181641 C 50.67128372192383 86.99997711181641 56.17134094238281 85.88992309570312 61.34736633300781 83.70063781738281 C 66.34834289550781 81.58540344238281 70.84030914306641 78.55663299560547 74.69847869873047 74.69846343994141 C 78.55665588378906 70.84029388427734 81.58542633056641 66.34833526611328 83.70065307617188 61.34736633300781 C 85.88993835449219 56.17132186889648 87 50.67127990722656 87 44.99999237060547 C 87 39.32870483398438 85.88993835449219 33.82864761352539 83.70065307617188 28.65262222290039 C 81.58542633056641 23.65164947509766 78.55665588378906 19.15967559814453 74.69847869873047 15.30150604248047 C 70.84030914306641 11.44333648681641 66.34834289550781 8.414566040039062 61.34736633300781 6.299331665039062 C 56.17134094238281 4.11004638671875 50.67128372192383 2.999992370605469 44.99999618530273 2.999992370605469 M 44.99999618530273 -7.62939453125e-06 C 69.85281372070312 -7.62939453125e-06 90 20.14717864990234 90 44.99999237060547 C 90 69.85279083251953 69.85281372070312 89.99997711181641 44.99999618530273 89.99997711181641 C 20.14717864990234 89.99997711181641 -7.62939453125e-06 69.85279083251953 -7.62939453125e-06 44.99999237060547 C -7.62939453125e-06 20.14717864990234 20.14717864990234 -7.62939453125e-06 44.99999618530273 -7.62939453125e-06 Z" stroke="none" fill="#497f88"/>
                  </g>
                </g>
              </g>
            </g>
          </g>
        </g>
      </g>
    </g>
    <g id="Layer_32" data-name="Layer 32" transform="translate(222.008 341.21)">
      <path id="Trazado_1050377" data-name="Trazado 1050377" d="M38.113,2.634A21.1,21.1,0,0,0,32.965,2H27.64A20.64,20.64,0,0,0,7,22.64H7a5.76,5.76,0,0,0,.608,2.576h0A3.711,3.711,0,0,1,8,26.876H8a3.715,3.715,0,0,1-.623,2.058L2.365,36.453A2.172,2.172,0,0,0,2,37.658H2A2.172,2.172,0,0,0,3.2,39.6L6,41v4l2,1-1.106.553A1.617,1.617,0,0,0,6,48H6a1.617,1.617,0,0,0,.894,1.447h0A2,2,0,0,1,8,51.236V53.36A3.64,3.64,0,0,0,11.64,57h0a3.637,3.637,0,0,0,.713-.071l4.014-.8A6.457,6.457,0,0,1,17.645,56h0a6.52,6.52,0,0,1,5.3,2.73L26,63H51L46.515,49.546A10.051,10.051,0,0,1,46,46.37h0a10.041,10.041,0,0,1,1.06-4.489l1.327-2.656" fill="#d08d78"/>
      <circle id="Elipse_12984" data-name="Elipse 12984" cx="19" cy="19" r="19" transform="translate(24 2)" fill="#0059be"/>
      <path id="Trazado_1050378" data-name="Trazado 1050378" d="M43,2A18.987,18.987,0,0,0,28.157,32.843,18.987,18.987,0,0,0,54.843,6.157,18.9,18.9,0,0,0,43,2Z" fill="#006bdb"/>
      <path id="Trazado_1050379" data-name="Trazado 1050379" d="M43,42A20.987,20.987,0,0,1,33.721,2.183,21.226,21.226,0,0,0,30.965,2H27.64A20.64,20.64,0,0,0,7,22.64a5.76,5.76,0,0,0,.608,2.576,3.713,3.713,0,0,1-.231,3.719L2.365,36.453A2.171,2.171,0,0,0,3.2,39.6L6,41v4l2,1-1.106.553a1.618,1.618,0,0,0,0,2.894A2,2,0,0,1,8,51.236V53.36a3.638,3.638,0,0,0,4.353,3.569l4.014-.8a6.515,6.515,0,0,1,6.583,2.6L26,63h8.818a10.221,10.221,0,0,0,9.7-13.454,10.039,10.039,0,0,1,.538-7.65C44.377,41.962,43.693,42,43,42Z" fill="#f2b9a1"/>
      <path id="Trazado_1050380" data-name="Trazado 1050380" d="M40,35h6l.355-2.485a11.928,11.928,0,0,0,2.42-1l2,1.5,4.243-4.243-1.5-2a11.928,11.928,0,0,0,1-2.42L57,24V18l-2.485-.355a11.928,11.928,0,0,0-1-2.42l1.5-2L50.778,8.979l-2,1.5a11.928,11.928,0,0,0-2.42-1L46,7H40Z" fill="#f9cb5d"/>
      <path id="Trazado_1050381" data-name="Trazado 1050381" d="M53,19a13.93,13.93,0,0,0-3.4-9.134l-.82.616a11.928,11.928,0,0,0-2.42-1L46,7H40V32.95A13.992,13.992,0,0,0,53,19Z" fill="#ffe1ae"/>
      <path id="Trazado_1050382" data-name="Trazado 1050382" d="M43,32a3,3,0,0,1-6,0,1.087,1.087,0,0,1,.01-.18A2.787,2.787,0,0,1,36,32a3,3,0,0,1-3-3,2.006,2.006,0,0,1-2-2,1.944,1.944,0,0,1,.55-1.37,3,3,0,0,1-.21-5.13A3,3,0,0,1,33,15a2.715,2.715,0,0,1,.91.15A3,3,0,0,1,36,10a2.787,2.787,0,0,1,1.01.18A1.087,1.087,0,0,1,37,10a3,3,0,0,1,6,0Z" fill="#e77cac"/>
      <path id="Trazado_1050383" data-name="Trazado 1050383" d="M37,10a1.087,1.087,0,0,0,.01.18A2.787,2.787,0,0,0,36,10a3,3,0,0,0-2.09,5.15A2.715,2.715,0,0,0,33,15a3,3,0,0,0-1.66,5.5,3,3,0,0,0,.21,5.13A1.944,1.944,0,0,0,31,27a2.006,2.006,0,0,0,2,2,3,3,0,0,0,3,3,2.787,2.787,0,0,0,1.01-.18A1.087,1.087,0,0,0,37,32a2.976,2.976,0,0,0,.758,1.977c.081.007.159.023.242.023a3,3,0,0,0,3-3V9a2.981,2.981,0,0,0-.756-1.976C40.162,7.018,40.083,7,40,7a3,3,0,0,0-3,3Z" fill="#f19cc8"/>
      <path id="Trazado_1050384" data-name="Trazado 1050384" d="M37.349,32.767l-.674-1.883A2.006,2.006,0,0,0,38,29h2A4.01,4.01,0,0,1,37.349,32.767Z" fill="#e77cac"/>
      <path id="Trazado_1050385" data-name="Trazado 1050385" d="M36,17a3.978,3.978,0,0,1-2.829-1.172l1.415-1.413a2.048,2.048,0,0,0,2.747.076l1.334,1.49A3.993,3.993,0,0,1,36,17Z" fill="#e77cac"/>
      <path id="Trazado_1050386" data-name="Trazado 1050386" d="M37,23H35a2,2,0,0,0-3.1-1.667l-1.109-1.665A4,4,0,0,1,37,23Z" fill="#e77cac"/>
      <path id="Trazado_1050387" data-name="Trazado 1050387" d="M43,28a7,7,0,1,0,0-14h0" fill="#006bdb"/>
      <path id="Trazado_1050388" data-name="Trazado 1050388" d="M43,1a19.9,19.9,0,0,0-4.85.62A22.108,22.108,0,0,0,32.965,1H27.64A21.665,21.665,0,0,0,6,22.64a6.794,6.794,0,0,0,.714,3.024,2.71,2.71,0,0,1-.17,2.716L1.533,35.9a3.172,3.172,0,0,0,1.22,4.6L5,41.618V45a1,1,0,0,0,.553.9l.314.157a2.62,2.62,0,0,0,.58,4.29A.994.994,0,0,1,7,51.236V53.36a4.641,4.641,0,0,0,5.55,4.55l4.013-.8a5.588,5.588,0,0,1,5.573,2.2l3.05,4.27,1.628-1.162-3.051-4.271a7.6,7.6,0,0,0-7.592-3l-4.015.8A2.61,2.61,0,0,1,11.64,56,2.643,2.643,0,0,1,9,53.36V51.236a2.982,2.982,0,0,0-1.659-2.683.618.618,0,0,1,0-1.106l1.1-.552a1,1,0,0,0,0-1.79L7,44.382V41a1,1,0,0,0-.553-.9l-2.8-1.4A1.173,1.173,0,0,1,3.2,37l5.011-7.51A4.708,4.708,0,0,0,8.5,24.769,4.794,4.794,0,0,1,8,22.64,19.663,19.663,0,0,1,27.64,3h5.325c.43,0,.86.015,1.288.042a19.967,19.967,0,0,0,12.3,37.624l-.383.767a11.043,11.043,0,0,0-.6,8.429l4.485,13.454,1.9-.632L47.464,49.229a9.037,9.037,0,0,1,.491-6.9L49.1,40.042A20,20,0,0,0,43,1Zm0,38A18,18,0,1,1,61,21,18,18,0,0,1,43,39Z"/>
      <path id="Trazado_1050389" data-name="Trazado 1050389" d="M50.178,8.179l-1.5,1.127a12.775,12.775,0,0,0-1.42-.584L46.99,6.858A1,1,0,0,0,46,6H40a4.008,4.008,0,0,0-3.874,3A4.026,4.026,0,0,0,32,13a3.954,3.954,0,0,0,.153,1.091A4,4,0,0,0,29.876,20.5a4.01,4.01,0,0,0,.34,5.378,3,3,0,0,0,1.877,3.982A4.015,4.015,0,0,0,36.126,33,4.008,4.008,0,0,0,40,36h6a1,1,0,0,0,.99-.858l.266-1.864a12.854,12.854,0,0,0,1.42-.584l1.5,1.127a1,1,0,0,0,1.307-.093l4.243-4.243a1,1,0,0,0,.093-1.307l-1.127-1.5a12.775,12.775,0,0,0,.584-1.42l1.864-.266A1,1,0,0,0,58,24V18a1,1,0,0,0-.858-.99l-1.864-.266a12.775,12.775,0,0,0-.584-1.42l1.127-1.5a1,1,0,0,0-.093-1.307L51.485,8.272a1,1,0,0,0-1.307-.093ZM44,15.09a5.993,5.993,0,0,1,0,11.82ZM38.049,32.425A4,4,0,0,0,40,29H38a2,2,0,0,1-1.322,1.882.052.052,0,0,0-.03.006A1.8,1.8,0,0,1,36,31a2,2,0,0,1-2-2,1,1,0,0,0-1-1,1,1,0,0,1-1-1,.946.946,0,0,1,.268-.674,1,1,0,0,0-.237-1.573,2,2,0,0,1-.137-3.42h0A2,2,0,0,1,35,23h2a3.98,3.98,0,0,0-5.511-3.694A1.964,1.964,0,0,1,31,18a2,2,0,0,1,2-2,1.684,1.684,0,0,1,.472.076,3.961,3.961,0,0,0,5.2-.1l-1.334-1.49a2.048,2.048,0,0,1-2.731-.064A2,2,0,0,1,36,11a1.8,1.8,0,0,1,.648.112A1.013,1.013,0,0,0,38,10a2,2,0,0,1,4,0V32a2,2,0,0,1-3.951.425ZM52.643,15.707a11.01,11.01,0,0,1,.913,2.217,1,1,0,0,0,.818.711L56,18.867v4.266l-1.626.232a1,1,0,0,0-.818.711,11.01,11.01,0,0,1-.913,2.217,1,1,0,0,0,.076,1.082l.982,1.31L50.685,31.7l-1.31-.983a1,1,0,0,0-1.082-.076,11,11,0,0,1-2.217.914,1,1,0,0,0-.711.818L45.133,34H43.444A3.959,3.959,0,0,0,44,32V28.931a7.993,7.993,0,0,0,0-15.862V10a3.959,3.959,0,0,0-.556-2h1.689l.232,1.626a1,1,0,0,0,.711.818,11.01,11.01,0,0,1,2.217.913.994.994,0,0,0,1.082-.076l1.31-.982L53.7,13.315l-.982,1.31a1,1,0,0,0-.075,1.082Z"/>
    </g>
  </g>
</svg>
