<svg xmlns="http://www.w3.org/2000/svg" xmlns:xlink="http://www.w3.org/1999/xlink" width="513" height="411" viewBox="0 0 513 411">
  <defs>
    <filter id="Elipse_12973" x="0" y="0" width="175" height="175" filterUnits="userSpaceOnUse">
      <feOffset dy="3" input="SourceAlpha"/>
      <feGaussianBlur stdDeviation="3" result="blur"/>
      <feFlood flood-opacity="0.161"/>
      <feComposite operator="in" in2="blur"/>
      <feComposite in="SourceGraphic"/>
    </filter>
    <filter id="Elipse_12974" x="8" y="8" width="159" height="159" filterUnits="userSpaceOnUse">
      <feOffset dy="3" input="SourceAlpha"/>
      <feGaussianBlur stdDeviation="3" result="blur-2"/>
      <feFlood flood-opacity="0.161"/>
      <feComposite operator="in" in2="blur-2"/>
      <feComposite in="SourceGraphic"/>
    </filter>
    <filter id="Elipse_12973-2" x="266" y="82" width="247" height="247" filterUnits="userSpaceOnUse">
      <feOffset dy="3" input="SourceAlpha"/>
      <feGaussianBlur stdDeviation="3" result="blur-3"/>
      <feFlood flood-opacity="0.161"/>
      <feComposite operator="in" in2="blur-3"/>
      <feComposite in="SourceGraphic"/>
    </filter>
    <filter id="Elipse_12974-2" x="278" y="94" width="223" height="223" filterUnits="userSpaceOnUse">
      <feOffset dy="3" input="SourceAlpha"/>
      <feGaussianBlur stdDeviation="3" result="blur-4"/>
      <feFlood flood-opacity="0.161"/>
      <feComposite operator="in" in2="blur-4"/>
      <feComposite in="SourceGraphic"/>
    </filter>
    <filter id="Elipse_12973-3" x="0" y="236" width="175" height="175" filterUnits="userSpaceOnUse">
      <feOffset dy="3" input="SourceAlpha"/>
      <feGaussianBlur stdDeviation="3" result="blur-5"/>
      <feFlood flood-opacity="0.161"/>
      <feComposite operator="in" in2="blur-5"/>
      <feComposite in="SourceGraphic"/>
    </filter>
    <filter id="Elipse_12974-3" x="8" y="244" width="159" height="159" filterUnits="userSpaceOnUse">
      <feOffset dy="3" input="SourceAlpha"/>
      <feGaussianBlur stdDeviation="3" result="blur-6"/>
      <feFlood flood-opacity="0.161"/>
      <feComposite operator="in" in2="blur-6"/>
      <feComposite in="SourceGraphic"/>
    </filter>
  </defs>
  <g id="Grupo_1206784" data-name="Grupo 1206784" transform="translate(-329 -3441)">
    <g id="Grupo_1206781" data-name="Grupo 1206781" transform="translate(-32.354 7.646)">
      <g transform="matrix(1, 0, 0, 1, 361.35, 3433.35)" filter="url(#Elipse_12973)">
        <circle id="Elipse_12973-4" data-name="Elipse 12973" cx="78.5" cy="78.5" r="78.5" transform="translate(9 6)" fill="#fff"/>
      </g>
      <g transform="matrix(1, 0, 0, 1, 361.35, 3433.35)" filter="url(#Elipse_12974)">
        <g id="Elipse_12974-4" data-name="Elipse 12974" transform="translate(17 14)" fill="#ebe9f0" stroke="#5692e8" stroke-width="3">
          <circle cx="70.5" cy="70.5" r="70.5" stroke="none"/>
          <circle cx="70.5" cy="70.5" r="69" fill="none"/>
        </g>
      </g>
    </g>
    <g id="Grupo_1206783" data-name="Grupo 1206783" transform="translate(234.026 90.026)">
      <g transform="matrix(1, 0, 0, 1, 94.97, 3350.97)" filter="url(#Elipse_12973-2)">
        <circle id="Elipse_12973-5" data-name="Elipse 12973" cx="114.5" cy="114.5" r="114.5" transform="translate(275 88)" fill="#fff"/>
      </g>
      <g transform="matrix(1, 0, 0, 1, 94.97, 3350.97)" filter="url(#Elipse_12974-2)">
        <g id="Elipse_12974-5" data-name="Elipse 12974" transform="translate(287 100)" fill="#ebe9f0" stroke="#5692e8" stroke-width="3">
          <circle cx="102.5" cy="102.5" r="102.5" stroke="none"/>
          <circle cx="102.5" cy="102.5" r="101" fill="none"/>
        </g>
      </g>
    </g>
    <g id="Grupo_1206782" data-name="Grupo 1206782" transform="translate(-32.354 243.646)">
      <g transform="matrix(1, 0, 0, 1, 361.35, 3197.35)" filter="url(#Elipse_12973-3)">
        <circle id="Elipse_12973-6" data-name="Elipse 12973" cx="78.5" cy="78.5" r="78.5" transform="translate(9 242)" fill="#fff"/>
      </g>
      <g transform="matrix(1, 0, 0, 1, 361.35, 3197.35)" filter="url(#Elipse_12974-3)">
        <g id="Elipse_12974-6" data-name="Elipse 12974" transform="translate(17 250)" fill="#ebe9f0" stroke="#5692e8" stroke-width="3">
          <circle cx="70.5" cy="70.5" r="70.5" stroke="none"/>
          <circle cx="70.5" cy="70.5" r="69" fill="none"/>
        </g>
      </g>
    </g>
    <path id="Trazado_1049917" data-name="Trazado 1049917" d="M17.119,11.37V-3.483H2.484V-9.891H17.119V-24.38h6.626V-9.891H38.307v6.407H23.745V11.37Z" transform="translate(396.405 3655.418)" fill="#4e4948"/>
    <path id="Trazado_1050734" data-name="Trazado 1050734" d="M-37.564,0h-5.581V-12.955h5.581a6.809,6.809,0,0,1,2,.281,4.277,4.277,0,0,1,2.206,1.644,5.765,5.765,0,0,1,.923,2.092,10.042,10.042,0,0,1,.246,2.145,8.611,8.611,0,0,1-1.037,4.377A4.68,4.68,0,0,1-37.564,0Zm2.013-9.65a2.631,2.631,0,0,0-2.47-1.055h-2.5V-2.25h2.5A2.7,2.7,0,0,0-35.35-4.14a6.665,6.665,0,0,0,.413-2.47A6.143,6.143,0,0,0-35.552-9.65Zm13.4,6.838a3.178,3.178,0,0,1-.888,1.731,4.349,4.349,0,0,1-3.445,1.4A4.858,4.858,0,0,1-29.707-.861a4.75,4.75,0,0,1-1.4-3.832,5.326,5.326,0,0,1,1.261-3.814,4.312,4.312,0,0,1,3.274-1.327,5.021,5.021,0,0,1,2.153.448,3.772,3.772,0,0,1,1.582,1.415A4.828,4.828,0,0,1-22.1-5.994a12.771,12.771,0,0,1,.079,1.9h-6.557a2.381,2.381,0,0,0,.905,2.021,2.132,2.132,0,0,0,1.248.36,1.8,1.8,0,0,0,1.257-.439,2.087,2.087,0,0,0,.466-.659Zm-2.479-2.936a2.181,2.181,0,0,0-.6-1.507,1.87,1.87,0,0,0-1.34-.514,1.7,1.7,0,0,0-1.349.545,2.72,2.72,0,0,0-.6,1.477Zm10.89-3.393a3.086,3.086,0,0,1,1.292,2.479h-2.5a1.482,1.482,0,0,0-.272-.765,1.714,1.714,0,0,0-1.406-.51,2.021,2.021,0,0,0-1.165.255.734.734,0,0,0-.347.6.654.654,0,0,0,.369.624,15.98,15.98,0,0,0,2.61.694A4.8,4.8,0,0,1-12.92-4.7a2.415,2.415,0,0,1,.738,1.8A2.911,2.911,0,0,1-13.241-.576a4.976,4.976,0,0,1-3.274.9A4.929,4.929,0,0,1-19.85-.628a3.1,3.1,0,0,1-1.077-2.43h2.54a1.673,1.673,0,0,0,.343.949,2.317,2.317,0,0,0,1.723.5,2.626,2.626,0,0,0,1.173-.22.7.7,0,0,0,.435-.659.711.711,0,0,0-.352-.642,14.3,14.3,0,0,0-2.61-.756A5.437,5.437,0,0,1-19.969-4.9a2.191,2.191,0,0,1-.668-1.723A2.988,2.988,0,0,1-19.6-8.9a4.183,4.183,0,0,1,2.931-.954A5.427,5.427,0,0,1-13.737-9.141Zm3.771.6a4.09,4.09,0,0,1,3.41-1.266,6.059,6.059,0,0,1,2.795.624A2.4,2.4,0,0,1-2.54-6.829v4.395q0,.457.018,1.107a1.392,1.392,0,0,0,.149.668A.9.9,0,0,0-2-.369V0H-4.729a2.79,2.79,0,0,1-.158-.545q-.044-.255-.07-.58a5.146,5.146,0,0,1-1.2.958A3.6,3.6,0,0,1-7.98.3a3.143,3.143,0,0,1-2.149-.743,2.649,2.649,0,0,1-.848-2.1A2.732,2.732,0,0,1-9.615-5.106a6.049,6.049,0,0,1,2.2-.615l.853-.105a3.91,3.91,0,0,0,.993-.22.753.753,0,0,0,.536-.712.845.845,0,0,0-.409-.813,2.553,2.553,0,0,0-1.2-.224A1.563,1.563,0,0,0-7.9-7.356a1.827,1.827,0,0,0-.352.879H-10.67A3.676,3.676,0,0,1-9.967-8.543ZM-8.1-1.811a1.309,1.309,0,0,0,.861.29A2.551,2.551,0,0,0-5.752-2a2.024,2.024,0,0,0,.708-1.731v-.932a2.722,2.722,0,0,1-.479.242,4.006,4.006,0,0,1-.664.171l-.562.105A3.632,3.632,0,0,0-7.884-3.8a1.149,1.149,0,0,0-.58,1.063A1.1,1.1,0,0,0-8.1-1.811ZM4.5-7.269a2.078,2.078,0,0,0-2.03.984,3.829,3.829,0,0,0-.29,1.705V0H-.343V-9.58H2.048v1.67A5.3,5.3,0,0,1,3.059-9.22a2.752,2.752,0,0,1,1.828-.589q.07,0,.119,0l.215.013v2.566Q4.983-7.251,4.8-7.26T4.5-7.269Zm7,0a2.078,2.078,0,0,0-2.03.984,3.829,3.829,0,0,0-.29,1.705V0H6.662V-9.58H9.053v1.67a5.3,5.3,0,0,1,1.011-1.31,2.752,2.752,0,0,1,1.828-.589q.07,0,.119,0l.215.013v2.566q-.237-.026-.422-.035T11.5-7.269Zm10.178-1.1A5.59,5.59,0,0,1,22.9-4.772a5.553,5.553,0,0,1-1.213,3.608A4.456,4.456,0,0,1,18,.334a4.456,4.456,0,0,1-3.683-1.5A5.553,5.553,0,0,1,13.1-4.772a5.59,5.59,0,0,1,1.213-3.595A4.426,4.426,0,0,1,18-9.888,4.426,4.426,0,0,1,21.683-8.367Zm-3.691.6a2,2,0,0,0-1.692.778,3.6,3.6,0,0,0-.593,2.219A3.619,3.619,0,0,0,16.3-2.549a2,2,0,0,0,1.692.782,1.985,1.985,0,0,0,1.688-.782,3.639,3.639,0,0,0,.589-2.224,3.619,3.619,0,0,0-.589-2.219A1.99,1.99,0,0,0,17.991-7.77Zm6.75-5.186h2.5V0h-2.5Zm5,0h2.5V0h-2.5ZM42.68-8.367a5.59,5.59,0,0,1,1.213,3.595A5.553,5.553,0,0,1,42.68-1.165,4.456,4.456,0,0,1,39,.334a4.456,4.456,0,0,1-3.683-1.5A5.553,5.553,0,0,1,34.1-4.772a5.59,5.59,0,0,1,1.213-3.595A4.426,4.426,0,0,1,39-9.888,4.426,4.426,0,0,1,42.68-8.367Zm-3.691.6a2,2,0,0,0-1.692.778A3.6,3.6,0,0,0,36.7-4.772,3.619,3.619,0,0,0,37.3-2.549a2,2,0,0,0,1.692.782,1.985,1.985,0,0,0,1.688-.782,3.639,3.639,0,0,0,.589-2.224,3.619,3.619,0,0,0-.589-2.219A1.99,1.99,0,0,0,38.988-7.77Zm-69.53,28.626h-2.566a2.223,2.223,0,0,0-.36-.967,1.511,1.511,0,0,0-1.31-.58,1.725,1.725,0,0,0-1.731,1.257,5.255,5.255,0,0,0-.246,1.775,4.832,4.832,0,0,0,.246,1.7,1.671,1.671,0,0,0,1.688,1.2,1.488,1.488,0,0,0,1.248-.475,2.362,2.362,0,0,0,.448-1.23h2.558a4.191,4.191,0,0,1-.826,2.162,4.016,4.016,0,0,1-3.489,1.644,4.082,4.082,0,0,1-3.4-1.371,5.548,5.548,0,0,1-1.09-3.56,5.63,5.63,0,0,1,1.2-3.841,4.191,4.191,0,0,1,3.322-1.371A5,5,0,0,1-31.9,18,3.761,3.761,0,0,1-30.542,20.856Zm9.712-2.224a5.59,5.59,0,0,1,1.213,3.595,5.553,5.553,0,0,1-1.213,3.608,4.456,4.456,0,0,1-3.683,1.5,4.456,4.456,0,0,1-3.683-1.5,5.553,5.553,0,0,1-1.213-3.608A5.59,5.59,0,0,1-28.2,18.633a4.426,4.426,0,0,1,3.683-1.521A4.426,4.426,0,0,1-20.83,18.633Zm-3.691.6a2,2,0,0,0-1.692.778,3.6,3.6,0,0,0-.593,2.219,3.619,3.619,0,0,0,.593,2.224,2,2,0,0,0,1.692.782,1.985,1.985,0,0,0,1.688-.782,3.639,3.639,0,0,0,.589-2.224,3.619,3.619,0,0,0-.589-2.219A1.99,1.99,0,0,0-24.521,19.23Zm9.4,9.448a2.117,2.117,0,0,0,1.362.343,1.83,1.83,0,0,0,1.811-.905,4.585,4.585,0,0,0,.3-1.951V25.55a3.055,3.055,0,0,1-.773.923,3.11,3.11,0,0,1-1.942.571,3.676,3.676,0,0,1-2.949-1.3,5.241,5.241,0,0,1-1.1-3.511,5.919,5.919,0,0,1,1.063-3.59,3.514,3.514,0,0,1,3.015-1.455,3.3,3.3,0,0,1,1.257.22A3.01,3.01,0,0,1-11.6,18.8V17.42h2.435v9.088A5.09,5.09,0,0,1-9.791,29.3Q-10.863,30.92-13.9,30.92a5.6,5.6,0,0,1-3-.721,2.659,2.659,0,0,1-1.283-2.153h2.725A1.128,1.128,0,0,0-15.117,28.679Zm-.422-4.948a1.833,1.833,0,0,0,1.828,1.213,1.935,1.935,0,0,0,1.485-.664,3.072,3.072,0,0,0,.606-2.114,3.235,3.235,0,0,0-.576-2.074,1.882,1.882,0,0,0-1.542-.712,1.818,1.818,0,0,0-1.819,1.239,4.395,4.395,0,0,0-.264,1.626A3.71,3.71,0,0,0-15.539,23.73ZM-2.32,19.274a1.744,1.744,0,0,0-1.749,1.081,3.713,3.713,0,0,0-.246,1.459V27h-2.5V17.438h2.417v1.4a4.252,4.252,0,0,1,.914-1.063,3.177,3.177,0,0,1,1.96-.58,3.7,3.7,0,0,1,2.43.778,3.163,3.163,0,0,1,.945,2.58V27H-.712V21.173a2.659,2.659,0,0,0-.2-1.16A1.422,1.422,0,0,0-2.32,19.274ZM6.741,17.42V27H4.2V17.42Zm0-3.454v2.312H4.2V13.966Zm6.812,11.25v1.872l-1.187.044a3.184,3.184,0,0,1-2.426-.615,1.832,1.832,0,0,1-.422-1.327v-5.9H8.183V17.508H9.519V14.836H12v2.672h1.556v1.784H12v5.063a1.14,1.14,0,0,0,.149.734,1.645,1.645,0,0,0,.914.145q.114,0,.242,0T13.553,25.216Zm4.184-7.8V27H15.2V17.42Zm0-3.454v2.312H15.2V13.966Zm1.485,3.454h2.813l2,7.066,2.039-7.066h2.689L25.3,27H22.658Zm18.94,1.213a5.59,5.59,0,0,1,1.213,3.595,5.553,5.553,0,0,1-1.213,3.608,4.456,4.456,0,0,1-3.683,1.5,4.456,4.456,0,0,1-3.683-1.5,5.553,5.553,0,0,1-1.213-3.608A5.59,5.59,0,0,1,30.8,18.633a4.426,4.426,0,0,1,3.683-1.521A4.426,4.426,0,0,1,38.162,18.633Zm-3.691.6a2,2,0,0,0-1.692.778,3.6,3.6,0,0,0-.593,2.219,3.619,3.619,0,0,0,.593,2.224,2.216,2.216,0,0,0,3.379,0,3.639,3.639,0,0,0,.589-2.224,3.619,3.619,0,0,0-.589-2.219A1.99,1.99,0,0,0,34.471,19.23Z" transform="translate(718 3639)" fill="#212429"/>
    <path id="Trazado_1050735" data-name="Trazado 1050735" d="M-40.628-11.477H-38.4l3.3,9.7,3.273-9.7h2.2V0H-31.1V-6.773q0-.352.016-1.164t.016-1.742L-34.347,0h-1.539l-3.3-9.68v.352q0,.422.02,1.285t.02,1.27V0h-1.484Zm14.259,9.25a1.158,1.158,0,0,0,.445.961,1.651,1.651,0,0,0,1.055.352,3.207,3.207,0,0,0,1.438-.344A1.935,1.935,0,0,0-22.26-3.125V-4.258a2.406,2.406,0,0,1-.664.273,5.659,5.659,0,0,1-.8.156l-.852.109a3.257,3.257,0,0,0-1.148.32A1.248,1.248,0,0,0-26.369-2.227Zm3.406-2.844a.764.764,0,0,0,.648-.406,1.236,1.236,0,0,0,.094-.539,1.142,1.142,0,0,0-.512-1.043A2.745,2.745,0,0,0-24.2-7.383a1.861,1.861,0,0,0-1.562.594,1.953,1.953,0,0,0-.336.977h-1.312a2.416,2.416,0,0,1,1-2.152,4.122,4.122,0,0,1,2.238-.605,4.554,4.554,0,0,1,2.4.563,1.908,1.908,0,0,1,.914,1.75v4.82a.617.617,0,0,0,.09.352.433.433,0,0,0,.379.133q.094,0,.211-.012t.25-.035V.039a3.917,3.917,0,0,1-.5.117,3.654,3.654,0,0,1-.469.023,1.157,1.157,0,0,1-1.055-.516,1.99,1.99,0,0,1-.242-.773,3.578,3.578,0,0,1-1.234.977A3.818,3.818,0,0,1-25.2.281a2.637,2.637,0,0,1-1.9-.707,2.349,2.349,0,0,1-.738-1.77A2.279,2.279,0,0,1-27.111-4,3.457,3.457,0,0,1-25.2-4.789Zm5.306.984a4.148,4.148,0,0,0,.57,2.25,2,2,0,0,0,1.828.906,1.925,1.925,0,0,0,1.605-.84,3.966,3.966,0,0,0,.629-2.41,3.564,3.564,0,0,0-.648-2.348,2.023,2.023,0,0,0-1.6-.762A2.114,2.114,0,0,0-17-6.477,3.721,3.721,0,0,0-17.656-4.086Zm2.117-4.43a2.977,2.977,0,0,1,1.609.406,3.78,3.78,0,0,1,.852.82v-4.227h1.352V0h-1.266V-1.164A3.043,3.043,0,0,1-14.156-.047,3.332,3.332,0,0,1-15.7.3,3.117,3.117,0,0,1-18.117-.879a4.6,4.6,0,0,1-1.023-3.129,5.4,5.4,0,0,1,.934-3.168A3.057,3.057,0,0,1-15.539-8.516Zm7.3.148v5.555a2.342,2.342,0,0,0,.2,1.047,1.417,1.417,0,0,0,1.4.75,1.977,1.977,0,0,0,2-1.312,5.207,5.207,0,0,0,.289-1.93V-8.367h1.406V0H-4.272l.016-1.234a2.837,2.837,0,0,1-.68.8A2.991,2.991,0,0,1-6.889.227a2.519,2.519,0,0,1-2.437-1.2A3.56,3.56,0,0,1-9.678-2.68V-8.367Zm7.533,0H.628v1.445a3.193,3.193,0,0,1,.8-1.027,2.086,2.086,0,0,1,1.477-.605q.039,0,.133.008l.32.031v1.484a2.1,2.1,0,0,0-.23-.031Q3.027-7.07,2.9-7.07a2.007,2.007,0,0,0-1.633.684A2.386,2.386,0,0,0,.7-4.812V0H-.708ZM5.661-2.227a1.158,1.158,0,0,0,.445.961,1.651,1.651,0,0,0,1.055.352A3.207,3.207,0,0,0,8.6-1.258,1.935,1.935,0,0,0,9.77-3.125V-4.258a2.406,2.406,0,0,1-.664.273,5.659,5.659,0,0,1-.8.156l-.852.109a3.257,3.257,0,0,0-1.148.32A1.248,1.248,0,0,0,5.661-2.227ZM9.067-5.07a.764.764,0,0,0,.648-.406,1.236,1.236,0,0,0,.094-.539A1.142,1.142,0,0,0,9.3-7.059a2.745,2.745,0,0,0-1.465-.324,1.861,1.861,0,0,0-1.562.594,1.953,1.953,0,0,0-.336.977H4.622a2.416,2.416,0,0,1,1-2.152A4.122,4.122,0,0,1,7.864-8.57a4.554,4.554,0,0,1,2.4.563,1.908,1.908,0,0,1,.914,1.75v4.82a.617.617,0,0,0,.09.352.433.433,0,0,0,.379.133q.094,0,.211-.012T12.106-1V.039a3.917,3.917,0,0,1-.5.117,3.654,3.654,0,0,1-.469.023,1.157,1.157,0,0,1-1.055-.516,1.99,1.99,0,0,1-.242-.773,3.578,3.578,0,0,1-1.234.977A3.818,3.818,0,0,1,6.833.281a2.637,2.637,0,0,1-1.9-.707A2.349,2.349,0,0,1,4.192-2.2,2.279,2.279,0,0,1,4.919-4a3.457,3.457,0,0,1,1.906-.789Zm7.642-3.539a3.648,3.648,0,0,1,2.3.688,3.294,3.294,0,0,1,1.066,2.367H18.709a2.524,2.524,0,0,0-.57-1.285,1.8,1.8,0,0,0-1.43-.512,1.975,1.975,0,0,0-1.922,1.313,5.214,5.214,0,0,0-.375,2.1,3.955,3.955,0,0,0,.531,2.117,1.822,1.822,0,0,0,1.672.859A1.828,1.828,0,0,0,18-1.5a2.943,2.943,0,0,0,.707-1.465h1.367A3.67,3.67,0,0,1,18.9-.527a3.656,3.656,0,0,1-2.4.77,3.2,3.2,0,0,1-2.617-1.2,4.59,4.59,0,0,1-.977-3,5.048,5.048,0,0,1,1.07-3.43A3.459,3.459,0,0,1,16.709-8.609Zm4.775.281h1.43V0h-1.43Zm0-3.148h1.43v1.594h-1.43ZM28.361-.906a1.939,1.939,0,0,0,1.918-1.059A5.274,5.274,0,0,0,30.8-4.32a4.194,4.194,0,0,0-.375-1.906,2.11,2.11,0,0,0-2.047-1.156A2.018,2.018,0,0,0,26.5-6.4a4.563,4.563,0,0,0-.586,2.375A3.969,3.969,0,0,0,26.5-1.8,2.064,2.064,0,0,0,28.361-.906Zm.055-7.7A3.789,3.789,0,0,1,31.15-7.531a4.21,4.21,0,0,1,1.117,3.172,5.442,5.442,0,0,1-.984,3.344A3.561,3.561,0,0,1,28.228.3,3.449,3.449,0,0,1,25.486-.863,4.613,4.613,0,0,1,24.47-4a4.991,4.991,0,0,1,1.07-3.359A3.592,3.592,0,0,1,28.416-8.609Zm1.633-3.125L27.963-9.477H26.885l1.43-2.258Zm3.892,3.367h1.336V-7.18a3.747,3.747,0,0,1,1.258-1.055,3.354,3.354,0,0,1,1.477-.32,2.435,2.435,0,0,1,2.406,1.242,4.411,4.411,0,0,1,.344,1.945V0h-1.43V-5.273A2.856,2.856,0,0,0,39.1-6.508a1.374,1.374,0,0,0-1.359-.781,2.768,2.768,0,0,0-.82.1A2.113,2.113,0,0,0,35.91-6.5a2.07,2.07,0,0,0-.457.855,5.758,5.758,0,0,0-.105,1.262V0H33.941Zm-64.6,20.852H-29.3v4.164a3.118,3.118,0,0,1,1.1-.918,3.1,3.1,0,0,1,1.391-.316,3.26,3.26,0,0,1,2.535,1.074,4.576,4.576,0,0,1,.973,3.168,5.433,5.433,0,0,1-.961,3.3,3.117,3.117,0,0,1-2.664,1.313A2.73,2.73,0,0,1-28.53,23.8a3.887,3.887,0,0,1-.836-.875V24h-1.3Zm3.656,10.539a1.879,1.879,0,0,0,1.707-.906,4.462,4.462,0,0,0,.566-2.391,3.924,3.924,0,0,0-.566-2.187,1.865,1.865,0,0,0-1.668-.867,2.327,2.327,0,0,0-1.684.711,3.193,3.193,0,0,0-.723,2.344,5.18,5.18,0,0,0,.3,1.914A2.051,2.051,0,0,0-27.006,23.023Zm5.353-7.352h1.43V24h-1.43Zm0-3.148h1.43v1.594h-1.43Zm6.877,10.57a1.939,1.939,0,0,0,1.918-1.059,5.274,5.274,0,0,0,.52-2.355,4.194,4.194,0,0,0-.375-1.906,2.11,2.11,0,0,0-2.047-1.156,2.018,2.018,0,0,0-1.875.984,4.563,4.563,0,0,0-.586,2.375,3.969,3.969,0,0,0,.586,2.227A2.064,2.064,0,0,0-14.777,23.094Zm.055-7.7a3.789,3.789,0,0,1,2.734,1.078,4.21,4.21,0,0,1,1.117,3.172,5.442,5.442,0,0,1-.984,3.344,3.561,3.561,0,0,1-3.055,1.32,3.449,3.449,0,0,1-2.742-1.168A4.613,4.613,0,0,1-18.667,20a4.991,4.991,0,0,1,1.07-3.359A3.592,3.592,0,0,1-14.722,15.391Zm5.564-2.867h1.406V24H-9.158Zm6.838,10.57A1.939,1.939,0,0,0-.4,22.035a5.274,5.274,0,0,0,.52-2.355,4.194,4.194,0,0,0-.375-1.906A2.11,2.11,0,0,0-2.3,16.617,2.018,2.018,0,0,0-4.18,17.6a4.563,4.563,0,0,0-.586,2.375A3.969,3.969,0,0,0-4.18,22.2,2.064,2.064,0,0,0-2.32,23.094Zm.055-7.7A3.789,3.789,0,0,1,.469,16.469a4.21,4.21,0,0,1,1.117,3.172A5.442,5.442,0,0,1,.6,22.984,3.561,3.561,0,0,1-2.453,24.3,3.449,3.449,0,0,1-5.2,23.137,4.613,4.613,0,0,1-6.211,20a4.991,4.991,0,0,1,1.07-3.359A3.592,3.592,0,0,1-2.266,15.391Zm1.633-3.125-2.086,2.258H-3.8l1.43-2.258Zm6.845,3.219a3.05,3.05,0,0,1,1.719.484,3.86,3.86,0,0,1,.813.8V15.711h1.3V23.32a5.611,5.611,0,0,1-.469,2.516,3.366,3.366,0,0,1-3.3,1.7,4.054,4.054,0,0,1-2.273-.605,2.361,2.361,0,0,1-1.031-1.895h1.43a1.591,1.591,0,0,0,.406.867,2.071,2.071,0,0,0,1.5.469,2.064,2.064,0,0,0,2.117-1.141,6.424,6.424,0,0,0,.273-2.4,2.759,2.759,0,0,1-1.016.953A3.379,3.379,0,0,1,6.1,24.1a3.352,3.352,0,0,1-2.379-.965A4.243,4.243,0,0,1,2.7,19.945a4.833,4.833,0,0,1,1.027-3.281A3.177,3.177,0,0,1,6.213,15.484Zm2.531,4.3a3.488,3.488,0,0,0-.641-2.3,2.052,2.052,0,0,0-1.633-.75,2.016,2.016,0,0,0-2.031,1.391,5.453,5.453,0,0,0-.289,1.945,3.453,3.453,0,0,0,.574,2.152,1.854,1.854,0,0,0,1.543.738A2.166,2.166,0,0,0,8.4,21.586,4.41,4.41,0,0,0,8.744,19.781Zm3.416-4.109h1.43V24h-1.43Zm0-3.148h1.43v1.594h-1.43Zm6.783,2.867a3.648,3.648,0,0,1,2.3.688,3.294,3.294,0,0,1,1.066,2.367H20.942a2.524,2.524,0,0,0-.57-1.285,1.8,1.8,0,0,0-1.43-.512,1.975,1.975,0,0,0-1.922,1.313,5.214,5.214,0,0,0-.375,2.1,3.955,3.955,0,0,0,.531,2.117,1.822,1.822,0,0,0,1.672.859,1.828,1.828,0,0,0,1.387-.535,2.943,2.943,0,0,0,.707-1.465h1.367a3.67,3.67,0,0,1-1.172,2.434,3.656,3.656,0,0,1-2.4.77,3.2,3.2,0,0,1-2.617-1.2,4.59,4.59,0,0,1-.977-3,5.048,5.048,0,0,1,1.07-3.43A3.459,3.459,0,0,1,18.942,15.391ZM24.8,21.773a1.158,1.158,0,0,0,.445.961,1.651,1.651,0,0,0,1.055.352,3.207,3.207,0,0,0,1.438-.344A1.935,1.935,0,0,0,28.9,20.875V19.742a2.406,2.406,0,0,1-.664.273,5.659,5.659,0,0,1-.8.156l-.852.109a3.257,3.257,0,0,0-1.148.32A1.248,1.248,0,0,0,24.8,21.773ZM28.2,18.93a.764.764,0,0,0,.648-.406,1.236,1.236,0,0,0,.094-.539,1.142,1.142,0,0,0-.512-1.043,2.745,2.745,0,0,0-1.465-.324,1.861,1.861,0,0,0-1.562.594,1.953,1.953,0,0,0-.336.977H23.756a2.416,2.416,0,0,1,1-2.152A4.122,4.122,0,0,1,27,15.43a4.554,4.554,0,0,1,2.4.563,1.908,1.908,0,0,1,.914,1.75v4.82a.617.617,0,0,0,.09.352.433.433,0,0,0,.379.133q.094,0,.211-.012t.25-.035v1.039a3.917,3.917,0,0,1-.5.117,3.654,3.654,0,0,1-.469.023,1.157,1.157,0,0,1-1.055-.516,1.99,1.99,0,0,1-.242-.773,3.578,3.578,0,0,1-1.234.977,3.818,3.818,0,0,1-1.773.414,2.637,2.637,0,0,1-1.9-.707,2.349,2.349,0,0,1-.738-1.77,2.279,2.279,0,0,1,.727-1.8,3.457,3.457,0,0,1,1.906-.789Z" transform="translate(417 3525)" fill="#212429"/>
    <path id="Trazado_1050736" data-name="Trazado 1050736" d="M-55.566-11.477H-47.2v1.406H-54.05v3.484h6.336v1.328H-54.05v3.891h6.969V0h-8.484Zm9.541,3.109h1.82l1.922,2.945,1.945-2.945,1.711.039-2.82,4.039L-38.5,0h-1.8l-2.078-3.141L-44.392,0h-1.781l2.945-4.289ZM-33.7-.945a2.006,2.006,0,0,0,1.637-.824,3.922,3.922,0,0,0,.652-2.465A4.6,4.6,0,0,0-31.7-5.953a2,2,0,0,0-2-1.383,1.994,1.994,0,0,0-2,1.461,5.79,5.79,0,0,0-.289,1.984A4.207,4.207,0,0,0-35.7-2.242,1.994,1.994,0,0,0-33.7-.945Zm-3.641-7.383h1.367v1.109a3.413,3.413,0,0,1,.922-.883,2.967,2.967,0,0,1,1.672-.469,3.144,3.144,0,0,1,2.414,1.09,4.465,4.465,0,0,1,.992,3.113A4.781,4.781,0,0,1-31.4-.461a3.23,3.23,0,0,1-2.109.742,2.863,2.863,0,0,1-1.586-.414,3.654,3.654,0,0,1-.836-.8V3.336h-1.406Zm12.494-.227a3.817,3.817,0,0,1,1.727.418,3.184,3.184,0,0,1,1.273,1.082,3.733,3.733,0,0,1,.563,1.477,9.661,9.661,0,0,1,.125,1.844h-6.133a3.579,3.579,0,0,0,.6,2.043,2.014,2.014,0,0,0,1.742.77,2.252,2.252,0,0,0,1.758-.727,2.449,2.449,0,0,0,.531-.977h1.383A2.912,2.912,0,0,1-21.635-1.6a3.654,3.654,0,0,1-.691.926,3.277,3.277,0,0,1-1.586.844A4.818,4.818,0,0,1-25.061.3,3.524,3.524,0,0,1-27.71-.84,4.423,4.423,0,0,1-28.8-4.023,4.809,4.809,0,0,1-27.7-7.3,3.608,3.608,0,0,1-24.842-8.555Zm2.242,3.7A3.643,3.643,0,0,0-23-6.312a2.042,2.042,0,0,0-1.93-1.016,2.139,2.139,0,0,0-1.625.7,2.641,2.641,0,0,0-.7,1.777Zm3.213-3.516h1.336v1.445a3.193,3.193,0,0,1,.8-1.027,2.086,2.086,0,0,1,1.477-.605q.039,0,.133.008l.32.031v1.484a2.1,2.1,0,0,0-.23-.031q-.105-.008-.23-.008a2.007,2.007,0,0,0-1.633.684,2.386,2.386,0,0,0-.57,1.574V0h-1.406Zm5.291.039h1.43V0H-14.1Zm0-3.148h1.43v1.594H-14.1Zm7.041,2.922a3.817,3.817,0,0,1,1.727.418A3.184,3.184,0,0,1-4.056-7.055a3.733,3.733,0,0,1,.563,1.477,9.661,9.661,0,0,1,.125,1.844H-9.5a3.579,3.579,0,0,0,.6,2.043,2.014,2.014,0,0,0,1.742.77A2.252,2.252,0,0,0-5.4-1.648a2.449,2.449,0,0,0,.531-.977h1.383A2.912,2.912,0,0,1-3.849-1.6a3.654,3.654,0,0,1-.691.926A3.277,3.277,0,0,1-6.127.172,4.818,4.818,0,0,1-7.275.3,3.524,3.524,0,0,1-9.923-.84a4.423,4.423,0,0,1-1.086-3.184A4.809,4.809,0,0,1-9.916-7.3,3.608,3.608,0,0,1-7.056-8.555Zm2.242,3.7a3.643,3.643,0,0,0-.4-1.461,2.042,2.042,0,0,0-1.93-1.016,2.139,2.139,0,0,0-1.625.7,2.641,2.641,0,0,0-.7,1.777Zm3.173-3.516H-.3V-7.18A3.747,3.747,0,0,1,.953-8.234a3.354,3.354,0,0,1,1.477-.32A2.435,2.435,0,0,1,4.836-7.312,4.411,4.411,0,0,1,5.18-5.367V0H3.75V-5.273a2.856,2.856,0,0,0-.227-1.234,1.374,1.374,0,0,0-1.359-.781,2.768,2.768,0,0,0-.82.1A2.113,2.113,0,0,0,.328-6.5a2.07,2.07,0,0,0-.457.855A5.758,5.758,0,0,0-.234-4.383V0H-1.641Zm12.127-.242a3.648,3.648,0,0,1,2.3.688,3.294,3.294,0,0,1,1.066,2.367H12.486a2.524,2.524,0,0,0-.57-1.285,1.8,1.8,0,0,0-1.43-.512A1.975,1.975,0,0,0,8.564-6.039a5.214,5.214,0,0,0-.375,2.1A3.955,3.955,0,0,0,8.72-1.82a1.822,1.822,0,0,0,1.672.859A1.828,1.828,0,0,0,11.779-1.5a2.943,2.943,0,0,0,.707-1.465h1.367A3.67,3.67,0,0,1,12.681-.527a3.656,3.656,0,0,1-2.4.77,3.2,3.2,0,0,1-2.617-1.2,4.59,4.59,0,0,1-.977-3,5.048,5.048,0,0,1,1.07-3.43A3.459,3.459,0,0,1,10.486-8.609Zm4.775.281h1.43V0h-1.43Zm0-3.148h1.43v1.594h-1.43ZM19.9-2.227a1.158,1.158,0,0,0,.445.961A1.651,1.651,0,0,0,21.4-.914a3.207,3.207,0,0,0,1.438-.344A1.935,1.935,0,0,0,24-3.125V-4.258a2.406,2.406,0,0,1-.664.273,5.659,5.659,0,0,1-.8.156l-.852.109a3.257,3.257,0,0,0-1.148.32A1.248,1.248,0,0,0,19.9-2.227ZM23.3-5.07a.764.764,0,0,0,.648-.406,1.236,1.236,0,0,0,.094-.539,1.142,1.142,0,0,0-.512-1.043,2.745,2.745,0,0,0-1.465-.324,1.861,1.861,0,0,0-1.562.594,1.953,1.953,0,0,0-.336.977H18.856a2.416,2.416,0,0,1,1-2.152A4.122,4.122,0,0,1,22.1-8.57a4.554,4.554,0,0,1,2.4.563,1.908,1.908,0,0,1,.914,1.75v4.82a.617.617,0,0,0,.09.352.433.433,0,0,0,.379.133q.094,0,.211-.012T26.341-1V.039a3.917,3.917,0,0,1-.5.117,3.654,3.654,0,0,1-.469.023,1.157,1.157,0,0,1-1.055-.516,1.99,1.99,0,0,1-.242-.773,3.578,3.578,0,0,1-1.234.977,3.818,3.818,0,0,1-1.773.414,2.637,2.637,0,0,1-1.9-.707,2.349,2.349,0,0,1-.738-1.77A2.279,2.279,0,0,1,19.153-4a3.457,3.457,0,0,1,1.906-.789Zm5.252,2.445A2.045,2.045,0,0,0,28.9-1.547a2.209,2.209,0,0,0,1.844.68,2.719,2.719,0,0,0,1.375-.34,1.129,1.129,0,0,0,.594-1.051.9.9,0,0,0-.477-.82,5.666,5.666,0,0,0-1.2-.4L29.92-3.758a5.45,5.45,0,0,1-1.578-.594,1.775,1.775,0,0,1-.906-1.578,2.411,2.411,0,0,1,.855-1.922,3.413,3.413,0,0,1,2.3-.734,3.194,3.194,0,0,1,2.727,1.109,2.407,2.407,0,0,1,.508,1.516H32.5a1.627,1.627,0,0,0-.336-.867,2.143,2.143,0,0,0-1.68-.555,2.008,2.008,0,0,0-1.207.3.955.955,0,0,0-.41.8A.991.991,0,0,0,29.4-5.4a3.239,3.239,0,0,0,.922.344l.93.227a7.188,7.188,0,0,1,2.031.711,1.882,1.882,0,0,1,.82,1.7,2.584,2.584,0,0,1-.848,1.93A3.608,3.608,0,0,1,30.678.32a3.464,3.464,0,0,1-2.645-.848,3.206,3.206,0,0,1-.832-2.1Zm15.1-5.93a3.817,3.817,0,0,1,1.727.418A3.184,3.184,0,0,1,46.65-7.055a3.733,3.733,0,0,1,.563,1.477,9.661,9.661,0,0,1,.125,1.844H41.2a3.579,3.579,0,0,0,.6,2.043,2.014,2.014,0,0,0,1.742.77,2.252,2.252,0,0,0,1.758-.727,2.449,2.449,0,0,0,.531-.977h1.383A2.912,2.912,0,0,1,46.857-1.6a3.654,3.654,0,0,1-.691.926A3.277,3.277,0,0,1,44.58.172,4.818,4.818,0,0,1,43.431.3,3.524,3.524,0,0,1,40.783-.84,4.423,4.423,0,0,1,39.7-4.023,4.809,4.809,0,0,1,40.791-7.3,3.608,3.608,0,0,1,43.65-8.555Zm2.242,3.7a3.643,3.643,0,0,0-.4-1.461,2.042,2.042,0,0,0-1.93-1.016,2.139,2.139,0,0,0-1.625.7,2.641,2.641,0,0,0-.7,1.777Zm3.173-3.516H50.4V-7.18A3.747,3.747,0,0,1,51.66-8.234a3.354,3.354,0,0,1,1.477-.32,2.435,2.435,0,0,1,2.406,1.242,4.411,4.411,0,0,1,.344,1.945V0h-1.43V-5.273a2.856,2.856,0,0,0-.227-1.234,1.374,1.374,0,0,0-1.359-.781,2.768,2.768,0,0,0-.82.1,2.113,2.113,0,0,0-1.016.688,2.07,2.07,0,0,0-.457.855,5.758,5.758,0,0,0-.105,1.262V0H49.066ZM-33.3,15.445a3.817,3.817,0,0,1,1.727.418A3.184,3.184,0,0,1-30.3,16.945a3.733,3.733,0,0,1,.563,1.477,9.661,9.661,0,0,1,.125,1.844h-6.133a3.579,3.579,0,0,0,.6,2.043,2.014,2.014,0,0,0,1.742.77,2.252,2.252,0,0,0,1.758-.727,2.449,2.449,0,0,0,.531-.977h1.383A2.912,2.912,0,0,1-30.09,22.4a3.654,3.654,0,0,1-.691.926,3.277,3.277,0,0,1-1.586.844,4.818,4.818,0,0,1-1.148.125,3.524,3.524,0,0,1-2.648-1.137,4.423,4.423,0,0,1-1.086-3.184A4.809,4.809,0,0,1-36.156,16.7,3.608,3.608,0,0,1-33.3,15.445Zm2.242,3.7a3.643,3.643,0,0,0-.4-1.461,2.042,2.042,0,0,0-1.93-1.016,2.139,2.139,0,0,0-1.625.7,2.641,2.641,0,0,0-.7,1.777Zm3.213-6.625h1.406V24h-1.406Zm11.449,2.922a3.817,3.817,0,0,1,1.727.418,3.184,3.184,0,0,1,1.273,1.082,3.733,3.733,0,0,1,.563,1.477,9.661,9.661,0,0,1,.125,1.844h-6.133a3.579,3.579,0,0,0,.6,2.043,2.014,2.014,0,0,0,1.742.77,2.252,2.252,0,0,0,1.758-.727,2.449,2.449,0,0,0,.531-.977h1.383a2.912,2.912,0,0,1-.363,1.027,3.654,3.654,0,0,1-.691.926,3.277,3.277,0,0,1-1.586.844,4.818,4.818,0,0,1-1.148.125,3.524,3.524,0,0,1-2.648-1.137,4.423,4.423,0,0,1-1.086-3.184A4.809,4.809,0,0,1-19.253,16.7,3.608,3.608,0,0,1-16.394,15.445Zm2.242,3.7a3.643,3.643,0,0,0-.4-1.461,2.042,2.042,0,0,0-1.93-1.016,2.139,2.139,0,0,0-1.625.7,2.641,2.641,0,0,0-.7,1.777Zm3.173-3.516h1.336V16.82a3.747,3.747,0,0,1,1.258-1.055,3.354,3.354,0,0,1,1.477-.32A2.435,2.435,0,0,1-4.5,16.688a4.411,4.411,0,0,1,.344,1.945V24h-1.43V18.727a2.856,2.856,0,0,0-.227-1.234,1.374,1.374,0,0,0-1.359-.781,2.768,2.768,0,0,0-.82.1,2.113,2.113,0,0,0-1.016.688,2.07,2.07,0,0,0-.457.855,5.758,5.758,0,0,0-.105,1.262V24h-1.406ZM-1.8,13.3H-.375v2.336H.961v1.148H-.375v5.461a.591.591,0,0,0,.3.586,1.262,1.262,0,0,0,.547.086q.1,0,.219,0t.273-.02V24a3.139,3.139,0,0,1-.5.1,4.791,4.791,0,0,1-.566.031,1.527,1.527,0,0,1-1.336-.5A2.239,2.239,0,0,1-1.8,22.32V16.781H-2.93V15.633H-1.8Zm7.486,9.8a1.939,1.939,0,0,0,1.918-1.059,5.274,5.274,0,0,0,.52-2.355,4.194,4.194,0,0,0-.375-1.906A2.11,2.11,0,0,0,5.7,16.617,2.018,2.018,0,0,0,3.83,17.6a4.563,4.563,0,0,0-.586,2.375A3.969,3.969,0,0,0,3.83,22.2,2.064,2.064,0,0,0,5.689,23.094Zm.055-7.7a3.789,3.789,0,0,1,2.734,1.078A4.21,4.21,0,0,1,9.6,19.641a5.442,5.442,0,0,1-.984,3.344A3.561,3.561,0,0,1,5.556,24.3a3.449,3.449,0,0,1-2.742-1.168A4.613,4.613,0,0,1,1.8,20a4.991,4.991,0,0,1,1.07-3.359A3.592,3.592,0,0,1,5.744,15.391Zm5.564.242h1.336v1.445a3.193,3.193,0,0,1,.8-1.027,2.086,2.086,0,0,1,1.477-.605q.039,0,.133.008l.32.031v1.484a2.1,2.1,0,0,0-.23-.031q-.105-.008-.23-.008a2.007,2.007,0,0,0-1.633.684,2.386,2.386,0,0,0-.57,1.574V24H11.308Zm5.291,0h1.336V16.82a3.747,3.747,0,0,1,1.258-1.055,3.354,3.354,0,0,1,1.477-.32,2.435,2.435,0,0,1,2.406,1.242,4.411,4.411,0,0,1,.344,1.945V24h-1.43V18.727a2.856,2.856,0,0,0-.227-1.234,1.374,1.374,0,0,0-1.359-.781,2.768,2.768,0,0,0-.82.1,2.113,2.113,0,0,0-1.016.688,2.07,2.07,0,0,0-.457.855A5.758,5.758,0,0,0,18,19.617V24H16.6Zm12.22,7.461a1.939,1.939,0,0,0,1.918-1.059,5.274,5.274,0,0,0,.52-2.355,4.194,4.194,0,0,0-.375-1.906,2.11,2.11,0,0,0-2.047-1.156,2.018,2.018,0,0,0-1.875.984,4.563,4.563,0,0,0-.586,2.375A3.969,3.969,0,0,0,26.96,22.2,2.064,2.064,0,0,0,28.819,23.094Zm.055-7.7a3.789,3.789,0,0,1,2.734,1.078,4.21,4.21,0,0,1,1.117,3.172,5.442,5.442,0,0,1-.984,3.344,3.561,3.561,0,0,1-3.055,1.32,3.449,3.449,0,0,1-2.742-1.168A4.613,4.613,0,0,1,24.928,20,4.991,4.991,0,0,1,26,16.641,3.592,3.592,0,0,1,28.874,15.391Z" transform="translate(417 3761)" fill="#212429"/>
    <path id="Unión_1" data-name="Unión 1" d="M1394.8,43.5V34.01H1360a1,1,0,0,1-1-1V12.4a1,1,0,0,1,1-1h34.8V1.908a1,1,0,0,1,1.534-.845l32.928,20.8a1,1,0,0,1,0,1.691l-32.928,20.8a.989.989,0,0,1-.532.156A1,1,0,0,1,1394.8,43.5Z" transform="translate(-848.851 3626.295)" fill="#4e4948"/>
  </g>
</svg>
