<svg xmlns="http://www.w3.org/2000/svg" xmlns:xlink="http://www.w3.org/1999/xlink" width="108" height="108" viewBox="0 0 108 108">
  <defs>
    <filter id="Trazado_904820" x="0" y="0" width="108" height="108" filterUnits="userSpaceOnUse">
      <feOffset dy="3" input="SourceAlpha"/>
      <feGaussianBlur stdDeviation="3" result="blur"/>
      <feFlood flood-opacity="0.161"/>
      <feComposite operator="in" in2="blur"/>
      <feComposite in="SourceGraphic"/>
    </filter>
    <clipPath id="clip-path">
      <path id="path3015" d="M0-682.665H57.7v57.7H0Z" transform="translate(0 682.665)"/>
    </clipPath>
  </defs>
  <g id="Grupo_1207082" data-name="Grupo 1207082" transform="translate(-201 -429.855)">
    <g id="Grupo_1206304" data-name="Grupo 1206304" transform="translate(210 435.855)">
      <g id="Grupo_1201662" data-name="Grupo 1201662" transform="translate(0 0)">
        <g id="Grupo_1173585" data-name="Grupo 1173585">
          <g id="Grupo_1173428" data-name="Grupo 1173428">
            <g id="Grupo_1171958" data-name="Grupo 1171958">
              <g id="Grupo_1167341" data-name="Grupo 1167341">
                <g id="Grupo_1166792" data-name="Grupo 1166792">
                  <g transform="matrix(1, 0, 0, 1, -9, -6)" filter="url(#Trazado_904820)">
                    <g id="Trazado_904820-2" data-name="Trazado 904820" transform="translate(9 6)" fill="#edf3fc">
                      <path d="M 44.99999618530273 88.49999237060547 C 39.12687301635742 88.49999237060547 33.43022155761719 87.35006713867188 28.06829643249512 85.08216857910156 C 22.88852119445801 82.89130401611328 18.23629570007324 79.75457763671875 14.24084663391113 75.75914001464844 C 10.24540901184082 71.76369476318359 7.108683586120605 67.11146545410156 4.917821407318115 61.93169403076172 C 2.649921178817749 56.56976699829102 1.499996185302734 50.87311553955078 1.499996185302734 44.99999237060547 C 1.499996185302734 39.12686920166016 2.649921178817749 33.43021774291992 4.917821407318115 28.06829261779785 C 7.108683586120605 22.88851737976074 10.24540901184082 18.23630523681641 14.24084663391113 14.24085521697998 C 18.23629570007324 10.24540519714355 22.88852119445801 7.108692169189453 28.06829643249512 4.917829990386963 C 33.43022155761719 2.649929761886597 39.12687301635742 1.500004887580872 44.99999618530273 1.500004887580872 C 50.87311935424805 1.500004887580872 56.56977081298828 2.649929761886597 61.93169784545898 4.917829990386963 C 67.11147308349609 7.108692169189453 71.76369476318359 10.24540519714355 75.75914764404297 14.24085521697998 C 79.75458526611328 18.23630523681641 82.89131164550781 22.88851737976074 85.08216857910156 28.06829261779785 C 87.35007476806641 33.43021774291992 88.5 39.12686920166016 88.5 44.99999237060547 C 88.5 50.87311553955078 87.35007476806641 56.56976699829102 85.08216857910156 61.93169403076172 C 82.89131164550781 67.11146545410156 79.75458526611328 71.76369476318359 75.75914764404297 75.75914001464844 C 71.76369476318359 79.75457763671875 67.11147308349609 82.89130401611328 61.93169784545898 85.08216857910156 C 56.56977081298828 87.35006713867188 50.87311935424805 88.49999237060547 44.99999618530273 88.49999237060547 Z" stroke="none"/>
                      <path d="M 44.99999618530273 2.999992370605469 C 39.32870864868164 2.999992370605469 33.82865142822266 4.11004638671875 28.65262603759766 6.299331665039062 C 23.65165710449219 8.414566040039062 19.15968322753906 11.44333648681641 15.301513671875 15.30150604248047 C 11.44333648681641 19.15967559814453 8.414566040039062 23.65164947509766 6.299339294433594 28.65262222290039 C 4.110054016113281 33.82864761352539 2.999992370605469 39.32870483398438 2.999992370605469 44.99999237060547 C 2.999992370605469 50.67127990722656 4.110054016113281 56.17132186889648 6.299339294433594 61.34736633300781 C 8.414566040039062 66.34833526611328 11.44333648681641 70.84029388427734 15.301513671875 74.69846343994141 C 19.15968322753906 78.55663299560547 23.65165710449219 81.58540344238281 28.65262603759766 83.70063781738281 C 33.82865142822266 85.88992309570312 39.32870864868164 86.99997711181641 44.99999618530273 86.99997711181641 C 50.67128372192383 86.99997711181641 56.17134094238281 85.88992309570312 61.34736633300781 83.70063781738281 C 66.34834289550781 81.58540344238281 70.84030914306641 78.55663299560547 74.69847869873047 74.69846343994141 C 78.55665588378906 70.84029388427734 81.58542633056641 66.34833526611328 83.70065307617188 61.34736633300781 C 85.88993835449219 56.17132186889648 87 50.67127990722656 87 44.99999237060547 C 87 39.32870483398438 85.88993835449219 33.82864761352539 83.70065307617188 28.65262222290039 C 81.58542633056641 23.65164947509766 78.55665588378906 19.15967559814453 74.69847869873047 15.30150604248047 C 70.84030914306641 11.44333648681641 66.34834289550781 8.414566040039062 61.34736633300781 6.299331665039062 C 56.17134094238281 4.11004638671875 50.67128372192383 2.999992370605469 44.99999618530273 2.999992370605469 M 44.99999618530273 -7.62939453125e-06 C 69.85281372070312 -7.62939453125e-06 90 20.14717864990234 90 44.99999237060547 C 90 69.85279083251953 69.85281372070312 89.99997711181641 44.99999618530273 89.99997711181641 C 20.14717864990234 89.99997711181641 -7.62939453125e-06 69.85279083251953 -7.62939453125e-06 44.99999237060547 C -7.62939453125e-06 20.14717864990234 20.14717864990234 -7.62939453125e-06 44.99999618530273 -7.62939453125e-06 Z" stroke="none" fill="#5692e8"/>
                    </g>
                  </g>
                </g>
              </g>
            </g>
          </g>
        </g>
      </g>
    </g>
    <g id="g3009" transform="translate(226.151 1134.672)">
      <g id="g3011" transform="translate(0 -682.665)">
        <g id="g3013" transform="translate(0 0)" clip-path="url(#clip-path)">
          <g id="g3019" transform="translate(13.78 35.955)">
            <path id="path3021" d="M0-159.932c0-9.852,6.256-13.638,6.256-13.638L23.881-174.7s6.256,4.913,6.256,14.765Z" transform="translate(0 174.697)" fill="#ffb4bf"/>
          </g>
          <g id="g3023" transform="translate(39.483 0.87)">
            <path id="path3025" d="M-23.446-18.713a5.9,5.9,0,0,1,8.342,0,5.9,5.9,0,0,1,0,8.342c-2.3,2.3-6.816,3.081-9.119.777s-1.526-6.816.777-9.119" transform="translate(25.611 20.441)" fill="#4c5698"/>
          </g>
          <g id="g3027" transform="translate(7.377 0.864)">
            <path id="path3029" d="M0-232.573a21.5,21.5,0,0,1,21.471-21.471,21.5,21.5,0,0,1,21.471,21.471Z" transform="translate(0 254.045)" fill="#696eb1"/>
          </g>
          <g id="g3031" transform="translate(5.981 0.87)">
            <path id="path3033" d="M-122.229-36.779a7.01,7.01,0,0,0-1.215-1.668,5.9,5.9,0,0,0-8.342,0,5.9,5.9,0,0,0,0,8.342,7.215,7.215,0,0,0,2.122,1.439,21.338,21.338,0,0,0-2.453,9.957h7.623a27.021,27.021,0,0,1,10.756-21.248,21.339,21.339,0,0,0-8.491,3.178" transform="translate(133.513 40.174)" fill="#4c5698"/>
          </g>
          <g id="g3035" transform="translate(42.229 19.85)">
            <path id="path3037" d="M0-48.351a4.464,4.464,0,0,0,4.464,4.464,4.464,4.464,0,0,0,4.464-4.464,4.464,4.464,0,0,0-4.464-4.464A4.464,4.464,0,0,0,0-48.351" transform="translate(0 52.815)" fill="#c7856a"/>
          </g>
          <g id="g3039" transform="translate(18.017 35.955)">
            <path id="path3041" d="M-212.782,0l-17.625,1.127a10.49,10.49,0,0,0-2.019,1.761,21.7,21.7,0,0,0,10.81,2.806h.2a21.732,21.732,0,0,0,11.068-3.02A14.593,14.593,0,0,0-212.782,0" transform="translate(232.426 0)" fill="#ff8d9d"/>
          </g>
          <g id="g3043" transform="translate(11.225 12.83)">
            <path id="path3045" d="M-361.911-18.047a1.348,1.348,0,0,0-2.012-.487,5.642,5.642,0,0,1-3.388,1.124,5.656,5.656,0,0,1-4.206-1.867,1.34,1.34,0,0,0-1.977,0A5.656,5.656,0,0,1-377.7-17.41a5.656,5.656,0,0,1-4.206-1.867,1.34,1.34,0,0,0-1.977,0,5.656,5.656,0,0,1-4.206,1.867,5.642,5.642,0,0,1-3.388-1.124,1.344,1.344,0,0,0-2,.474,17.548,17.548,0,0,0-1.843,7.853c0,9.726,8.054,16.581,17.78,16.5,9.662-.084,17.468-6.815,17.468-16.5a17.548,17.548,0,0,0-1.836-7.839" transform="translate(395.323 19.713)" fill="#da9d81"/>
          </g>
          <g id="g3047" transform="translate(6.541 13.741)">
            <path id="path3049" d="M-127.758-238.1a26.94,26.94,0,0,1-3.34-13.033,27.056,27.056,0,0,1,1.21-8.025,5.666,5.666,0,0,1-1.133-.657,1.344,1.344,0,0,0-2,.474,17.5,17.5,0,0,0-1.67,5.386c-.128-.012-.258-.019-.393-.019a4.464,4.464,0,0,0-4.464,4.464,4.464,4.464,0,0,0,4.464,4.464,3.817,3.817,0,0,0,1.414-.257,16.012,16.012,0,0,0,5.916,7.2" transform="translate(139.553 260.077)" fill="#c7856a"/>
          </g>
          <g id="g3051" transform="translate(14.923 26.6)">
            <path id="path3053" d="M-81.31-32.376c0,1.651-1.68,2.989-3.753,2.989s-3.753-1.338-3.753-2.989,1.68-2.989,3.753-2.989,3.753,1.338,3.753,2.989" transform="translate(88.817 35.365)" fill="#eeedff"/>
          </g>
          <g id="g3055" transform="translate(35.268 26.6)">
            <path id="path3057" d="M0-32.376c0,1.651,1.68,2.989,3.753,2.989s3.753-1.338,3.753-2.989-1.68-2.989-3.753-2.989S0-34.027,0-32.376" transform="translate(0 35.365)" fill="#eeedff"/>
          </g>
          <path id="path3059" d="M66.007-90.349H10v-7.4H66.007Z" transform="translate(-9.155 147.182)" fill="#71dbba"/>
          <g id="g3061" transform="translate(11.225 34.443)">
            <path id="path3063" d="M-56.358,0h0a5.2,5.2,0,0,0-5.2,5.2,3.129,3.129,0,0,0,3.129,3.129h4.148A3.129,3.129,0,0,0-51.155,5.2a5.2,5.2,0,0,0-5.2-5.2" transform="translate(61.561)" fill="#c7856a"/>
          </g>
          <g id="g3065" transform="translate(19.965 42.774)">
            <path id="path3067" d="M-169.929-86.069h-13.609l-2.079-3.973,2.079-3.973h13.609l2.065,3.973Z" transform="translate(185.617 94.014)" fill="#fce29f"/>
          </g>
          <g id="g3069" transform="translate(8.435 42.774)">
            <path id="path3071" d="M-28.918,0a2.67,2.67,0,0,0-2.67,2.67V5.276a2.67,2.67,0,0,0,2.67,2.67h10.939V0Z" transform="translate(31.588)" fill="#ff8d9d"/>
          </g>
          <g id="g3073" transform="translate(35.653 42.774)">
            <path id="path3075" d="M-118.494,0h-10.939V7.946h10.939a2.67,2.67,0,0,0,2.67-2.67V2.67A2.67,2.67,0,0,0-118.494,0" transform="translate(129.433)" fill="#c8a9f1"/>
          </g>
          <g id="g3077" transform="translate(8.435 42.774)">
            <path id="path3079" d="M-41.271-21.293a8.672,8.672,0,0,1,.227-1.966h-1.367a2.67,2.67,0,0,0-2.67,2.67v2.606a2.67,2.67,0,0,0,2.67,2.67h3.543a8.62,8.62,0,0,1-2.4-5.98" transform="translate(45.081 23.259)" fill="#e95b70"/>
          </g>
          <g id="g3081" transform="translate(22.044 42.774)">
            <path id="path3083" d="M-67.3-86.069a8.62,8.62,0,0,1-2.4-5.98,8.672,8.672,0,0,1,.227-1.966h-4.037v7.946Z" transform="translate(73.512 94.014)" fill="#ffcd71"/>
          </g>
          <g id="g3085" transform="translate(35.653 42.774)">
            <path id="path3087" d="M-67.3-86.069a8.62,8.62,0,0,1-2.4-5.98,8.679,8.679,0,0,1,.227-1.966h-4.037v7.946Z" transform="translate(73.513 94.014)" fill="#b18ae3"/>
          </g>
          <g id="g3089" transform="translate(20.864 25.177)">
            <path id="path3091" d="M0,0V1.534" transform="translate(0)" fill="none" stroke="#000" stroke-linecap="round" stroke-linejoin="round" stroke-miterlimit="10" stroke-width="1"/>
          </g>
          <g id="g3093" transform="translate(36.833 25.177)">
            <path id="path3095" d="M0,0V1.534" transform="translate(0)" fill="none" stroke="#000" stroke-linecap="round" stroke-linejoin="round" stroke-miterlimit="10" stroke-width="1"/>
          </g>
          <g id="g3097" transform="translate(26.744 26.666)">
            <path id="path3099" d="M0,0A2.785,2.785,0,0,0,2.105.959,2.784,2.784,0,0,0,4.21,0" fill="none" stroke="#000" stroke-linecap="round" stroke-linejoin="round" stroke-miterlimit="10" stroke-width="1"/>
          </g>
          <g id="g3101" transform="translate(8.435 42.774)">
            <path id="path3103" d="M-28.918,0a2.67,2.67,0,0,0-2.67,2.67V5.276a2.67,2.67,0,0,0,2.67,2.67h10.939V0Z" transform="translate(31.588)" fill="none" stroke="#000" stroke-linecap="round" stroke-linejoin="round" stroke-miterlimit="10" stroke-width="1"/>
          </g>
          <g id="g3105" transform="translate(35.653 42.774)">
            <path id="path3107" d="M-118.494,0h-10.939V7.946h10.939a2.67,2.67,0,0,0,2.67-2.67V2.67A2.67,2.67,0,0,0-118.494,0Z" transform="translate(129.433)" fill="none" stroke="#000" stroke-linecap="round" stroke-linejoin="round" stroke-miterlimit="10" stroke-width="1"/>
          </g>
          <path id="path3109" d="M274.431-168.619H260.822v-7.946h13.609Z" transform="translate(-238.778 219.339)" fill="none" stroke="#000" stroke-linecap="round" stroke-linejoin="round" stroke-miterlimit="10" stroke-width="1"/>
          <g id="g3111" transform="translate(5.981 0.87)">
            <path id="path3113" d="M-41.708-124.658a21.626,21.626,0,0,1,7.434-8.113,7.016,7.016,0,0,0-1.215-1.668,5.9,5.9,0,0,0-8.342,0,5.9,5.9,0,0,0,0,8.342A7.215,7.215,0,0,0-41.708-124.658Z" transform="translate(45.558 136.166)" fill="none" stroke="#000" stroke-linecap="round" stroke-linejoin="round" stroke-miterlimit="10" stroke-width="1"/>
          </g>
          <g id="g3115" transform="translate(40.432 1.065)">
            <path id="path3117" d="M-42.064,0a5.868,5.868,0,0,0-2.669,1.532A7.009,7.009,0,0,0-45.948,3.2a21.627,21.627,0,0,1,7.434,8.113,7.215,7.215,0,0,0,2.123-1.439,5.9,5.9,0,0,0,0-8.342,5.873,5.873,0,0,0-2.3-1.422" transform="translate(45.948)" fill="none" stroke="#000" stroke-linecap="round" stroke-linejoin="round" stroke-miterlimit="10" stroke-width="1"/>
          </g>
          <g id="g3119" transform="translate(7.387 0.864)">
            <path id="path3121" d="M-39.184-205.656c.133,0,.263.007.393.018a17.5,17.5,0,0,1,1.67-5.386,1.344,1.344,0,0,1,2-.474,5.641,5.641,0,0,0,3.388,1.124,5.656,5.656,0,0,0,4.206-1.867,1.34,1.34,0,0,1,1.977,0,5.656,5.656,0,0,0,4.206,1.867,5.656,5.656,0,0,0,4.206-1.867,1.34,1.34,0,0,1,1.977,0,5.656,5.656,0,0,0,4.206,1.867A5.642,5.642,0,0,0-7.564-211.5a1.348,1.348,0,0,1,2.011.487,17.5,17.5,0,0,1,1.663,5.372c.129-.011.26-.018.393-.018a4.457,4.457,0,0,1,3.617,1.85A21.5,21.5,0,0,0-21.34-224.642,21.5,21.5,0,0,0-42.8-203.806,4.457,4.457,0,0,1-39.184-205.656Z" transform="translate(42.801 224.642)" fill="none" stroke="#000" stroke-linecap="round" stroke-linejoin="round" stroke-miterlimit="10" stroke-width="1"/>
          </g>
          <g id="g3123" transform="translate(6.541 19.85)">
            <path id="path3125" d="M-50.732-26.916a17.772,17.772,0,0,1,.173-2.467c-.129-.011-.26-.018-.393-.018a4.464,4.464,0,0,0-4.464,4.464,4.464,4.464,0,0,0,4.464,4.464,4.457,4.457,0,0,0,1.423-.233A16.237,16.237,0,0,1-50.732-26.916Z" transform="translate(55.416 29.401)" fill="none" stroke="#000" stroke-linecap="round" stroke-linejoin="round" stroke-miterlimit="10" stroke-width="1"/>
          </g>
          <g id="g3127" transform="translate(45.286 19.85)">
            <path id="path3129" d="M-15.236,0c-.133,0-.263.007-.393.018a17.773,17.773,0,0,1,.173,2.467A16.409,16.409,0,0,1-16.643,8.7a4.456,4.456,0,0,0,1.407.228,4.464,4.464,0,0,0,4.464-4.464A4.464,4.464,0,0,0-15.236,0Z" transform="translate(16.643)" fill="none" stroke="#000" stroke-linecap="round" stroke-linejoin="round" stroke-miterlimit="10" stroke-width="1"/>
          </g>
          <g id="g3131" transform="translate(18.502 36.454)">
            <path id="path3133" d="M-213.564,0a19.113,19.113,0,0,1-9.213,2.377A19.21,19.21,0,0,1-230.757.756a5.18,5.18,0,0,1,.605,2.435,3.129,3.129,0,0,1-3.129,3.129h23.9A18.643,18.643,0,0,0-213.564,0Z" transform="translate(233.281)" fill="none" stroke="#000" stroke-linecap="round" stroke-linejoin="round" stroke-miterlimit="10" stroke-width="1"/>
          </g>
          <g id="g3135" transform="translate(11.225 12.83)">
            <path id="path3137" d="M-361.91-18.047a1.348,1.348,0,0,0-2.012-.487,5.641,5.641,0,0,1-3.388,1.124,5.656,5.656,0,0,1-4.206-1.867,1.34,1.34,0,0,0-1.977,0,5.656,5.656,0,0,1-4.206,1.867,5.656,5.656,0,0,1-4.206-1.867,1.34,1.34,0,0,0-1.977,0,5.656,5.656,0,0,1-4.206,1.867,5.642,5.642,0,0,1-3.388-1.124,1.344,1.344,0,0,0-2,.474,17.544,17.544,0,0,0-1.843,7.853,15.826,15.826,0,0,0,5.455,12.114,5.2,5.2,0,0,1,4.346,2.761,19.209,19.209,0,0,0,7.979,1.621c9.661-.084,17.468-6.815,17.468-16.5A17.546,17.546,0,0,0-361.91-18.047Z" transform="translate(395.322 19.713)" fill="none" stroke="#000" stroke-linecap="round" stroke-linejoin="round" stroke-miterlimit="10" stroke-width="1"/>
          </g>
          <g id="g3139" transform="translate(11.225 34.443)">
            <path id="path3141" d="M-56.358,0h0a5.2,5.2,0,0,0-5.2,5.2,3.129,3.129,0,0,0,3.129,3.129h4.148A3.129,3.129,0,0,0-51.155,5.2,5.2,5.2,0,0,0-56.358,0Z" transform="translate(61.561)" fill="none" stroke="#000" stroke-linecap="round" stroke-linejoin="round" stroke-miterlimit="10" stroke-width="1"/>
          </g>
          <g id="g3143" transform="translate(0.845 49.436)">
            <path id="path3145" d="M-158.228-80.13h41.4v-7.4h-7.977a2.668,2.668,0,0,1-2.283,1.284h-35.488a2.668,2.668,0,0,1-2.283-1.284h-7.977v7.4h11.227" transform="translate(172.836 87.528)" fill="none" stroke="#000" stroke-linecap="round" stroke-linejoin="round" stroke-miterlimit="10" stroke-width="1"/>
          </g>
        </g>
      </g>
    </g>
  </g>
</svg>
