<svg xmlns="http://www.w3.org/2000/svg" xmlns:xlink="http://www.w3.org/1999/xlink" width="98" height="98" viewBox="0 0 98 98">
  <defs>
    <filter id="Trazado_982547" x="0" y="0" width="98" height="98" filterUnits="userSpaceOnUse">
      <feOffset dy="3" input="SourceAlpha"/>
      <feGaussianBlur stdDeviation="3" result="blur"/>
      <feFlood flood-opacity="0.161"/>
      <feComposite operator="in" in2="blur"/>
      <feComposite in="SourceGraphic"/>
    </filter>
  </defs>
  <g id="Grupo_1206882" data-name="Grupo 1206882" transform="translate(-505.561 -1950)">
    <g id="Grupo_1204570" data-name="Grupo 1204570" transform="translate(233.561 -1890.336)">
      <g id="Grupo_1203962" data-name="Grupo 1203962" transform="translate(281 3846.336)">
        <g id="Grupo_1203498" data-name="Grupo 1203498" transform="translate(0)">
          <g id="Grupo_1202589" data-name="Grupo 1202589">
            <g id="Grupo_1172010" data-name="Grupo 1172010">
              <g id="Grupo_1171046" data-name="Grupo 1171046">
                <g id="Grupo_1148525" data-name="Grupo 1148525">
                  <g transform="matrix(1, 0, 0, 1, -9, -6)" filter="url(#Trazado_982547)">
                    <g id="Trazado_982547-2" data-name="Trazado 982547" transform="translate(9 6)" fill="#fdfbec">
                      <path d="M 39.99999237060547 78.49998474121094 C 34.8018684387207 78.49998474121094 29.76002502441406 77.48226165771484 25.0145263671875 75.47508239746094 C 20.43014717102051 73.53604888916016 16.31264877319336 70.75984954833984 12.77639198303223 67.22359466552734 C 9.240137100219727 63.68733596801758 6.463936805725098 59.5698356628418 4.524903297424316 54.98546981811523 C 2.517725706100464 50.23995971679688 1.500003457069397 45.19811630249023 1.500003457069397 39.99999237060547 C 1.500003457069397 34.8018684387207 2.517725706100464 29.76002502441406 4.524903297424316 25.0145263671875 C 6.463936805725098 20.43014717102051 9.240137100219727 16.31264877319336 12.77639198303223 12.77639198303223 C 16.31264877319336 9.240137100219727 20.43014717102051 6.463936805725098 25.0145263671875 4.524903297424316 C 29.76002502441406 2.517725706100464 34.8018684387207 1.500003457069397 39.99999237060547 1.500003457069397 C 45.19811630249023 1.500003457069397 50.23995971679688 2.517725706100464 54.98546981811523 4.524903297424316 C 59.5698356628418 6.463936805725098 63.68733596801758 9.240137100219727 67.22359466552734 12.77639198303223 C 70.75984954833984 16.31264877319336 73.53604888916016 20.43014717102051 75.47508239746094 25.0145263671875 C 77.48226165771484 29.76002502441406 78.49998474121094 34.8018684387207 78.49998474121094 39.99999237060547 C 78.49998474121094 45.19812393188477 77.48226165771484 50.23995971679688 75.47508239746094 54.98546981811523 C 73.53604888916016 59.5698356628418 70.75984954833984 63.68733596801758 67.22359466552734 67.22359466552734 C 63.68733596801758 70.75984954833984 59.5698356628418 73.53604888916016 54.98546981811523 75.47508239746094 C 50.23995971679688 77.48226165771484 45.19812393188477 78.49998474121094 39.99999237060547 78.49998474121094 Z" stroke="none"/>
                      <path d="M 39.99999237060547 2.999992370605469 C 35.00370025634766 2.999992370605469 30.1584587097168 3.97784423828125 25.59884643554688 5.906402587890625 C 21.19327163696289 7.769805908203125 17.23603057861328 10.43805694580078 13.83704376220703 13.83704376220703 C 10.43805694580078 17.23603057861328 7.769805908203125 21.19327163696289 5.906402587890625 25.59884643554688 C 3.97784423828125 30.1584587097168 2.999992370605469 35.00370025634766 2.999992370605469 39.99999237060547 C 2.999992370605469 44.99628448486328 3.97784423828125 49.84152603149414 5.906402587890625 54.40113830566406 C 7.769805908203125 58.80671310424805 10.43805694580078 62.76395416259766 13.83704376220703 66.16294097900391 C 17.23603057861328 69.56191253662109 21.19327163696289 72.23016357421875 25.59884643554688 74.09356689453125 C 30.1584587097168 76.02212524414062 35.00370025634766 76.99997711181641 39.99999237060547 76.99997711181641 C 44.99628448486328 76.99997711181641 49.84152603149414 76.02212524414062 54.40113830566406 74.09356689453125 C 58.80671310424805 72.23016357421875 62.76395416259766 69.56191253662109 66.16294097900391 66.16294097900391 C 69.56191253662109 62.76395416259766 72.23016357421875 58.80671310424805 74.09356689453125 54.40113830566406 C 76.02212524414062 49.84152603149414 76.99997711181641 44.99628448486328 76.99997711181641 39.99999237060547 C 76.99997711181641 35.00370025634766 76.02212524414062 30.1584587097168 74.09356689453125 25.59884643554688 C 72.23016357421875 21.19327163696289 69.56191253662109 17.23603057861328 66.16294097900391 13.83704376220703 C 62.76395416259766 10.43805694580078 58.80671310424805 7.769805908203125 54.40113830566406 5.906402587890625 C 49.84152603149414 3.97784423828125 44.99628448486328 2.999992370605469 39.99999237060547 2.999992370605469 M 39.99999237060547 -7.62939453125e-06 C 62.09137725830078 -7.62939453125e-06 79.99997711181641 17.90860748291016 79.99997711181641 39.99999237060547 C 79.99997711181641 62.09137725830078 62.09137725830078 79.99997711181641 39.99999237060547 79.99997711181641 C 17.90860748291016 79.99997711181641 -7.62939453125e-06 62.09137725830078 -7.62939453125e-06 39.99999237060547 C -7.62939453125e-06 17.90860748291016 17.90860748291016 -7.62939453125e-06 39.99999237060547 -7.62939453125e-06 Z" stroke="none" fill="#83793c"/>
                    </g>
                  </g>
                </g>
              </g>
            </g>
          </g>
        </g>
      </g>
    </g>
    <g id="soft-skills_16754582" transform="translate(517.293 1962.142)">
      <g id="Grupo_1206892" data-name="Grupo 1206892" transform="translate(22.183 19.726)">
        <g id="Grupo_1206890" data-name="Grupo 1206890">
          <path id="Trazado_1050081" data-name="Trazado 1050081" d="M118.47,164.618H134.8q1.027-5.759,6.945-4.416,3.947.686,3.865-1.105c.014-1.85.33-2.523.807-2.881,1.057-.813-.119-1.861-1.33-2.518,1.017-.079,2.324-.9,2.043-1.554-.452-1.54-.239-2.16.457-2.521q2.029-.993.827-2.529a14.5,14.5,0,0,1-2.214-3.083,5.123,5.123,0,0,1-.574-3c.048-.5.074-1,.074-1.512a14.994,14.994,0,1,0-26.436,9.69,5.1,5.1,0,0,1,1.23,2.862c.384,3.492-.483,7.545-2.484,11.844a.506.506,0,0,0,.458.719Z" transform="translate(-115.714 -124.509)" fill="#f6dccd" fill-rule="evenodd"/>
          <path id="Trazado_1050082" data-name="Trazado 1050082" d="M118.47,164.618H121.5a.506.506,0,0,1-.458-.719c2-4.3,2.867-8.351,2.484-11.844a5.1,5.1,0,0,0-1.23-2.862,14.995,14.995,0,0,1,9.926-24.608,14.818,14.818,0,0,0-1.515-.077,14.995,14.995,0,0,0-11.443,24.685,5.1,5.1,0,0,1,1.23,2.862c.384,3.492-.483,7.545-2.484,11.844a.506.506,0,0,0,.458.719Zm22.841-4.507c.145.028.29.057.435.091a6.468,6.468,0,0,0,3.106.011l-.074-.011a7.458,7.458,0,0,0-3.467-.091Z" transform="translate(-115.714 -124.509)" fill="#f1cbbc" fill-rule="evenodd"/>
        </g>
        <g id="Grupo_1206891" data-name="Grupo 1206891" transform="translate(5.529 5.752)">
          <path id="Trazado_1050083" data-name="Trazado 1050083" d="M176.133,193.478c-3.267-1.921-9.283-6.329-9.363-10.726-.088-4.895,5.413-7.117,9.552-2.906,4.139-4.207,9.645-1.989,9.556,2.906-.08,4.4-6.1,8.8-9.363,10.726A.363.363,0,0,1,176.133,193.478Z" transform="translate(-166.768 -177.623)" fill="#fe646f" fill-rule="evenodd"/>
          <path id="Trazado_1050084" data-name="Trazado 1050084" d="M254.755,177.668a4.775,4.775,0,0,1,5.341,5.1c-.08,4.4-6.1,8.8-9.363,10.726a.363.363,0,0,1-.382,0q-.17-.1-.351-.209c3.328-2.018,8.935-6.273,9.013-10.516A4.771,4.771,0,0,0,254.755,177.668Z" transform="translate(-240.986 -177.638)" fill="#fd4755" fill-rule="evenodd"/>
        </g>
      </g>
      <path id="Trazado_1050085" data-name="Trazado 1050085" d="M23.36,59.467C25.521,55.072,26.5,50.93,26.1,47.382h0a4.256,4.256,0,0,0-1.033-2.4v0A15.862,15.862,0,1,1,53.036,34.731a15.543,15.543,0,0,1-.079,1.6,4.261,4.261,0,0,0,.483,2.506l0,0a13.464,13.464,0,0,0,2.08,2.893q.023.025.045.053a2.316,2.316,0,0,1,.538,2.207,2.986,2.986,0,0,1-1.653,1.633c-.181.1-.234.26-.217.537a4.548,4.548,0,0,0,.184.927,1.439,1.439,0,0,1-.248,1.411,2.864,2.864,0,0,1-.78.677,3.229,3.229,0,0,1,.392.451,1.883,1.883,0,0,1,.378,1.247,1.747,1.747,0,0,1-.742,1.257l-.015.012a1.044,1.044,0,0,0-.326.66,7.512,7.512,0,0,0-.134,1.508A1.9,1.9,0,0,1,52.55,55.6a2.184,2.184,0,0,1-1.156.727,7.953,7.953,0,0,1-3.327-.047l-.043-.009a5.261,5.261,0,0,0-4.038.32A4.77,4.77,0,0,0,42.124,60a.866.866,0,0,1-.853.714H24.137a.866.866,0,0,1-.777-1.249Zm29.056-8.755a.677.677,0,0,0-.04-.072,1.9,1.9,0,0,0-.353-.37,5.351,5.351,0,0,0-.877-.581.866.866,0,0,1,.345-1.625,2.313,2.313,0,0,0,1.042-.38,1.677,1.677,0,0,0,.2-.174,3.69,3.69,0,0,1-.067-2.39,2.014,2.014,0,0,1,.995-1.036l.015-.008c.4-.2.7-.368.778-.621.059-.181-.065-.356-.234-.572A15.152,15.152,0,0,1,51.9,39.641a5.922,5.922,0,0,1-.671-3.482v0a13.823,13.823,0,0,0,.07-1.425,14.127,14.127,0,1,0-24.911,9.133,5.918,5.918,0,0,1,1.435,3.33A23.21,23.21,0,0,1,25.5,58.983H40.569a6.034,6.034,0,0,1,2.487-3.848,6.9,6.9,0,0,1,5.328-.553,7.925,7.925,0,0,0,2.233.144c.351-.046.608-.086.6-.356q0-.025,0-.049c.021-2.311.555-3.116,1.154-3.563.017-.014.035-.031.05-.046ZM36.635,42.089A30.266,30.266,0,0,1,29.446,36.3a9.373,9.373,0,0,1-2.6-5.67h0a5.659,5.659,0,0,1,3.778-5.7,6.8,6.8,0,0,1,6.641,1.6,6.806,6.806,0,0,1,6.642-1.6,5.656,5.656,0,0,1,3.78,5.7h0a9.373,9.373,0,0,1-2.6,5.67A30.266,30.266,0,0,1,37.9,42.088a1.21,1.21,0,0,1-1.266,0Zm.633-1.64a28.089,28.089,0,0,0,6.507-5.274A7.649,7.649,0,0,0,45.956,30.6a3.973,3.973,0,0,0-2.606-4.03c-1.623-.552-3.683-.065-5.467,1.748a.866.866,0,0,1-1.235,0c-1.784-1.815-3.842-2.3-5.464-1.749a3.975,3.975,0,0,0-2.6,4.032,7.649,7.649,0,0,0,2.181,4.573A28.089,28.089,0,0,0,37.268,40.449ZM36.4,12.538V7.866a.866.866,0,1,1,1.733,0v4.672l.641-.566a.866.866,0,1,1,1.147,1.3l-2.081,1.837a.867.867,0,0,1-1.147,0l-2.081-1.837a.866.866,0,1,1,1.147-1.3Zm-8.836,2.368.272-.811a.866.866,0,0,1,1.643.552L28.6,17.278a.866.866,0,0,1-.993.573l-2.72-.55a.866.866,0,1,1,.343-1.7l.838.169-2.336-4.046a.866.866,0,1,1,1.5-.866ZM19.6,22.241l-.17-.838a.866.866,0,0,1,1.7-.343l.55,2.72a.866.866,0,0,1-.573.993l-2.631.884a.866.866,0,1,1-.552-1.643l.811-.272-4.046-2.336a.866.866,0,1,1,.866-1.5ZM16.362,32.577l-.566-.641a.866.866,0,1,1,1.3-1.147l1.837,2.081a.866.866,0,0,1,0,1.147L17.1,36.1a.866.866,0,1,1-1.3-1.147l.566-.641H11.69a.866.866,0,0,1,0-1.733ZM46.97,14.906l2.336-4.046a.866.866,0,1,1,1.5.866L48.47,15.772l.838-.169a.866.866,0,1,1,.343,1.7l-2.72.55a.866.866,0,0,1-.993-.573l-.884-2.631A.866.866,0,1,1,46.7,14.1Zm7.969,7.335L58.985,19.9a.866.866,0,1,1,.866,1.5l-4.046,2.336.811.272a.866.866,0,1,1-.552,1.643l-2.631-.884a.866.866,0,0,1-.573-.993l.55-2.72a.866.866,0,0,1,1.7.343Zm3.234,10.337h4.672a.866.866,0,1,1,0,1.733H58.173l.566.641a.866.866,0,1,1-1.3,1.147L55.6,34.017a.866.866,0,0,1,0-1.147l1.837-2.081a.866.866,0,1,1,1.3,1.147Z" transform="translate(0)" fill-rule="evenodd"/>
    </g>
  </g>
</svg>
