<svg xmlns="http://www.w3.org/2000/svg" xmlns:xlink="http://www.w3.org/1999/xlink" width="98" height="98" viewBox="0 0 98 98">
  <defs>
    <filter id="Trazado_982547" x="0" y="0" width="98" height="98" filterUnits="userSpaceOnUse">
      <feOffset dy="3" input="SourceAlpha"/>
      <feGaussianBlur stdDeviation="3" result="blur"/>
      <feFlood flood-opacity="0.161"/>
      <feComposite operator="in" in2="blur"/>
      <feComposite in="SourceGraphic"/>
    </filter>
  </defs>
  <g id="Grupo_1206881" data-name="Grupo 1206881" transform="translate(-820.561 -1950)">
    <g id="Grupo_1204571" data-name="Grupo 1204571" transform="translate(548.561 -1890.336)">
      <g id="Grupo_1203962" data-name="Grupo 1203962" transform="translate(281 3846.336)">
        <g id="Grupo_1203498" data-name="Grupo 1203498" transform="translate(0)">
          <g id="Grupo_1202589" data-name="Grupo 1202589">
            <g id="Grupo_1172010" data-name="Grupo 1172010">
              <g id="Grupo_1171046" data-name="Grupo 1171046">
                <g id="Grupo_1148525" data-name="Grupo 1148525">
                  <g transform="matrix(1, 0, 0, 1, -9, -6)" filter="url(#Trazado_982547)">
                    <g id="Trazado_982547-2" data-name="Trazado 982547" transform="translate(9 6)" fill="#fdfbec">
                      <path d="M 39.99999237060547 78.49998474121094 C 34.8018684387207 78.49998474121094 29.76002502441406 77.48226165771484 25.0145263671875 75.47508239746094 C 20.43014717102051 73.53604888916016 16.31264877319336 70.75984954833984 12.77639198303223 67.22359466552734 C 9.240137100219727 63.68733596801758 6.463936805725098 59.5698356628418 4.524903297424316 54.98546981811523 C 2.517725706100464 50.23995971679688 1.500003457069397 45.19811630249023 1.500003457069397 39.99999237060547 C 1.500003457069397 34.8018684387207 2.517725706100464 29.76002502441406 4.524903297424316 25.0145263671875 C 6.463936805725098 20.43014717102051 9.240137100219727 16.31264877319336 12.77639198303223 12.77639198303223 C 16.31264877319336 9.240137100219727 20.43014717102051 6.463936805725098 25.0145263671875 4.524903297424316 C 29.76002502441406 2.517725706100464 34.8018684387207 1.500003457069397 39.99999237060547 1.500003457069397 C 45.19811630249023 1.500003457069397 50.23995971679688 2.517725706100464 54.98546981811523 4.524903297424316 C 59.5698356628418 6.463936805725098 63.68733596801758 9.240137100219727 67.22359466552734 12.77639198303223 C 70.75984954833984 16.31264877319336 73.53604888916016 20.43014717102051 75.47508239746094 25.0145263671875 C 77.48226165771484 29.76002502441406 78.49998474121094 34.8018684387207 78.49998474121094 39.99999237060547 C 78.49998474121094 45.19812393188477 77.48226165771484 50.23995971679688 75.47508239746094 54.98546981811523 C 73.53604888916016 59.5698356628418 70.75984954833984 63.68733596801758 67.22359466552734 67.22359466552734 C 63.68733596801758 70.75984954833984 59.5698356628418 73.53604888916016 54.98546981811523 75.47508239746094 C 50.23995971679688 77.48226165771484 45.19812393188477 78.49998474121094 39.99999237060547 78.49998474121094 Z" stroke="none"/>
                      <path d="M 39.99999237060547 2.999992370605469 C 35.00370025634766 2.999992370605469 30.1584587097168 3.97784423828125 25.59884643554688 5.906402587890625 C 21.19327163696289 7.769805908203125 17.23603057861328 10.43805694580078 13.83704376220703 13.83704376220703 C 10.43805694580078 17.23603057861328 7.769805908203125 21.19327163696289 5.906402587890625 25.59884643554688 C 3.97784423828125 30.1584587097168 2.999992370605469 35.00370025634766 2.999992370605469 39.99999237060547 C 2.999992370605469 44.99628448486328 3.97784423828125 49.84152603149414 5.906402587890625 54.40113830566406 C 7.769805908203125 58.80671310424805 10.43805694580078 62.76395416259766 13.83704376220703 66.16294097900391 C 17.23603057861328 69.56191253662109 21.19327163696289 72.23016357421875 25.59884643554688 74.09356689453125 C 30.1584587097168 76.02212524414062 35.00370025634766 76.99997711181641 39.99999237060547 76.99997711181641 C 44.99628448486328 76.99997711181641 49.84152603149414 76.02212524414062 54.40113830566406 74.09356689453125 C 58.80671310424805 72.23016357421875 62.76395416259766 69.56191253662109 66.16294097900391 66.16294097900391 C 69.56191253662109 62.76395416259766 72.23016357421875 58.80671310424805 74.09356689453125 54.40113830566406 C 76.02212524414062 49.84152603149414 76.99997711181641 44.99628448486328 76.99997711181641 39.99999237060547 C 76.99997711181641 35.00370025634766 76.02212524414062 30.1584587097168 74.09356689453125 25.59884643554688 C 72.23016357421875 21.19327163696289 69.56191253662109 17.23603057861328 66.16294097900391 13.83704376220703 C 62.76395416259766 10.43805694580078 58.80671310424805 7.769805908203125 54.40113830566406 5.906402587890625 C 49.84152603149414 3.97784423828125 44.99628448486328 2.999992370605469 39.99999237060547 2.999992370605469 M 39.99999237060547 -7.62939453125e-06 C 62.09137725830078 -7.62939453125e-06 79.99997711181641 17.90860748291016 79.99997711181641 39.99999237060547 C 79.99997711181641 62.09137725830078 62.09137725830078 79.99997711181641 39.99999237060547 79.99997711181641 C 17.90860748291016 79.99997711181641 -7.62939453125e-06 62.09137725830078 -7.62939453125e-06 39.99999237060547 C -7.62939453125e-06 17.90860748291016 17.90860748291016 -7.62939453125e-06 39.99999237060547 -7.62939453125e-06 Z" stroke="none" fill="#83793c"/>
                    </g>
                  </g>
                </g>
              </g>
            </g>
          </g>
        </g>
      </g>
    </g>
    <g id="vision_5156136" transform="translate(844.001 1970.441)">
      <g id="Grupo_1206888" data-name="Grupo 1206888" transform="translate(0.75 0.781)">
        <g id="Grupo_1206887" data-name="Grupo 1206887">
          <path id="Trazado_1050059" data-name="Trazado 1050059" d="M119.5,66.06c1.3.6,4.5,9.246,4.5,9.246,1.136,3.434.24,7.967-1.164,11.891a.3.3,0,0,0,.282.4l1.327.1h15.247a.3.3,0,0,0,.293-.239c.614-3.011,1.607-7.183,6.215-6.558a26.211,26.211,0,0,0,5.368.486c1.478-.242,2.95-.891,3.383-2.647a2.8,2.8,0,0,0-.432-2.323.677.677,0,0,1,.216-.837,3.008,3.008,0,0,1,.708-.347.789.789,0,0,0,.53-.8,1.412,1.412,0,0,0-.615-1.01.1.1,0,0,1-.016-.145,7.759,7.759,0,0,1,1.035-.971l.02-.016a.8.8,0,0,0-.035-1.252c-.646-.488-2.12-1.8-.227-2.378,1.227-.377,1.8-.974,1.8-1.888,0-.783-.5-1.233-1.15-1.735a9.966,9.966,0,0,1-2.806-3.1,1.238,1.238,0,0,1-.064-1.088c.36-.846,1.274-1.725,1.074-2.581a10.5,10.5,0,0,1-1-3.2c-.461-7.063-5.693-11.317-12.2-12.616a17.632,17.632,0,0,0-2.2-.29l-.545-.039-1.126.417L130.184,41.5Z" transform="translate(-108.319 -38.137)" fill="#e3a76f"/>
          <path id="Trazado_1050060" data-name="Trazado 1050060" d="M144.169,55.064a18.852,18.852,0,0,0-5.122-12.933l-8.864-.631L119.5,66.06c.958.442,2.512,5.265,3.261,7.763h0c.266.887.431,1.482.431,1.482,1.136,3.434.808,8.064-.6,11.988a.3.3,0,0,0,.283.4h1.566a19.885,19.885,0,0,0,.615-12.941.6.6,0,0,1,.563-.769A18.961,18.961,0,0,0,144.169,55.064Z" transform="translate(-108.319 -38.137)" fill="#d6995c"/>
          <path id="Trazado_1050061" data-name="Trazado 1050061" d="M45.616,24.744A16.926,16.926,0,0,0,16.41,13.094s-.539.7-.834,1.068a16.559,16.559,0,0,0-3.34,10.582c0,9.348,7.1,16.274,16.45,16.274,5.069,0,9.505-1.64,12.607-5.17.217-.247.6-.627.853-.891.157-.164.259-.291.259-.291a16.851,16.851,0,0,0,3.211-9.922Z" transform="translate(-11.763 -7.818)" fill="#f9f8f9"/>
          <path id="Trazado_1050062" data-name="Trazado 1050062" d="M38.156,81.773A16.927,16.927,0,1,1,12.2,60.17a16.927,16.927,0,0,0,25.96,21.6Z" transform="translate(-7.501 -54.943)" fill="#e8e8e8"/>
        </g>
        <path id="Trazado_1050063" data-name="Trazado 1050063" d="M91.659,127.791a.4.4,0,0,0,0-.6c-1.3-1.147-6.26-5.191-11.3-5.191-5.09.478-9.279,4.044-10.583,5.191a.4.4,0,0,0,0,.6c1.3,1.147,5.6,4.743,10.583,5.191C85.4,132.982,90.355,128.938,91.659,127.791Z" transform="translate(-63.437 -110.6)" fill="#e8e8e8"/>
        <path id="Trazado_1050064" data-name="Trazado 1050064" d="M64.589,127.907c1.09,1.011,4.736,4.16,8.85,5.164-4.88-.229-9.581-4.067-10.846-5.181a.4.4,0,0,1,0-.6c1.265-1.113,5.966-4.952,10.846-5.181-4.113,1-7.759,4.152-8.85,5.164A.436.436,0,0,0,64.589,127.907Z" transform="translate(-56.969 -110.699)" fill="#dcdbdd"/>
        <path id="Trazado_1050065" data-name="Trazado 1050065" d="M135.531,127.491a5.492,5.492,0,0,0-8.681-4.47l-.547.521a5.207,5.207,0,0,0-1.472,3.949,5.045,5.045,0,0,0,5.209,5.238,5.242,5.242,0,0,0,4.114-1.679c.117-.135.364-.379.364-.379A5.466,5.466,0,0,0,135.531,127.491Z" transform="translate(-113.117 -110.6)" fill="#91dafa"/>
        <path id="Trazado_1050066" data-name="Trazado 1050066" d="M131.969,139.81a5.491,5.491,0,1,1-7.656-7.658,5.492,5.492,0,0,0,7.656,7.658Z" transform="translate(-110.57 -119.739)" fill="#75cff9"/>
        <path id="Trazado_1050067" data-name="Trazado 1050067" d="M158.659,154.5a2.5,2.5,0,0,0-3.579-2.249s-.164.109-.248.163a2.329,2.329,0,0,0-.98,2.087,2.156,2.156,0,0,0,2.311,2.264,2.208,2.208,0,0,0,2.215-1.294,1.223,1.223,0,0,1,.165-.219A2.5,2.5,0,0,0,158.659,154.5Z" transform="translate(-139.241 -137.605)" fill="#857e87"/>
        <path id="Trazado_1050068" data-name="Trazado 1050068" d="M156.877,157.472a2.5,2.5,0,1,1-3.464-3,2.523,2.523,0,0,0-.115.752,2.5,2.5,0,0,0,3.579,2.25Z" transform="translate(-137.574 -139.829)" fill="#766e7a"/>
      </g>
      <g id="Grupo_1206889" data-name="Grupo 1206889" transform="translate(0.001)">
        <path id="Trazado_1050069" data-name="Trazado 1050069" d="M334.1,67.984c.57-.192,2.3-.776,2.309-2.6a2.937,2.937,0,0,0-1.439-2.335,9.549,9.549,0,0,1-2.343-2.442,1.319,1.319,0,0,1-.008-1.4l.131-.211a3.078,3.078,0,0,0,.7-2.318,4.65,4.65,0,0,0-.357-.915,5.49,5.49,0,0,1-.622-2.17,13.483,13.483,0,0,0-4.565-9.46A18.11,18.11,0,0,0,318.2,40a.749.749,0,0,0-.195,1.485c5.937.778,12.462,4.392,12.969,12.2a6.952,6.952,0,0,0,.762,2.711,3.671,3.671,0,0,1,.253.616c.064.275-.239.757-.507,1.183-.047.074-.094.149-.139.223a2.824,2.824,0,0,0,.024,2.991,10.942,10.942,0,0,0,2.686,2.816c.674.522.859.768.858,1.148,0,.282,0,.753-1.289,1.186a1.768,1.768,0,0,0-1.328,1.377,2.714,2.714,0,0,0,1.14,2.314.2.2,0,0,1,.084.129.432.432,0,0,1-.113.286,1.4,1.4,0,0,1-.72.519.728.728,0,0,0-.618.593.756.756,0,0,0,.381.795c.14.08.468.282.488.441a.2.2,0,0,1-.113.176,3.755,3.755,0,0,0-.788.4,1.391,1.391,0,0,0-.442,1.819,2.212,2.212,0,0,1,.359,1.788c-.285,1.165-1.167,1.831-2.772,2.1a19.724,19.724,0,0,1-4.12-.349c-.336-.047-.676-.1-1.018-.142a5.106,5.106,0,0,0-5.4,2.371,15.085,15.085,0,0,0-1.688,5.044.749.749,0,1,0,1.468.3c.747-3.709,1.671-6.738,5.42-6.227.339.046.678.094,1.011.141a18.933,18.933,0,0,0,4.572.344c2.21-.363,3.55-1.446,3.984-3.216a3.47,3.47,0,0,0-.45-2.776,4.491,4.491,0,0,1,.473-.22,1.685,1.685,0,0,0,.995-1.726,1.66,1.66,0,0,0-.294-.768,3.119,3.119,0,0,0,.466-.491,1.851,1.851,0,0,0,.408-1.4,1.687,1.687,0,0,0-.663-1.121,1.39,1.39,0,0,1-.567-.88C333.783,68.147,333.877,68.061,334.1,67.984Z" transform="translate(-285.297 -36.004)"/>
        <path id="Trazado_1050070" data-name="Trazado 1050070" d="M143.257,372.531a.749.749,0,0,0-.477.945c1.071,3.254.784,7.937-.732,11.93a.749.749,0,1,0,1.4.531c1.655-4.361,1.944-9.315.754-12.93A.749.749,0,0,0,143.257,372.531Z" transform="translate(-127.823 -335.305)"/>
        <path id="Trazado_1050071" data-name="Trazado 1050071" d="M267.408,103.041a17.5,17.5,0,0,0-1.8-7.784.749.749,0,0,0-1.344.661,16.188,16.188,0,0,1-6.1,20.932.749.749,0,1,0,.781,1.277,17.661,17.661,0,0,0,8.465-15.086Z" transform="translate(-232.066 -85.37)"/>
        <path id="Trazado_1050072" data-name="Trazado 1050072" d="M23.086,32.917A16.176,16.176,0,1,1,30.415,7.709a.749.749,0,1,0,1.179-.923,17.664,17.664,0,1,0-8.006,27.542.749.749,0,1,0-.5-1.411Z" transform="translate(-0.001 0)"/>
        <path id="Trazado_1050073" data-name="Trazado 1050073" d="M147.746,150.989a3.245,3.245,0,1,0-3.245-3.245A3.248,3.248,0,0,0,147.746,150.989Zm0-4.992A1.747,1.747,0,1,1,146,147.745,1.749,1.749,0,0,1,147.746,146Z" transform="translate(-130.074 -130.073)"/>
        <path id="Trazado_1050074" data-name="Trazado 1050074" d="M77.761,120.74a.749.749,0,0,0-.232-.542c-.244-.233-6.046-5.7-12.148-5.7s-11.9,5.465-12.148,5.7a.749.749,0,0,0,0,1.084c.244.233,6.046,5.7,12.148,5.7s11.9-5.465,12.148-5.7A.749.749,0,0,0,77.761,120.74Zm-17.587-3.434a6.159,6.159,0,0,0-.785,1.685.749.749,0,0,0,1.438.419A4.807,4.807,0,0,1,65.381,116a4.742,4.742,0,1,1,0,9.485,4.816,4.816,0,0,1-4.453-3.108.749.749,0,1,0-1.406.516,6.189,6.189,0,0,0,.648,1.281,25.029,25.029,0,0,1-5.287-3.431A25.027,25.027,0,0,1,60.174,117.306Zm10.413,6.867a6.222,6.222,0,0,0,0-6.867,25.03,25.03,0,0,1,5.291,3.434A25.026,25.026,0,0,1,70.587,124.173Z" transform="translate(-47.71 -103.069)"/>
        <path id="Trazado_1050075" data-name="Trazado 1050075" d="M231.538,80.814a.747.747,0,0,0,.574-.267l1.6-1.9a.749.749,0,0,0-1.147-.963l-1.6,1.9a.749.749,0,0,0,.573,1.23Z" transform="translate(-207.748 -69.686)"/>
        <path id="Trazado_1050076" data-name="Trazado 1050076" d="M94,242.809l-1.6,1.9a.749.749,0,0,0,1.147.963l1.6-1.9A.749.749,0,0,0,94,242.809Z" transform="translate(-83.025 -218.327)"/>
        <path id="Trazado_1050077" data-name="Trazado 1050077" d="M171,58.437V55.749a.749.749,0,0,0-1.5,0v2.689a.749.749,0,0,0,1.5,0Z" transform="translate(-152.579 -49.509)"/>
        <path id="Trazado_1050078" data-name="Trazado 1050078" d="M169.5,257.82v2.689a.749.749,0,0,0,1.5,0V257.82a.749.749,0,0,0-1.5,0Z" transform="translate(-152.579 -231.406)"/>
        <path id="Trazado_1050079" data-name="Trazado 1050079" d="M94.577,80.815a.749.749,0,0,0,.573-1.23l-1.6-1.9a.749.749,0,1,0-1.147.963l1.6,1.9A.747.747,0,0,0,94.577,80.815Z" transform="translate(-83.025 -69.687)"/>
        <path id="Trazado_1050080" data-name="Trazado 1050080" d="M233.708,244.71l-1.6-1.9a.749.749,0,1,0-1.147.963l1.6,1.9a.749.749,0,1,0,1.147-.962Z" transform="translate(-207.749 -218.326)"/>
      </g>
    </g>
  </g>
</svg>
