<svg xmlns="http://www.w3.org/2000/svg" xmlns:xlink="http://www.w3.org/1999/xlink" width="108" height="108" viewBox="0 0 108 108">
  <defs>
    <filter id="Trazado_904820" x="0" y="0" width="108" height="108" filterUnits="userSpaceOnUse">
      <feOffset dy="3" input="SourceAlpha"/>
      <feGaussianBlur stdDeviation="3" result="blur"/>
      <feFlood flood-opacity="0.161"/>
      <feComposite operator="in" in2="blur"/>
      <feComposite in="SourceGraphic"/>
    </filter>
  </defs>
  <g id="Grupo_1207078" data-name="Grupo 1207078" transform="translate(-201 -322.332)">
    <g id="Grupo_1206304" data-name="Grupo 1206304" transform="translate(210 328.332)">
      <g id="Grupo_1201662" data-name="Grupo 1201662" transform="translate(0 0)">
        <g id="Grupo_1173585" data-name="Grupo 1173585">
          <g id="Grupo_1173428" data-name="Grupo 1173428">
            <g id="Grupo_1171958" data-name="Grupo 1171958">
              <g id="Grupo_1167341" data-name="Grupo 1167341">
                <g id="Grupo_1166792" data-name="Grupo 1166792">
                  <g transform="matrix(1, 0, 0, 1, -9, -6)" filter="url(#Trazado_904820)">
                    <g id="Trazado_904820-2" data-name="Trazado 904820" transform="translate(9 6)" fill="#effbfe">
                      <path d="M 44.99999618530273 88.49999237060547 C 39.12687301635742 88.49999237060547 33.43022155761719 87.35006713867188 28.06829643249512 85.08216857910156 C 22.88852119445801 82.89130401611328 18.23629570007324 79.75457763671875 14.24084663391113 75.75914001464844 C 10.24540901184082 71.76369476318359 7.108683586120605 67.11146545410156 4.917821407318115 61.93169403076172 C 2.649921178817749 56.56976699829102 1.499996185302734 50.87311553955078 1.499996185302734 44.99999237060547 C 1.499996185302734 39.12686920166016 2.649921178817749 33.43021774291992 4.917821407318115 28.06829261779785 C 7.108683586120605 22.88851737976074 10.24540901184082 18.23630523681641 14.24084663391113 14.24085521697998 C 18.23629570007324 10.24540519714355 22.88852119445801 7.108692169189453 28.06829643249512 4.917829990386963 C 33.43022155761719 2.649929761886597 39.12687301635742 1.500004887580872 44.99999618530273 1.500004887580872 C 50.87311935424805 1.500004887580872 56.56977081298828 2.649929761886597 61.93169784545898 4.917829990386963 C 67.11147308349609 7.108692169189453 71.76369476318359 10.24540519714355 75.75914764404297 14.24085521697998 C 79.75458526611328 18.23630523681641 82.89131164550781 22.88851737976074 85.08216857910156 28.06829261779785 C 87.35007476806641 33.43021774291992 88.5 39.12686920166016 88.5 44.99999237060547 C 88.5 50.87311553955078 87.35007476806641 56.56976699829102 85.08216857910156 61.93169403076172 C 82.89131164550781 67.11146545410156 79.75458526611328 71.76369476318359 75.75914764404297 75.75914001464844 C 71.76369476318359 79.75457763671875 67.11147308349609 82.89130401611328 61.93169784545898 85.08216857910156 C 56.56977081298828 87.35006713867188 50.87311935424805 88.49999237060547 44.99999618530273 88.49999237060547 Z" stroke="none"/>
                      <path d="M 44.99999618530273 2.999992370605469 C 39.32870864868164 2.999992370605469 33.82865142822266 4.11004638671875 28.65262603759766 6.299331665039062 C 23.65165710449219 8.414566040039062 19.15968322753906 11.44333648681641 15.301513671875 15.30150604248047 C 11.44333648681641 19.15967559814453 8.414566040039062 23.65164947509766 6.299339294433594 28.65262222290039 C 4.110054016113281 33.82864761352539 2.999992370605469 39.32870483398438 2.999992370605469 44.99999237060547 C 2.999992370605469 50.67127990722656 4.110054016113281 56.17132186889648 6.299339294433594 61.34736633300781 C 8.414566040039062 66.34833526611328 11.44333648681641 70.84029388427734 15.301513671875 74.69846343994141 C 19.15968322753906 78.55663299560547 23.65165710449219 81.58540344238281 28.65262603759766 83.70063781738281 C 33.82865142822266 85.88992309570312 39.32870864868164 86.99997711181641 44.99999618530273 86.99997711181641 C 50.67128372192383 86.99997711181641 56.17134094238281 85.88992309570312 61.34736633300781 83.70063781738281 C 66.34834289550781 81.58540344238281 70.84030914306641 78.55663299560547 74.69847869873047 74.69846343994141 C 78.55665588378906 70.84029388427734 81.58542633056641 66.34833526611328 83.70065307617188 61.34736633300781 C 85.88993835449219 56.17132186889648 87 50.67127990722656 87 44.99999237060547 C 87 39.32870483398438 85.88993835449219 33.82864761352539 83.70065307617188 28.65262222290039 C 81.58542633056641 23.65164947509766 78.55665588378906 19.15967559814453 74.69847869873047 15.30150604248047 C 70.84030914306641 11.44333648681641 66.34834289550781 8.414566040039062 61.34736633300781 6.299331665039062 C 56.17134094238281 4.11004638671875 50.67128372192383 2.999992370605469 44.99999618530273 2.999992370605469 M 44.99999618530273 -7.62939453125e-06 C 69.85281372070312 -7.62939453125e-06 90 20.14717864990234 90 44.99999237060547 C 90 69.85279083251953 69.85281372070312 89.99997711181641 44.99999618530273 89.99997711181641 C 20.14717864990234 89.99997711181641 -7.62939453125e-06 69.85279083251953 -7.62939453125e-06 44.99999237060547 C -7.62939453125e-06 20.14717864990234 20.14717864990234 -7.62939453125e-06 44.99999618530273 -7.62939453125e-06 Z" stroke="none" fill="#497f88"/>
                    </g>
                  </g>
                </g>
              </g>
            </g>
          </g>
        </g>
      </g>
    </g>
    <g id="teacher_17052000" transform="translate(151.424 336.715)">
      <g id="Grupo_1207076" data-name="Grupo 1207076" transform="translate(82.22 5.627)">
        <path id="Trazado_1050390" data-name="Trazado 1050390" d="M139.119,365.96a9.267,9.267,0,0,0-6.044-6.966l-1.145-.4a27.731,27.731,0,0,0-3.044-.868v-4.767l-12.376-.092v4.908l-.143.033-6.714,1.6a9.267,9.267,0,0,0-6.878,6.929l-1.227,5.315h38.69l-1.118-5.694Z" transform="translate(-99.648 -309.674)" fill="#2a4d74"/>
        <path id="Trazado_1050391" data-name="Trazado 1050391" d="M233.378,394.088h0l-.679-2.649-3.45,2.65-8.926-2.6h0l5.919,13.879h7.867A32.375,32.375,0,0,0,233.378,394.088Z" transform="translate(-203.462 -343.386)" fill="#eef4fc"/>
        <path id="Trazado_1050392" data-name="Trazado 1050392" d="M220.323,352.835v4.912l8.926,2.6,3.45-2.65v-4.761Z" transform="translate(-203.462 -309.646)" fill="#eaa694"/>
        <path id="Trazado_1050393" data-name="Trazado 1050393" d="M220.323,352.867v4.057l11.762-3.769Z" transform="translate(-203.462 -309.674)" fill="#c17c6f"/>
        <path id="Trazado_1050394" data-name="Trazado 1050394" d="M127.244,111.749s5.3-8.995-1.592-9.13L94.713,101.5a7.6,7.6,0,0,0-.815-.03h0a6.654,6.654,0,0,0-4.547,5.338s-2.966,1.68-2.867,4.745,2.558,6.78,2.558,6.78v0l8,2.546a.556.556,0,0,0,.331.076h0l29.431-1.422a6.213,6.213,0,0,0,1.979-4.127,3.77,3.77,0,0,0-1.548-3.658Z" transform="translate(-86.482 -89.945)" fill="#cbcbcb"/>
        <path id="Trazado_1050395" data-name="Trazado 1050395" d="M379.138,233.892a4.456,4.456,0,0,1-2.735,1.286h0c-.845-3.821,1.009-8.678,1.009-8.678a4.466,4.466,0,0,1,1.728,7.392Z" transform="translate(-339.685 -199.226)" fill="#eaa694"/>
        <path id="Trazado_1050396" data-name="Trazado 1050396" d="M133.1,128.276c-6.294-1.716-14.464-1.716-19.905-1.716a15.346,15.346,0,0,1,.393,5.045,9.083,9.083,0,0,1-1.96,4.021,13.74,13.74,0,0,1-1.732,1.794c-.165.14-.262.214-.262.214s-.106,3.451-1.091,4.35-1.7-1.459-1.7-1.459a4.468,4.468,0,0,0-3.922-1.891l-.037,0a4.3,4.3,0,0,0-1.347.307,4.467,4.467,0,0,0,.869,8.55,10.314,10.314,0,0,0,7.9,6.877l9.311,1.73a9.894,9.894,0,0,0,4.816-.3l2.64-.843a10.317,10.317,0,0,0,6.823-7.129h0q.083-.3.147-.616c.014-.067.028-.135.04-.2a.045.045,0,0,1,0-.013c.011-.068.024-.136.035-.2s.02-.127.029-.191c.021-.147.04-.3.055-.446l.27-2.707a0,0,0,0,0,0,0l.428-4.3.194-1.944.252-2.517a8.01,8.01,0,0,0-2.246-6.413Z" transform="translate(-97.173 -111.876)" fill="#f9d0b4"/>
        <circle id="Elipse_12985" data-name="Elipse 12985" cx="5.403" cy="5.403" r="5.403" transform="translate(16.582 22.472)" fill="#ffeadc"/>
        <ellipse id="Elipse_12986" data-name="Elipse 12986" cx="4.081" cy="5.016" rx="4.081" ry="5.016" transform="translate(29.63 22.86)" fill="#ffeadc"/>
        <ellipse id="Elipse_12987" data-name="Elipse 12987" cx="0.659" cy="0.858" rx="0.659" ry="0.858" transform="translate(30.081 27.262) rotate(-18.308)" fill="#fff"/>
        <ellipse id="Elipse_12988" data-name="Elipse 12988" cx="0.659" cy="0.858" rx="0.659" ry="0.858" transform="translate(22.569 27.261) rotate(-18.308)" fill="#fff"/>
        <path id="Trazado_1050397" data-name="Trazado 1050397" d="M178.071,18.855a8.379,8.379,0,0,1-.966,3.82,10.656,10.656,0,0,1-3.245,3.725,11.982,11.982,0,0,1-7.06,2.241c-9.053,0-9.894-1.7-12.846-3.957-.3-.232-.631-.47-.991-.713a13.952,13.952,0,0,0-7.611-2.446l2.247-1.68-2.247-.5S154.049,10,163.477,10s14.593,4.011,14.593,8.855Z" transform="translate(-137.935 -10)" fill="#e5e5e5"/>
        <path id="Trazado_1050398" data-name="Trazado 1050398" d="M131.381,290.281a.63.63,0,0,0-.829-.325,4.493,4.493,0,0,1-2.571.3h0a10.266,10.266,0,0,0,.546,1.323c.078,0,.156.005.235.005a5.7,5.7,0,0,0,2.294-.478A.63.63,0,0,0,131.381,290.281Z" transform="translate(-122.753 -254.642)" fill="#eaa694"/>
        <path id="Trazado_1050399" data-name="Trazado 1050399" d="M261.6,292.751s1.018,1.783.3,2.769c-1.129,1.547-2.706-.244-2.706-.244A1.808,1.808,0,0,1,258,297c-1.224.407-2.037-1.222-2.037-1.222s-.813,1.629-2.037,1.222a1.808,1.808,0,0,1-1.185-1.725s-1.576,1.792-2.706.244c-.719-.986.3-2.769.3-2.769s4.222.429,5.629.429S261.6,292.751,261.6,292.751Z" transform="translate(-229.211 -257.131)" fill="#e5e5e5"/>
        <path id="Trazado_1050400" data-name="Trazado 1050400" d="M198.469,405.7l-5.919-13.879-2.407.573s-2.419,4.071-1.3,6.443l2.128.2-.863,1.137,4.959,5.528Z" transform="translate(-175.69 -343.724)" fill="#3a70bf"/>
        <path id="Trazado_1050401" data-name="Trazado 1050401" d="M295.305,394.089l-1.822,3.427-2.307-3.427,3.45-2.65Z" transform="translate(-265.39 -343.387)" fill="#d6e0ea"/>
        <path id="Trazado_1050402" data-name="Trazado 1050402" d="M221.617,394.861l5.529,2.992,2.1-3.427-8.926-2.6Z" transform="translate(-203.462 -343.725)" fill="#d6e0ea"/>
        <path id="Trazado_1050403" data-name="Trazado 1050403" d="M322.937,396.526a16.979,16.979,0,0,0-1.608-4.312,27.759,27.759,0,0,0-2.768-.776l.679,2.649h0a32.376,32.376,0,0,1,.731,11.278h1.362a29.7,29.7,0,0,0,1.6-7.407l-1.335-.544,1.335-.89Z" transform="translate(-289.325 -343.386)" fill="#3a70bf"/>
        <path id="Trazado_1050404" data-name="Trazado 1050404" d="M278.9,415.9l-.7,2.109H275.55l-1.064-2.109,2.1-3.427Z" transform="translate(-250.802 -361.771)" fill="#ff5455"/>
        <path id="Trazado_1050405" data-name="Trazado 1050405" d="M272.871,462.158l1.268-5.743h2.641a25.879,25.879,0,0,1,2.526,5.743h-6.435Z" transform="translate(-249.39 -400.178)" fill="#ff5455"/>
        <path id="Trazado_1050406" data-name="Trazado 1050406" d="M163.945,186.885a4.659,4.659,0,0,0-4.208-3.1,4.313,4.313,0,0,0-3.236,1.549h-4.065a6.07,6.07,0,0,0-6.619-1.522l-5.339,1.493-8.293,2.321a.63.63,0,0,0-.454.69l.037,0a4.471,4.471,0,0,1,1.754.247l5.224-1.461,4.4-1.232a6.032,6.032,0,1,0,10.188.727h2.332c-1.77,3.443.285,8.487,4.07,8.482a4.514,4.514,0,0,0,3.584-1.948,0,0,0,0,0,0,0,6.832,6.832,0,0,0,.622-6.242ZM148.011,194.2a4.774,4.774,0,1,1,4.774-4.773A4.779,4.779,0,0,1,148.011,194.2Zm11.726-.388c-1.9,0-3.451-1.968-3.451-4.385.191-5.82,6.711-5.819,6.9,0C163.188,191.849,161.639,193.817,159.737,193.817Z" transform="translate(-126.026 -161.555)" fill="#2a4d74"/>
      </g>
      <g id="Grupo_1207077" data-name="Grupo 1207077" transform="translate(81.606 4.996)">
        <path id="Trazado_1050407" data-name="Trazado 1050407" d="M121.87,239.888a.63.63,0,0,0-.167,1.249,3.419,3.419,0,0,1,1.6.608l-1.268.418a.631.631,0,0,0,.2,1.228c.02.057,1.858-.59,1.941-.606a2.654,2.654,0,0,1,.251.768.63.63,0,0,0,1.251-.145A4.212,4.212,0,0,0,121.87,239.888Z" transform="translate(-116.179 -210.293)"/>
        <path id="Trazado_1050408" data-name="Trazado 1050408" d="M259.4,223.751a1.779,1.779,0,0,0,1.507-1.961c-.082-2.6-2.933-2.6-3.015,0a1.779,1.779,0,0,0,1.508,1.961Zm.1-3.286a.778.778,0,0,1,.9.607c.326,1.089-.864,1.483-1.252.414A.778.778,0,0,1,259.506,220.465Z" transform="translate(-235.686 -192.774)"/>
        <path id="Trazado_1050409" data-name="Trazado 1050409" d="M123.788,27.265c.84-1.586,3.17-6.568.543-8.7a.63.63,0,0,0-.794.978c2,1.51-.54,6.687-1.1,7.568a.634.634,0,0,0,.232.868c1.726,1.1,1.564,4.324-.005,6.2a5.092,5.092,0,0,0-2.047-1.685l.4-3.989h0a8.648,8.648,0,0,0-1.953-6.389,10.136,10.136,0,0,0,3.921-7.631C122.981,9.76,118.274,5,107.758,5,102.724,5,97.932,7.6,94.8,9.782a38.152,38.152,0,0,0-5.629,4.76.63.63,0,0,0,.325,1.044l.908.2-1.072.8a7.232,7.232,0,0,0-4.825,5.52c-3.132,2.173-3.783,5.206-1.678,9.642a.63.63,0,1,0,1.145-.526c-1.981-4.234-1.178-6.445,1.422-8.189a.634.634,0,0,0,.316-.483,5.978,5.978,0,0,1,4.027-4.773,13.99,13.99,0,0,1,7.935,2.9,15.033,15.033,0,0,1,.367,4.344,6.55,6.55,0,0,1-.591,1.956l-6.012-1.992a.63.63,0,0,0-.4,1.2l5.779,1.915a11.929,11.929,0,0,1-1.108,1.431l-4.2-1.39a.63.63,0,0,0-.4,1.2l2.617.867-5.361,1.5a.63.63,0,0,0-.124.05,5.1,5.1,0,0,0-1.284,10.039,10.945,10.945,0,0,0,8.262,6.955l3.218.6v3.89l-1.774.423-.148.035a.626.626,0,0,0-.411.317c-.229.392-2.525,4.439-1.314,7.008a.63.63,0,0,0,.512.359l1,.093-.177.234a.63.63,0,0,0,.033.8l4.017,4.478H93.532l.671-4.11a.63.63,0,0,0-1.243-.2l-.7,4.313H84.9l1.049-4.544a8.587,8.587,0,0,1,6.411-6.458l1.564-.373a.63.63,0,0,0-.292-1.225l-1.564.373a9.84,9.84,0,0,0-7.346,7.4L83.5,67.465a.634.634,0,0,0,.614.772h20.88c5.283,0,12.563,0,17.81,0a.634.634,0,0,0,.618-.751L122.3,61.791a9.932,9.932,0,0,0-6.455-7.44c-.243-.073-1.211-.433-1.427-.493-.769-.258-1.551-.487-2.34-.677V51.534a.63.63,0,0,0-1.26,0v1.834l-2.95,2.266-8.032-2.341,9.57-3.067c.084-.025.168-.049.252-.076l2.64-.843a10.9,10.9,0,0,0,7.121-7.162,5.121,5.121,0,0,0,3.87-6.775c1.881-1.851,2.824-6.009.5-8.106Zm-11.329,6.444a.778.778,0,0,1,.357-1.021c.838-.24,1.355,1.321.539,1.628a.778.778,0,0,1-.9-.607Zm1.636.3c0-1.1-.692-1.993-1.552-1.958a4.719,4.719,0,0,1,.758-1.573.632.632,0,0,0,.09-.117c2.322-2.812,5.882-.5,5.858,3.1l-.116,1.166c-.723,3.523-4.5,4.516-6.21,1.289a1.92,1.92,0,0,0,1.171-1.91Zm5.664-5.636-.176,1.765a4.24,4.24,0,0,0-7.019-.736h-3.939a6.07,6.07,0,0,0-6.619-1.521L97.667,29.1a8.914,8.914,0,0,0,1.5-7.235,11.973,11.973,0,0,0,2.7,1.747,18.289,18.289,0,0,0,6.355,1.219,34.156,34.156,0,0,0,4.028.015,12.534,12.534,0,0,0,5.792-1.987,7.394,7.394,0,0,1,1.715,5.52Zm-15.558.352A4.773,4.773,0,1,1,99.427,33.5a4.779,4.779,0,0,1,4.774-4.773Zm3.557-22.472c6.257,0,13.669,1.99,13.963,8.225A9.226,9.226,0,0,1,117.047,22c3.38-4.938,2.622-10.638-1.2-12.581a.63.63,0,0,0-.546,1.135c4.861,2.813,2.06,9.994-.853,12.6a11.517,11.517,0,0,1-1.888.4c4.246-5.642,3.1-12.131-5.593-14.175a.63.63,0,1,0-.284,1.228c7.571,1.587,9.05,7.7,4.128,13.039-1.308,0-2.5-.047-3.486-.124,3.249-3.981.453-9.237-4.38-10.431a.63.63,0,0,0-.325,1.217c4.331,1.071,6.627,5.823,3.149,9.05a10.781,10.781,0,0,1-4.194-1.31c2.2-2.626-.394-5.545-3.551-6.994a.63.63,0,1,0-.524,1.146c2.029.928,3.484,2.386,3.621,3.626a1.771,1.771,0,0,1-.6,1.506,39.679,39.679,0,0,0-3.338-2.513,15.194,15.194,0,0,0-5.83-2.162l.9-.673a.63.63,0,0,0-.241-1.119l-1.124-.25c2.33-2.225,9.423-8.349,16.867-8.349ZM94.041,31.42c-.056,1.312-.339,3.383-.913,3.873a2.979,2.979,0,0,1-.647-1.2.631.631,0,0,0-.087-.179,5.1,5.1,0,0,0-1.733-1.547Zm18.982,23.318c.252.075.5.152.755.234a17.132,17.132,0,0,1,1.352,3.5l-.987.658a.63.63,0,0,0,.112,1.107l.9.368a29.7,29.7,0,0,1-1.377,6.369h-.2a28.449,28.449,0,0,0-.154-6.932,41.18,41.18,0,0,0-1.108-5.5c.234.063.467.127.7.2ZM100.177,54.7l6.856,2-1.359,2.215-4.811-2.6Zm11.75,3.837a30.441,30.441,0,0,1,.459,7.763,27.851,27.851,0,0,0-2.094-4.513l.6-1.787.973-1.829C111.884,58.3,111.906,58.42,111.927,58.541Zm-1.683-.009-1.39-2.065,2.224-1.708.381,1.489-1.215,2.284Zm-3.625,1.252,1.407-2.292,1.586,2.357-.462,1.384h-1.8Zm.85,2.709h1.773a26.421,26.421,0,0,1,2.042,4.483h-4.8Zm-5.812-4.318,3.768,2.039.874,1.732-1.035,4.688-3.607-8.46Zm-4.208,3.869L98,61.322a.63.63,0,0,0-.444-1.008l-1.738-.161c-.47-1.621.636-4.163,1.264-5.3l1.624-.387,5.336,12.514h-2.167l-4.424-4.932Zm23.618-.011.97,4.943h-3.5l-.7-4.313a.63.63,0,0,0-1.243.2l.671,4.11H115.11a30.476,30.476,0,0,0,1.345-6.735.63.63,0,0,0-.391-.625l-.234-.1.346-.231a.63.63,0,0,0,.273-.622,13.742,13.742,0,0,0-1.009-3.125,8.667,8.667,0,0,1,5.627,6.49Zm-9.149-13.926-.6.192c0-.011-.65.2-.672.208h0l-1.389.443a9.291,9.291,0,0,1-2.789.437c-1.18.072-6.038-1.006-7.277-1.192L95.458,47.5a9.685,9.685,0,0,1-7.07-5.564,5.065,5.065,0,0,0,1.878-.421.63.63,0,0,0-.5-1.154,3.838,3.838,0,1,1,1.547-5.8c.183.619.9,2.205,2.009,1.99,1.719-.371,1.874-3.72,1.973-4.857.215-.181.559-.485.956-.892l3.09-.864a6.032,6.032,0,1,0,10.188.726h2.206a6.514,6.514,0,0,0-.635,3.079l-.688,4.867a.63.63,0,0,0,.609.718l1.314.03a.126.126,0,0,1,.094.206l-1.107,1.347c-.933.074-1.837.134-2.347.134-1.359,0-5.523-.422-5.565-.426a.632.632,0,0,0-.611.314c-.125.219-1.193,2.174-.26,3.452a1.971,1.971,0,0,0,2.84.5,2.1,2.1,0,0,0,3.6.474,2.1,2.1,0,0,0,3.6-.474,1.971,1.971,0,0,0,2.84-.5c.933-1.278-.135-3.234-.26-3.452a.631.631,0,0,0-.611-.314c-.016,0-.632.064-1.463.141l.325-.4a1.386,1.386,0,0,0-1.039-2.265l-.606-.014.19-1.347a4.251,4.251,0,0,0,6.87,1.1,23.261,23.261,0,0,1-.5,3.63,9.648,9.648,0,0,1-6.392,6.641Zm-1.109-3.21c-.676.224-1.27-.9-1.274-.905a.633.633,0,0,0-1.127,0c-.006.011-.6,1.129-1.274.905a1.157,1.157,0,0,1-.754-1.108.631.631,0,0,0-1.1-.436,1.929,1.929,0,0,1-1.175.661c-.072,0-.291-.014-.551-.37-.285-.391-.071-1.184.162-1.727,1.125.11,4.09.389,5.256.389s4.131-.279,5.256-.389c.233.544.447,1.337.162,1.727-.26.356-.479.367-.55.37a1.938,1.938,0,0,1-1.173-.659.63.63,0,0,0-1.1.435A1.169,1.169,0,0,1,110.809,44.9Zm10.413-5.051a3.837,3.837,0,0,1-1.464.913c.1-.377.564-5.442.626-5.962a6.671,6.671,0,0,0,.117-.946,3.856,3.856,0,0,1,.722,6Z" transform="translate(-81.606 -4.996)"/>
      </g>
    </g>
  </g>
</svg>
