<svg xmlns="http://www.w3.org/2000/svg" xmlns:xlink="http://www.w3.org/1999/xlink" width="98" height="98" viewBox="0 0 98 98">
  <defs>
    <filter id="Trazado_982547" x="0" y="0" width="98" height="98" filterUnits="userSpaceOnUse">
      <feOffset dy="3" input="SourceAlpha"/>
      <feGaussianBlur stdDeviation="3" result="blur"/>
      <feFlood flood-opacity="0.161"/>
      <feComposite operator="in" in2="blur"/>
      <feComposite in="SourceGraphic"/>
    </filter>
  </defs>
  <g id="Grupo_1206880" data-name="Grupo 1206880" transform="translate(-1135.561 -1950)">
    <g id="Grupo_1204572" data-name="Grupo 1204572" transform="translate(863.561 -1890.336)">
      <g id="Grupo_1203962" data-name="Grupo 1203962" transform="translate(281 3846.336)">
        <g id="Grupo_1203498" data-name="Grupo 1203498" transform="translate(0)">
          <g id="Grupo_1202589" data-name="Grupo 1202589">
            <g id="Grupo_1172010" data-name="Grupo 1172010">
              <g id="Grupo_1171046" data-name="Grupo 1171046">
                <g id="Grupo_1148525" data-name="Grupo 1148525">
                  <g transform="matrix(1, 0, 0, 1, -9, -6)" filter="url(#Trazado_982547)">
                    <g id="Trazado_982547-2" data-name="Trazado 982547" transform="translate(9 6)" fill="#fdfbec">
                      <path d="M 39.99999237060547 78.49998474121094 C 34.8018684387207 78.49998474121094 29.76002502441406 77.48226165771484 25.0145263671875 75.47508239746094 C 20.43014717102051 73.53604888916016 16.31264877319336 70.75984954833984 12.77639198303223 67.22359466552734 C 9.240137100219727 63.68733596801758 6.463936805725098 59.5698356628418 4.524903297424316 54.98546981811523 C 2.517725706100464 50.23995971679688 1.500003457069397 45.19811630249023 1.500003457069397 39.99999237060547 C 1.500003457069397 34.8018684387207 2.517725706100464 29.76002502441406 4.524903297424316 25.0145263671875 C 6.463936805725098 20.43014717102051 9.240137100219727 16.31264877319336 12.77639198303223 12.77639198303223 C 16.31264877319336 9.240137100219727 20.43014717102051 6.463936805725098 25.0145263671875 4.524903297424316 C 29.76002502441406 2.517725706100464 34.8018684387207 1.500003457069397 39.99999237060547 1.500003457069397 C 45.19811630249023 1.500003457069397 50.23995971679688 2.517725706100464 54.98546981811523 4.524903297424316 C 59.5698356628418 6.463936805725098 63.68733596801758 9.240137100219727 67.22359466552734 12.77639198303223 C 70.75984954833984 16.31264877319336 73.53604888916016 20.43014717102051 75.47508239746094 25.0145263671875 C 77.48226165771484 29.76002502441406 78.49998474121094 34.8018684387207 78.49998474121094 39.99999237060547 C 78.49998474121094 45.19812393188477 77.48226165771484 50.23995971679688 75.47508239746094 54.98546981811523 C 73.53604888916016 59.5698356628418 70.75984954833984 63.68733596801758 67.22359466552734 67.22359466552734 C 63.68733596801758 70.75984954833984 59.5698356628418 73.53604888916016 54.98546981811523 75.47508239746094 C 50.23995971679688 77.48226165771484 45.19812393188477 78.49998474121094 39.99999237060547 78.49998474121094 Z" stroke="none"/>
                      <path d="M 39.99999237060547 2.999992370605469 C 35.00370025634766 2.999992370605469 30.1584587097168 3.97784423828125 25.59884643554688 5.906402587890625 C 21.19327163696289 7.769805908203125 17.23603057861328 10.43805694580078 13.83704376220703 13.83704376220703 C 10.43805694580078 17.23603057861328 7.769805908203125 21.19327163696289 5.906402587890625 25.59884643554688 C 3.97784423828125 30.1584587097168 2.999992370605469 35.00370025634766 2.999992370605469 39.99999237060547 C 2.999992370605469 44.99628448486328 3.97784423828125 49.84152603149414 5.906402587890625 54.40113830566406 C 7.769805908203125 58.80671310424805 10.43805694580078 62.76395416259766 13.83704376220703 66.16294097900391 C 17.23603057861328 69.56191253662109 21.19327163696289 72.23016357421875 25.59884643554688 74.09356689453125 C 30.1584587097168 76.02212524414062 35.00370025634766 76.99997711181641 39.99999237060547 76.99997711181641 C 44.99628448486328 76.99997711181641 49.84152603149414 76.02212524414062 54.40113830566406 74.09356689453125 C 58.80671310424805 72.23016357421875 62.76395416259766 69.56191253662109 66.16294097900391 66.16294097900391 C 69.56191253662109 62.76395416259766 72.23016357421875 58.80671310424805 74.09356689453125 54.40113830566406 C 76.02212524414062 49.84152603149414 76.99997711181641 44.99628448486328 76.99997711181641 39.99999237060547 C 76.99997711181641 35.00370025634766 76.02212524414062 30.1584587097168 74.09356689453125 25.59884643554688 C 72.23016357421875 21.19327163696289 69.56191253662109 17.23603057861328 66.16294097900391 13.83704376220703 C 62.76395416259766 10.43805694580078 58.80671310424805 7.769805908203125 54.40113830566406 5.906402587890625 C 49.84152603149414 3.97784423828125 44.99628448486328 2.999992370605469 39.99999237060547 2.999992370605469 M 39.99999237060547 -7.62939453125e-06 C 62.09137725830078 -7.62939453125e-06 79.99997711181641 17.90860748291016 79.99997711181641 39.99999237060547 C 79.99997711181641 62.09137725830078 62.09137725830078 79.99997711181641 39.99999237060547 79.99997711181641 C 17.90860748291016 79.99997711181641 -7.62939453125e-06 62.09137725830078 -7.62939453125e-06 39.99999237060547 C -7.62939453125e-06 17.90860748291016 17.90860748291016 -7.62939453125e-06 39.99999237060547 -7.62939453125e-06 Z" stroke="none" fill="#83793c"/>
                    </g>
                  </g>
                </g>
              </g>
            </g>
          </g>
        </g>
      </g>
    </g>
    <g id="_x32_4_brain" transform="translate(1145.497 1908.229)">
      <g id="Grupo_1206885" data-name="Grupo 1206885" transform="translate(9.298 64.689)">
        <path id="Trazado_1050021" data-name="Trazado 1050021" d="M285.039,93.06a7.007,7.007,0,0,1-7,7.01,5.946,5.946,0,0,1-.754-.044,6.91,6.91,0,0,1,.748,3.15,7,7,0,0,1-8.22,6.9A7,7,0,0,1,256,108.41V77.716a7,7,0,0,1,13.81-1.667A7.007,7.007,0,0,1,277.282,86.1a5.943,5.943,0,0,1,.754-.044A7.005,7.005,0,0,1,285.039,93.06Z" transform="translate(-226.234 -69.981)" fill="#fe9738"/>
        <path id="Trazado_1050022" data-name="Trazado 1050022" d="M15.315,93.066a7.007,7.007,0,0,1,7-7.009,5.944,5.944,0,0,1,.754.044,6.91,6.91,0,0,1-.748-3.15,7,7,0,0,1,8.22-6.9,7,7,0,0,1,13.81,1.66V108.41a7.005,7.005,0,0,1-13.81,1.667,7.007,7.007,0,0,1-7.472-10.052,5.945,5.945,0,0,1-.754.044A7.005,7.005,0,0,1,15.315,93.066Z" transform="translate(-14.589 -69.981)" fill="#eed534"/>
        <path id="Trazado_1050023" data-name="Trazado 1050023" d="M432.391,363.39a1.135,1.135,0,0,0,.139.012c-.017.046-.041.1-.064.145C432.443,363.495,432.42,363.442,432.391,363.39Z" transform="translate(-381.343 -327.351)" opacity="0.12"/>
        <path id="Trazado_1050024" data-name="Trazado 1050024" d="M277.368,85.951a6.971,6.971,0,0,0-7.544-3.9,7,7,0,0,0-13.805,1.667V77.727a7,7,0,0,1,13.805-1.667,6.987,6.987,0,0,1,8.224,6.9,6.81,6.81,0,0,1-.68,2.991Z" transform="translate(-226.25 -69.99)" opacity="0.12"/>
        <path id="Trazado_1050025" data-name="Trazado 1050025" d="M440.15,204.948a6.893,6.893,0,0,1-.674,3,7,7,0,0,0-6.331-4.007,6.505,6.505,0,0,0-.755.041,6.912,6.912,0,0,0,.749-3.148,7,7,0,0,0-.61-2.857,5.413,5.413,0,0,1,.616-.029A7.008,7.008,0,0,1,440.15,204.948Z" transform="translate(-381.343 -181.866)" opacity="0.12"/>
        <path id="Trazado_1050026" data-name="Trazado 1050026" d="M23.087,203.977a6.43,6.43,0,0,0-.755-.041,6.993,6.993,0,0,0-6.325,4.007,6.887,6.887,0,0,1-.674-2.991,7,7,0,0,1,7-7.01,5.491,5.491,0,0,1,.621.029,7.019,7.019,0,0,0,.134,6.005Z" transform="translate(-14.605 -181.865)" opacity="0.12"/>
        <path id="Trazado_1050027" data-name="Trazado 1050027" d="M78.623,363.39c-.023.052-.052.1-.07.151a1.487,1.487,0,0,1-.064-.139A1.066,1.066,0,0,0,78.623,363.39Z" transform="translate(-70.141 -327.351)" opacity="0.12"/>
        <path id="Trazado_1050028" data-name="Trazado 1050028" d="M95.464,77.728v5.994a7,7,0,0,0-13.811-1.661,6.97,6.97,0,0,0-7.544,3.9,6.794,6.794,0,0,1-.674-3,6.982,6.982,0,0,1,8.218-6.894,7,7,0,0,1,13.811,1.661Z" transform="translate(-65.697 -69.991)" opacity="0.12"/>
        <path id="Trazado_1050029" data-name="Trazado 1050029" d="M432.531,197.125a1.132,1.132,0,0,0-.139.012.924.924,0,0,0,.07-.157C432.485,197.026,432.508,197.073,432.531,197.125Z" transform="translate(-381.344 -181.019)" opacity="0.12"/>
        <path id="Trazado_1050030" data-name="Trazado 1050030" d="M78.623,197.18a1.041,1.041,0,0,0-.134-.012,1.52,1.52,0,0,1,.064-.139A1.2,1.2,0,0,0,78.623,197.18Z" transform="translate(-70.141 -181.062)" opacity="0.12"/>
        <path id="Trazado_1050031" data-name="Trazado 1050031" d="M61.445,80.046a7.778,7.778,0,0,0-1.885-7.853c-.006-.006-.014-.008-.02-.014a7.7,7.7,0,0,0-5.449-2.256c-.23,0-.462.011-.694.032a7.723,7.723,0,0,0-14.333-.782,7.723,7.723,0,0,0-14.335.788,7.808,7.808,0,0,0-6.158,2.232c-.008.008-.01.018-.017.026a7.729,7.729,0,0,0-1.872,7.827,7.733,7.733,0,0,0,0,15.45,7.74,7.74,0,0,0,8.048,10.091,7.723,7.723,0,0,0,14.334.782,7.722,7.722,0,0,0,14.334-.788A7.741,7.741,0,0,0,61.446,95.5a7.733,7.733,0,0,0,0-15.449ZM32.054,109.4a6.262,6.262,0,0,1-6.1-4.789.726.726,0,0,0-.832-.542A6.284,6.284,0,0,1,19.6,93.443a.726.726,0,0,0-1.027-1.027,7.762,7.762,0,0,0-1.239,1.627,6.278,6.278,0,1,1,.357-12.514.726.726,0,0,0,.739-1.05c-3.209-6.294,5.051-12.259,10.049-7.262A.726.726,0,0,0,29.5,72.191a7.674,7.674,0,0,0-3.327-1.957,6.276,6.276,0,0,1,12.16,2.19v30.693A6.291,6.291,0,0,1,32.054,109.4ZM60.438,94.013a.726.726,0,0,0-.739,1.05c3.2,6.287-5.05,12.261-10.049,7.262a.726.726,0,0,0-1.027,1.027,7.675,7.675,0,0,0,3.326,1.957,6.276,6.276,0,0,1-12.16-2.19V72.425A6.279,6.279,0,0,1,52.168,70.93a.721.721,0,0,0,.832.542A6.291,6.291,0,0,1,58.53,82.1a.726.726,0,0,0,1.027,1.027A7.7,7.7,0,0,0,60.791,81.5a6.278,6.278,0,1,1-.353,12.514Z" transform="translate(-9.298 -64.689)"/>
        <path id="Trazado_1050032" data-name="Trazado 1050032" d="M307.064,177.617a3.3,3.3,0,0,0-6.6,0,.726.726,0,0,0,1.452,0,1.847,1.847,0,0,1,3.694,0A.726.726,0,0,0,307.064,177.617Z" transform="translate(-265.336 -161.091)"/>
        <path id="Trazado_1050033" data-name="Trazado 1050033" d="M355.9,235.912a1.847,1.847,0,1,1-2.612,2.612.726.726,0,0,0-1.027,1.027,3.3,3.3,0,1,0,4.666-4.666A.726.726,0,0,0,355.9,235.912Z" transform="translate(-310.686 -214.154)"/>
        <path id="Trazado_1050034" data-name="Trazado 1050034" d="M295.871,300.417a1.838,1.838,0,0,1-1.84,1.845h-.005a1.871,1.871,0,0,1-1.861-1.863.726.726,0,0,0-1.452,0,3.326,3.326,0,0,0,3.31,3.311h.01a3.29,3.29,0,0,0,3.292-3.3A.726.726,0,0,0,295.871,300.417Z" transform="translate(-256.758 -271.325)"/>
        <path id="Trazado_1050035" data-name="Trazado 1050035" d="M161.995,305.092a1.847,1.847,0,0,1-3.694,0,.726.726,0,0,0-1.452,0,3.3,3.3,0,0,0,6.6,0A.726.726,0,0,0,161.995,305.092Z" transform="translate(-139.046 -275.453)"/>
        <path id="Trazado_1050036" data-name="Trazado 1050036" d="M117.079,229.788a3.3,3.3,0,1,0-4.666,4.666.726.726,0,0,0,1.027-1.027,1.847,1.847,0,0,1,2.612-2.612A.726.726,0,0,0,117.079,229.788Z" transform="translate(-99.124 -209.02)"/>
        <path id="Trazado_1050037" data-name="Trazado 1050037" d="M169.8,178.859h-.01a3.29,3.29,0,0,0-3.292,3.3.726.726,0,0,0,1.452,0,1.838,1.838,0,0,1,1.84-1.845h.005a1.87,1.87,0,0,1,1.861,1.863.726.726,0,0,0,1.452,0A3.325,3.325,0,0,0,169.8,178.859Z" transform="translate(-147.529 -165.084)"/>
      </g>
    </g>
  </g>
</svg>
