<svg xmlns="http://www.w3.org/2000/svg" xmlns:xlink="http://www.w3.org/1999/xlink" width="108" height="108" viewBox="0 0 108 108">
  <defs>
    <filter id="Trazado_904820" x="0" y="0" width="108" height="108" filterUnits="userSpaceOnUse">
      <feOffset dy="3" input="SourceAlpha"/>
      <feGaussianBlur stdDeviation="3" result="blur"/>
      <feFlood flood-opacity="0.161"/>
      <feComposite operator="in" in2="blur"/>
      <feComposite in="SourceGraphic"/>
    </filter>
  </defs>
  <g id="Grupo_1207079" data-name="Grupo 1207079" transform="translate(-201.523 -2878.837)">
    <g id="Grupo_1206779" data-name="Grupo 1206779" transform="translate(210.523 2884.837)">
      <g id="Grupo_1201662" data-name="Grupo 1201662" transform="translate(0 0)">
        <g id="Grupo_1173585" data-name="Grupo 1173585">
          <g id="Grupo_1173428" data-name="Grupo 1173428">
            <g id="Grupo_1171958" data-name="Grupo 1171958">
              <g id="Grupo_1167341" data-name="Grupo 1167341">
                <g id="Grupo_1166792" data-name="Grupo 1166792">
                  <g transform="matrix(1, 0, 0, 1, -9, -6)" filter="url(#Trazado_904820)">
                    <g id="Trazado_904820-2" data-name="Trazado 904820" transform="translate(9 6)" fill="#fdfbec">
                      <path d="M 44.99999618530273 88.49999237060547 C 39.12687301635742 88.49999237060547 33.43022155761719 87.35006713867188 28.06829643249512 85.08216857910156 C 22.88852119445801 82.89130401611328 18.23629570007324 79.75457763671875 14.24084663391113 75.75914001464844 C 10.24540901184082 71.76369476318359 7.108683586120605 67.11146545410156 4.917821407318115 61.93169403076172 C 2.649921178817749 56.56976699829102 1.499996185302734 50.87311553955078 1.499996185302734 44.99999237060547 C 1.499996185302734 39.12686920166016 2.649921178817749 33.43021774291992 4.917821407318115 28.06829261779785 C 7.108683586120605 22.88851737976074 10.24540901184082 18.23630523681641 14.24084663391113 14.24085521697998 C 18.23629570007324 10.24540519714355 22.88852119445801 7.108692169189453 28.06829643249512 4.917829990386963 C 33.43022155761719 2.649929761886597 39.12687301635742 1.500004887580872 44.99999618530273 1.500004887580872 C 50.87311935424805 1.500004887580872 56.56977081298828 2.649929761886597 61.93169784545898 4.917829990386963 C 67.11147308349609 7.108692169189453 71.76369476318359 10.24540519714355 75.75914764404297 14.24085521697998 C 79.75458526611328 18.23630523681641 82.89131164550781 22.88851737976074 85.08216857910156 28.06829261779785 C 87.35007476806641 33.43021774291992 88.5 39.12686920166016 88.5 44.99999237060547 C 88.5 50.87311553955078 87.35007476806641 56.56976699829102 85.08216857910156 61.93169403076172 C 82.89131164550781 67.11146545410156 79.75458526611328 71.76369476318359 75.75914764404297 75.75914001464844 C 71.76369476318359 79.75457763671875 67.11147308349609 82.89130401611328 61.93169784545898 85.08216857910156 C 56.56977081298828 87.35006713867188 50.87311935424805 88.49999237060547 44.99999618530273 88.49999237060547 Z" stroke="none"/>
                      <path d="M 44.99999618530273 2.999992370605469 C 39.32870864868164 2.999992370605469 33.82865142822266 4.11004638671875 28.65262603759766 6.299331665039062 C 23.65165710449219 8.414566040039062 19.15968322753906 11.44333648681641 15.301513671875 15.30150604248047 C 11.44333648681641 19.15967559814453 8.414566040039062 23.65164947509766 6.299339294433594 28.65262222290039 C 4.110054016113281 33.82864761352539 2.999992370605469 39.32870483398438 2.999992370605469 44.99999237060547 C 2.999992370605469 50.67127990722656 4.110054016113281 56.17132186889648 6.299339294433594 61.34736633300781 C 8.414566040039062 66.34833526611328 11.44333648681641 70.84029388427734 15.301513671875 74.69846343994141 C 19.15968322753906 78.55663299560547 23.65165710449219 81.58540344238281 28.65262603759766 83.70063781738281 C 33.82865142822266 85.88992309570312 39.32870864868164 86.99997711181641 44.99999618530273 86.99997711181641 C 50.67128372192383 86.99997711181641 56.17134094238281 85.88992309570312 61.34736633300781 83.70063781738281 C 66.34834289550781 81.58540344238281 70.84030914306641 78.55663299560547 74.69847869873047 74.69846343994141 C 78.55665588378906 70.84029388427734 81.58542633056641 66.34833526611328 83.70065307617188 61.34736633300781 C 85.88993835449219 56.17132186889648 87 50.67127990722656 87 44.99999237060547 C 87 39.32870483398438 85.88993835449219 33.82864761352539 83.70065307617188 28.65262222290039 C 81.58542633056641 23.65164947509766 78.55665588378906 19.15967559814453 74.69847869873047 15.30150604248047 C 70.84030914306641 11.44333648681641 66.34834289550781 8.414566040039062 61.34736633300781 6.299331665039062 C 56.17134094238281 4.11004638671875 50.67128372192383 2.999992370605469 44.99999618530273 2.999992370605469 M 44.99999618530273 -7.62939453125e-06 C 69.85281372070312 -7.62939453125e-06 90 20.14717864990234 90 44.99999237060547 C 90 69.85279083251953 69.85281372070312 89.99997711181641 44.99999618530273 89.99997711181641 C 20.14717864990234 89.99997711181641 -7.62939453125e-06 69.85279083251953 -7.62939453125e-06 44.99999237060547 C -7.62939453125e-06 20.14717864990234 20.14717864990234 -7.62939453125e-06 44.99999618530273 -7.62939453125e-06 Z" stroke="none" fill="#83793c"/>
                    </g>
                  </g>
                </g>
              </g>
            </g>
          </g>
        </g>
      </g>
    </g>
    <g id="child-game_5339203" transform="translate(225.745 2898.301)">
      <path id="Trazado_1050410" data-name="Trazado 1050410" d="M26.926,211.49a.924.924,0,0,0-.082-1.228c-.049-.049-.095-.1-.14-.151a2.525,2.525,0,0,1,1.816-4.162,1.117,1.117,0,0,0,1.075-.987,12.912,12.912,0,0,0-.01-2.93.92.92,0,0,0-.9-.813,2.525,2.525,0,0,1-1.835-4.227c.026-.027.051-.054.077-.08a.925.925,0,0,0,.082-1.22,13.016,13.016,0,0,0-2.25-2.272.924.924,0,0,0-1.228.082c-.049.049-.1.095-.151.14a2.525,2.525,0,0,1-4.163-1.945.923.923,0,0,0-.808-.926,12.941,12.941,0,0,0-3.2,0,.923.923,0,0,0-.808.926,2.525,2.525,0,0,1-4.163,1.948c-.053-.045-.1-.093-.151-.141a.924.924,0,0,0-1.228-.085A13.041,13.041,0,0,0,6.57,195.74a.924.924,0,0,0,.079,1.213c.03.03.062.063.091.1a2.525,2.525,0,0,1-1.821,4.209.92.92,0,0,0-.9.812,12.936,12.936,0,0,0,.01,3.023.92.92,0,0,0,.915.809A2.523,2.523,0,0,1,6.741,210.2l-.018.018a.923.923,0,0,0-.081,1.222,13.012,13.012,0,0,0,2.21,2.222.924.924,0,0,0,1.228-.082c.049-.049.1-.095.151-.14a2.525,2.525,0,0,1,4.163,1.945.923.923,0,0,0,.808.925,12.94,12.94,0,0,0,3.2,0,.923.923,0,0,0,.808-.926,2.525,2.525,0,0,1,4.165-1.941c.053.045.1.093.151.14a.924.924,0,0,0,1.228.082A13.022,13.022,0,0,0,26.926,211.49Zm-15.186-2.882a7.166,7.166,0,1,1,10.134,0,7.166,7.166,0,0,1-10.134,0Z" transform="translate(-3.491 -167.366)" fill="#78757a"/>
      <path id="Trazado_1050411" data-name="Trazado 1050411" d="M212.416,22.255a9.575,9.575,0,1,0-14.9-11.823s-2.272,9.238-7.652,14.531c-2.076,2.044,4.509,8.3,6.638,6.312,5.952-5.557,14.2-7.657,14.2-7.657A9.6,9.6,0,0,0,212.416,22.255Z" transform="translate(-168.06 -3.466)" fill="#ffe3b8"/>
      <path id="Trazado_1050412" data-name="Trazado 1050412" d="M124.79,113.125C118.717,108.71,108,98.2,103.557,91.892c-.864-1.225-1.228-2.641-.356-3.513a2.4,2.4,0,0,1,3.513.356,148.55,148.55,0,0,0,21.233,21.233,2.4,2.4,0,0,1,.356,3.513c-.871.871-2.3.522-3.513-.356Z" transform="translate(-91.097 -76.091)" fill="#6dd5ff"/>
      <path id="Trazado_1050413" data-name="Trazado 1050413" d="M135.634,204.816l-5.594-5.594,4.29-5.562,6.867,6.867Z" transform="translate(-115.349 -170.017)" fill="#6dd5ff"/>
      <rect id="Rectángulo_418193" data-name="Rectángulo 418193" width="15.103" height="15.103" rx="7.551" transform="translate(27.181 43.824)" fill="#ff758b"/>
      <rect id="Rectángulo_418194" data-name="Rectángulo 418194" width="15.103" height="15.103" rx="7.551" transform="translate(42.283 43.824)" fill="#6dd5ff"/>
      <rect id="Rectángulo_418195" data-name="Rectángulo 418195" width="15.103" height="15.103" rx="7.551" transform="translate(42.283 28.624)" fill="#ffc550"/>
      <path id="Trazado_1050414" data-name="Trazado 1050414" d="M278.051,401.556a.445.445,0,0,1-.417-.29l-2.936-7.894-2.937,7.894a.445.445,0,0,1-.833-.311l3.352-9.015a.445.445,0,0,1,.833,0l3.354,9.012a.445.445,0,0,1-.417.6Z" transform="translate(-240.304 -345.646)"/>
      <path id="Trazado_1050415" data-name="Trazado 1050415" d="M285.755,445.52H281.3a.445.445,0,0,1,0-.89h4.45a.445.445,0,0,1,0,.89Z" transform="translate(-249.135 -392.642)"/>
      <path id="Trazado_1050416" data-name="Trazado 1050416" d="M423.728,270.675h-2.293a.445.445,0,0,1-.445-.445v-9.015a.445.445,0,0,1,.445-.445h2.293a2.7,2.7,0,0,1,1.483,4.953,2.7,2.7,0,0,1-1.483,4.953Zm-1.848-.89h1.848a1.807,1.807,0,0,0,0-3.614H421.88Zm0-4.508h1.848a1.807,1.807,0,1,0,0-3.614H421.88Z" transform="translate(-373.439 -229.547)"/>
      <path id="Trazado_1050417" data-name="Trazado 1050417" d="M406.609,405.205a4.987,4.987,0,0,1,0-9.905,4.18,4.18,0,0,1,3.209,1.564.445.445,0,1,1-.683.565,3.27,3.27,0,0,0-2.525-1.242,4.11,4.11,0,0,0,0,8.132,3.236,3.236,0,0,0,2.241-.934.445.445,0,1,1,.617.642A4.12,4.12,0,0,1,406.609,405.205Z" transform="translate(-356.78 -348.883)"/>
      <path id="Trazado_1050418" data-name="Trazado 1050418" d="M13.315,213.3a13.377,13.377,0,0,1-1.654-.1,1.371,1.371,0,0,1-1.2-1.37,2.08,2.08,0,0,0-3.43-1.6c-.049.043-.088.08-.122.113a1.37,1.37,0,0,1-1.825.121A13.18,13.18,0,0,1,3.9,209.41a13.6,13.6,0,0,1-1.1-1.242,1.369,1.369,0,0,1,.113-1.807l.009-.009.012-.011a2.091,2.091,0,0,0-.006-2.916,2.067,2.067,0,0,0-1.478-.619,1.368,1.368,0,0,1-1.355-1.2,13.419,13.419,0,0,1-.01-3.129,1.369,1.369,0,0,1,1.328-1.208,2.082,2.082,0,0,0,1.5-3.468c-.024-.027-.049-.053-.075-.079a1.373,1.373,0,0,1-.113-1.8,13.459,13.459,0,0,1,1.177-1.343,13.186,13.186,0,0,1,1.19-1.057,1.369,1.369,0,0,1,1.816.113,1.278,1.278,0,0,0,.126.113,2.08,2.08,0,0,0,3.429-1.6,1.371,1.371,0,0,1,1.2-1.371,13.383,13.383,0,0,1,3.309,0,1.369,1.369,0,0,1,1.2,1.371,2.087,2.087,0,0,0,.721,1.613,1.836,1.836,0,0,0,.178.137.445.445,0,0,1-.5.736,2.692,2.692,0,0,1-.262-.2,2.974,2.974,0,0,1-1.035-2.279.479.479,0,0,0-.418-.48,12.494,12.494,0,0,0-3.088,0,.48.48,0,0,0-.418.481,2.969,2.969,0,0,1-4.9,2.284c-.06-.052-.113-.105-.177-.165a.48.48,0,0,0-.637-.046,12.31,12.31,0,0,0-1.111.986,12.576,12.576,0,0,0-1.1,1.258.475.475,0,0,0,.041.629c.036.036.071.073.106.113a2.97,2.97,0,0,1-2.146,4.953.477.477,0,0,0-.465.417,12.529,12.529,0,0,0,.01,2.92.477.477,0,0,0,.473.417,2.95,2.95,0,0,1,2.111.884,2.984,2.984,0,0,1,.007,4.166l-.012.012-.014.012a.479.479,0,0,0-.041.629,12.7,12.7,0,0,0,1.026,1.16,12.294,12.294,0,0,0,1.109.985.48.48,0,0,0,.637-.045c.047-.049.1-.1.174-.163a2.97,2.97,0,0,1,4.9,2.285.48.48,0,0,0,.419.48,12.49,12.49,0,0,0,3.087,0,.479.479,0,0,0,.418-.48,2.97,2.97,0,0,1,4.9-2.288c.064.055.123.113.181.168a.48.48,0,0,0,.634.043,12.441,12.441,0,0,0,1.111-.986,12.619,12.619,0,0,0,.986-1.11.479.479,0,0,0-.046-.636c-.064-.067-.113-.123-.165-.178a2.984,2.984,0,0,1,0-3.859,2.951,2.951,0,0,1,2.139-1.04.678.678,0,0,0,.653-.591,12.483,12.483,0,0,0-.01-2.824.477.477,0,0,0-.468-.42,2.974,2.974,0,0,1-2.495-1.413.445.445,0,0,1,.758-.465,2.034,2.034,0,0,0,.226.3,2.067,2.067,0,0,0,1.517.687,1.368,1.368,0,0,1,1.341,1.206,13.368,13.368,0,0,1,.01,3.03,1.556,1.556,0,0,1-1.5,1.382,2.082,2.082,0,0,0-1.5,3.428c.04.046.079.089.12.131a1.365,1.365,0,0,1,.113,1.813,13.5,13.5,0,0,1-1.049,1.194,13.339,13.339,0,0,1-1.189,1.056,1.371,1.371,0,0,1-1.817-.113,1.047,1.047,0,0,0-.125-.113,2.082,2.082,0,0,0-3.43,1.6,1.369,1.369,0,0,1-1.2,1.37,13.37,13.37,0,0,1-1.656.089Zm0-5.7a7.612,7.612,0,0,1-7.561-6.742.445.445,0,0,1,.884-.1,6.721,6.721,0,1,0,13.266-2.1.445.445,0,1,1,.872-.175,7.611,7.611,0,0,1-7.461,9.116Zm-7.037-8.516a.445.445,0,0,1-.437-.529,7.615,7.615,0,0,1,8.981-6.027.445.445,0,1,1-.175.872,6.725,6.725,0,0,0-7.932,5.322.445.445,0,0,1-.437.361Z" transform="translate(0 -163.817)"/>
      <path id="Trazado_1050419" data-name="Trazado 1050419" d="M196.7,24.1a.445.445,0,0,1-.332-.741c4.663-5.22,6.717-13.405,6.737-13.49a.445.445,0,0,1,.086-.173,10.019,10.019,0,0,1,5.658-4.282.446.446,0,0,1,.253.856,9.129,9.129,0,0,0-5.15,3.893c-.235.923-2.3,8.619-6.917,13.793a.444.444,0,0,1-.335.143Z" transform="translate(-174.084 -3.017)"/>
      <path id="Trazado_1050420" data-name="Trazado 1050420" d="M254.623,27.615a.445.445,0,0,1-.291-.782,37.465,37.465,0,0,1,13.588-7.091A9.13,9.13,0,0,0,262.566,2.9a.445.445,0,1,1-.051-.889A10.019,10.019,0,0,1,268.388,20.5a.439.439,0,0,1-.165.081,37.285,37.285,0,0,0-13.3,6.922.443.443,0,0,1-.3.11Z" transform="translate(-225.466)"/>
      <path id="Trazado_1050421" data-name="Trazado 1050421" d="M123.487,110.881a4.365,4.365,0,0,1-2.492-.949c-5.844-4.25-16.666-14.716-21.339-21.34-1.129-1.612-1.242-3.139-.3-4.083a2.659,2.659,0,0,1,2.071-.728,2.892,2.892,0,0,1,2.11,1.129,149.363,149.363,0,0,0,21.153,21.153,2.9,2.9,0,0,1,1.129,2.113,2.656,2.656,0,0,1-.728,2.067A2.2,2.2,0,0,1,123.487,110.881Zm-1.965-1.673c.934.678,2.2,1.141,2.937.4a1.793,1.793,0,0,0,.47-1.379,2.008,2.008,0,0,0-.78-1.468,147.647,147.647,0,0,1-21.321-21.313,1.976,1.976,0,0,0-1.461-.78,1.793,1.793,0,0,0-1.382.47c-.722.722-.264,1.993.4,2.937C105.009,94.638,115.729,105,121.521,109.208Z" transform="translate(-87.567 -72.538)"/>
      <path id="Trazado_1050422" data-name="Trazado 1050422" d="M132.138,201.775a.444.444,0,0,1-.315-.13l-5.594-5.594a.445.445,0,0,1-.037-.586l4.292-5.562a.445.445,0,0,1,.666-.043l6.867,6.867a.445.445,0,0,1-.043.666l-5.562,4.292A.444.444,0,0,1,132.138,201.775Zm-5-6.076,5.041,5.041L137.032,197l-6.155-6.152Z" transform="translate(-111.853 -166.53)"/>
      <path id="Trazado_1050423" data-name="Trazado 1050423" d="M250.214,384.393H239.158a2.471,2.471,0,0,1-2.468-2.468V370.868a2.471,2.471,0,0,1,2.468-2.468h11.056a2.471,2.471,0,0,1,2.468,2.468v11.056a2.471,2.471,0,0,1-2.468,2.469Zm-11.056-15.1a1.581,1.581,0,0,0-1.581,1.581v11.056a1.581,1.581,0,0,0,1.581,1.581h11.056a1.581,1.581,0,0,0,1.581-1.581V370.868a1.581,1.581,0,0,0-1.581-1.581Z" transform="translate(-209.954 -325.021)"/>
      <path id="Trazado_1050424" data-name="Trazado 1050424" d="M383.934,384.393H372.878a2.471,2.471,0,0,1-2.468-2.468V370.868a2.471,2.471,0,0,1,2.468-2.468h11.056a2.471,2.471,0,0,1,2.468,2.468v2.862a.445.445,0,1,1-.89,0v-2.862a1.581,1.581,0,0,0-1.581-1.581H372.878a1.581,1.581,0,0,0-1.581,1.581v11.056a1.581,1.581,0,0,0,1.581,1.581h11.056a1.581,1.581,0,0,0,1.581-1.581v-5.945a.445.445,0,1,1,.89,0v5.945A2.471,2.471,0,0,1,383.934,384.393Z" transform="translate(-328.571 -325.021)"/>
      <path id="Trazado_1050425" data-name="Trazado 1050425" d="M383.934,249.811H372.878a2.471,2.471,0,0,1-2.468-2.468V236.288a2.471,2.471,0,0,1,2.468-2.468h11.056a2.471,2.471,0,0,1,2.468,2.468v11.056A2.471,2.471,0,0,1,383.934,249.811Zm-11.056-15.1a1.581,1.581,0,0,0-1.581,1.581v11.056a1.581,1.581,0,0,0,1.581,1.581h11.056a1.581,1.581,0,0,0,1.581-1.581V236.288a1.581,1.581,0,0,0-1.581-1.581Z" transform="translate(-328.571 -205.641)"/>
    </g>
  </g>
</svg>
