<svg xmlns="http://www.w3.org/2000/svg" xmlns:xlink="http://www.w3.org/1999/xlink" width="108" height="108" viewBox="0 0 108 108">
  <defs>
    <filter id="Trazado_904820" x="0" y="0" width="108" height="108" filterUnits="userSpaceOnUse">
      <feOffset dy="3" input="SourceAlpha"/>
      <feGaussianBlur stdDeviation="3" result="blur"/>
      <feFlood flood-opacity="0.161"/>
      <feComposite operator="in" in2="blur"/>
      <feComposite in="SourceGraphic"/>
    </filter>
  </defs>
  <g id="Grupo_1207081" data-name="Grupo 1207081" transform="translate(-201.523 -3040.837)">
    <g id="Grupo_1206780" data-name="Grupo 1206780" transform="translate(210.523 3046.837)">
      <g id="Grupo_1201662" data-name="Grupo 1201662" transform="translate(0 0)">
        <g id="Grupo_1173585" data-name="Grupo 1173585">
          <g id="Grupo_1173428" data-name="Grupo 1173428">
            <g id="Grupo_1171958" data-name="Grupo 1171958">
              <g id="Grupo_1167341" data-name="Grupo 1167341">
                <g id="Grupo_1166792" data-name="Grupo 1166792">
                  <g transform="matrix(1, 0, 0, 1, -9, -6)" filter="url(#Trazado_904820)">
                    <g id="Trazado_904820-2" data-name="Trazado 904820" transform="translate(9 6)" fill="#fdfbec">
                      <path d="M 44.99999618530273 88.49999237060547 C 39.12687301635742 88.49999237060547 33.43022155761719 87.35006713867188 28.06829643249512 85.08216857910156 C 22.88852119445801 82.89130401611328 18.23629570007324 79.75457763671875 14.24084663391113 75.75914001464844 C 10.24540901184082 71.76369476318359 7.108683586120605 67.11146545410156 4.917821407318115 61.93169403076172 C 2.649921178817749 56.56976699829102 1.499996185302734 50.87311553955078 1.499996185302734 44.99999237060547 C 1.499996185302734 39.12686920166016 2.649921178817749 33.43021774291992 4.917821407318115 28.06829261779785 C 7.108683586120605 22.88851737976074 10.24540901184082 18.23630523681641 14.24084663391113 14.24085521697998 C 18.23629570007324 10.24540519714355 22.88852119445801 7.108692169189453 28.06829643249512 4.917829990386963 C 33.43022155761719 2.649929761886597 39.12687301635742 1.500004887580872 44.99999618530273 1.500004887580872 C 50.87311935424805 1.500004887580872 56.56977081298828 2.649929761886597 61.93169784545898 4.917829990386963 C 67.11147308349609 7.108692169189453 71.76369476318359 10.24540519714355 75.75914764404297 14.24085521697998 C 79.75458526611328 18.23630523681641 82.89131164550781 22.88851737976074 85.08216857910156 28.06829261779785 C 87.35007476806641 33.43021774291992 88.5 39.12686920166016 88.5 44.99999237060547 C 88.5 50.87311553955078 87.35007476806641 56.56976699829102 85.08216857910156 61.93169403076172 C 82.89131164550781 67.11146545410156 79.75458526611328 71.76369476318359 75.75914764404297 75.75914001464844 C 71.76369476318359 79.75457763671875 67.11147308349609 82.89130401611328 61.93169784545898 85.08216857910156 C 56.56977081298828 87.35006713867188 50.87311935424805 88.49999237060547 44.99999618530273 88.49999237060547 Z" stroke="none"/>
                      <path d="M 44.99999618530273 2.999992370605469 C 39.32870864868164 2.999992370605469 33.82865142822266 4.11004638671875 28.65262603759766 6.299331665039062 C 23.65165710449219 8.414566040039062 19.15968322753906 11.44333648681641 15.301513671875 15.30150604248047 C 11.44333648681641 19.15967559814453 8.414566040039062 23.65164947509766 6.299339294433594 28.65262222290039 C 4.110054016113281 33.82864761352539 2.999992370605469 39.32870483398438 2.999992370605469 44.99999237060547 C 2.999992370605469 50.67127990722656 4.110054016113281 56.17132186889648 6.299339294433594 61.34736633300781 C 8.414566040039062 66.34833526611328 11.44333648681641 70.84029388427734 15.301513671875 74.69846343994141 C 19.15968322753906 78.55663299560547 23.65165710449219 81.58540344238281 28.65262603759766 83.70063781738281 C 33.82865142822266 85.88992309570312 39.32870864868164 86.99997711181641 44.99999618530273 86.99997711181641 C 50.67128372192383 86.99997711181641 56.17134094238281 85.88992309570312 61.34736633300781 83.70063781738281 C 66.34834289550781 81.58540344238281 70.84030914306641 78.55663299560547 74.69847869873047 74.69846343994141 C 78.55665588378906 70.84029388427734 81.58542633056641 66.34833526611328 83.70065307617188 61.34736633300781 C 85.88993835449219 56.17132186889648 87 50.67127990722656 87 44.99999237060547 C 87 39.32870483398438 85.88993835449219 33.82864761352539 83.70065307617188 28.65262222290039 C 81.58542633056641 23.65164947509766 78.55665588378906 19.15967559814453 74.69847869873047 15.30150604248047 C 70.84030914306641 11.44333648681641 66.34834289550781 8.414566040039062 61.34736633300781 6.299331665039062 C 56.17134094238281 4.11004638671875 50.67128372192383 2.999992370605469 44.99999618530273 2.999992370605469 M 44.99999618530273 -7.62939453125e-06 C 69.85281372070312 -7.62939453125e-06 90 20.14717864990234 90 44.99999237060547 C 90 69.85279083251953 69.85281372070312 89.99997711181641 44.99999618530273 89.99997711181641 C 20.14717864990234 89.99997711181641 -7.62939453125e-06 69.85279083251953 -7.62939453125e-06 44.99999237060547 C -7.62939453125e-06 20.14717864990234 20.14717864990234 -7.62939453125e-06 44.99999618530273 -7.62939453125e-06 Z" stroke="none" fill="#83793c"/>
                    </g>
                  </g>
                </g>
              </g>
            </g>
          </g>
        </g>
      </g>
    </g>
    <g id="astronomer_1876112" transform="translate(226.167 3059.501)">
      <path id="Trazado_1050426" data-name="Trazado 1050426" d="M21.147,51.616a3.828,3.828,0,0,0-3.829-3.829H11.574V57.36H2V51.31a5.745,5.745,0,0,1,4.346-5.572L17.318,43l3.829,3.829.048-.038,1.647,1.647a3.825,3.825,0,0,0-1.695,3.178Z" transform="translate(-0.043 -1.762)" fill="#5cd6b3"/>
      <path id="Trazado_1050427" data-name="Trazado 1050427" d="M35.405,57.36H31.576V47.787H25.832a3.822,3.822,0,0,0-2.135.651L22.05,46.791,25.832,43l9.574,2.393,1.4.345a5.751,5.751,0,0,1,4.346,5.572V57.36Z" transform="translate(-0.898 -1.762)" fill="#5cd6b3"/>
      <path id="Trazado_1050428" data-name="Trazado 1050428" d="M18.275,61.829H2V58H14.446A3.828,3.828,0,0,1,18.275,61.829Z" transform="translate(-0.043 -2.402)" fill="#f0d0b4"/>
      <path id="Trazado_1050429" data-name="Trazado 1050429" d="M41.275,58v3.829H25A3.828,3.828,0,0,1,28.829,58H41.275Z" transform="translate(-1.023 -2.402)" fill="#f0d0b4"/>
      <path id="Trazado_1050430" data-name="Trazado 1050430" d="M21.574,51.829V61.4H18.7a3.828,3.828,0,0,0-3.829-3.829H12V48h5.744A3.828,3.828,0,0,1,21.574,51.829Z" transform="translate(-0.469 -1.975)" fill="#e6e9ed"/>
      <path id="Trazado_1050431" data-name="Trazado 1050431" d="M31.574,48v9.574H28.7A3.828,3.828,0,0,0,24.872,61.4H22V51.829A3.831,3.831,0,0,1,25.829,48Z" transform="translate(-0.895 -1.975)" fill="#e6e9ed"/>
      <path id="Trazado_1050432" data-name="Trazado 1050432" d="M34.806,24.1v2.872a3.824,3.824,0,0,0-3.829-3.829V21.233L28.1,19.318s-3.829,2.872-6.7,2.872-6.7-2.872-6.7-2.872l-2.872,1.915v1.915A3.828,3.828,0,0,0,8,26.977V17.4a13.4,13.4,0,1,1,26.806,0Z" transform="translate(-0.298 -0.099)" fill="#b27946"/>
      <g id="Grupo_1207080" data-name="Grupo 1207080" transform="translate(7.702 19.218)">
        <path id="Trazado_1050433" data-name="Trazado 1050433" d="M25.659,39.5v3.351l-3.782,3.791-.048.038L18,42.851V39.5l.89.67a3.853,3.853,0,0,0,2.3.766h1.283a3.853,3.853,0,0,0,2.3-.766Z" transform="translate(-8.426 -20.831)" fill="#f0d0b4"/>
        <path id="Trazado_1050434" data-name="Trazado 1050434" d="M34.706,25.12a3.853,3.853,0,0,1,1.12,2.709A3.807,3.807,0,0,1,33.9,31.142,3.715,3.715,0,0,1,32,31.659H31.93A6.35,6.35,0,0,0,32,30.7V24A3.853,3.853,0,0,1,34.706,25.12Z" transform="translate(-9.02 -20.171)" fill="#f0d0b4"/>
        <path id="Trazado_1050435" data-name="Trazado 1050435" d="M31.08,31.488a7.632,7.632,0,0,1-3,5.17L25.4,38.669l-.89.67a3.853,3.853,0,0,1-2.3.766H20.932a3.853,3.853,0,0,1-2.3-.766l-.89-.67-2.681-2.01a7.632,7.632,0,0,1-3-5.17A6.349,6.349,0,0,1,12,30.531V21.915L14.872,20s3.829,2.872,6.7,2.872S28.275,20,28.275,20l2.872,1.915v8.616A6.35,6.35,0,0,1,31.08,31.488Z" transform="translate(-8.171 -20)" fill="#f0d0b4"/>
        <path id="Trazado_1050436" data-name="Trazado 1050436" d="M11.9,31.659h-.067a3.829,3.829,0,1,1,0-7.659v6.7A6.35,6.35,0,0,0,11.9,31.659Z" transform="translate(-8 -20.171)" fill="#f0d0b4"/>
      </g>
      <path id="Trazado_1050437" data-name="Trazado 1050437" d="M53.307,10.884c-.23-.507-.469-1-.747-1.484a8.609,8.609,0,0,1-9.8,0A22.34,22.34,0,0,0,40,20.151V37.738H55.318V20.151a22.345,22.345,0,0,0-2.01-9.267Z" transform="translate(-1.663 -0.33)" fill="#e6e9ed"/>
      <path id="Trazado_1050438" data-name="Trazado 1050438" d="M50.7,29l.957,9.574H44L44.957,29Z" transform="translate(-1.833 -1.165)" fill="#aab2bd"/>
      <path id="Trazado_1050439" data-name="Trazado 1050439" d="M61.744,35v3.829H56V35Z" transform="translate(-2.345 -1.421)" fill="#ffc729"/>
      <path id="Trazado_1050440" data-name="Trazado 1050440" d="M61.744,25.872v8.616H56V23Z" transform="translate(-2.345 -0.909)" fill="#fcd770"/>
      <circle id="Elipse_12989" data-name="Elipse 12989" cx="3.829" cy="3.829" r="3.829" transform="translate(42.167 16.346)" fill="#69d6f4"/>
      <path id="Trazado_1050441" data-name="Trazado 1050441" d="M47.782,3a22.033,22.033,0,0,1,4.9,6.127,8.609,8.609,0,0,1-9.8,0A22.032,22.032,0,0,1,47.782,3Z" transform="translate(-1.786 -0.057)" fill="#ff826e"/>
      <path id="Trazado_1050442" data-name="Trazado 1050442" d="M39.744,35v3.829H34V35Z" transform="translate(-1.407 -1.421)" fill="#ffc729"/>
      <path id="Trazado_1050443" data-name="Trazado 1050443" d="M39.744,23V34.488H34v-3.37l-.01-.019a3.807,3.807,0,0,0,1.924-3.312V24.915Z" transform="translate(-1.407 -0.909)" fill="#fcd770"/>
      <circle id="Elipse_12990" data-name="Elipse 12990" cx="0.957" cy="0.957" r="0.957" transform="translate(15.36 24.005)"/>
      <circle id="Elipse_12991" data-name="Elipse 12991" cx="0.957" cy="0.957" r="0.957" transform="translate(24.934 24.005)"/>
      <path id="Trazado_1050444" data-name="Trazado 1050444" d="M60.356,24.371,54.612,21.5V19.822a23.381,23.381,0,0,0-7.986-17.6L46,1.671l-.63.551a23.383,23.383,0,0,0-7.986,17.6V21.5l-1.915.957V17.3a14.36,14.36,0,0,0-28.721,0v9.574a4.783,4.783,0,0,0,4.038,4.711,8.65,8.65,0,0,0,3.239,5.054l2.3,1.723V40.49L6.077,43.051A6.692,6.692,0,0,0,1,49.552V60.385H41.209V49.552a6.671,6.671,0,0,0-1.915-4.665V38.366H52.7V44.11h1.915V38.366h1.915V44.11h1.915V38.366h1.915Zm-1.915,1.183v7.067H54.612V23.64ZM46,4.238a21.472,21.472,0,0,1,3.6,4.481,7.774,7.774,0,0,1-7.2,0A21.472,21.472,0,0,1,46,4.238Zm-4.527,6.174a9.5,9.5,0,0,0,9.055,0,21.456,21.456,0,0,1,2.174,9.41V36.451H50.692l-.957-9.574H42.257L41.3,36.451h-2V19.822a21.456,21.456,0,0,1,2.174-9.41Zm7.3,26.039H43.224l.766-7.659H48Zm-15.217,0V34.536H37.38v1.915ZM25.891,40.49V38.366l2.3-1.722a8.658,8.658,0,0,0,3.239-5.054c.068-.011.141-.008.209-.021v6.8H33.55V42.4Zm-7.659-.765a4.814,4.814,0,0,0,2.234.555h1.277a4.814,4.814,0,0,0,2.234-.556V40.84L21.1,43.713,18.233,40.84Zm13.4-15.544a2.855,2.855,0,0,1,0,5.392Zm5.744-.542v8.982H33.55v-1.94a4.767,4.767,0,0,0,1.915-3.8V24.6ZM21.1,4.858A12.46,12.46,0,0,1,33.55,17.3v5.769a4.741,4.741,0,0,0-1.915-.885V20.622l-3.862-2.574-.542.4c-.995.746-4.032,2.681-6.127,2.681s-5.13-1.935-6.127-2.681l-.542-.406-3.862,2.574v1.566a4.753,4.753,0,0,0-1.915.885V17.3A12.46,12.46,0,0,1,21.1,4.858ZM8.659,26.877a2.868,2.868,0,0,1,1.915-2.7v5.391A2.866,2.866,0,0,1,8.659,26.877Zm3.829,2.872v-8.1l1.9-1.267c1.226.831,4.222,2.669,6.717,2.669s5.49-1.838,6.717-2.669l1.9,1.267v8.1a6.738,6.738,0,0,1-2.681,5.362l-3.574,2.68a2.892,2.892,0,0,1-1.723.574H20.466a2.892,2.892,0,0,1-1.723-.574l-3.574-2.681a6.735,6.735,0,0,1-2.681-5.361ZM6.54,44.908,16.981,42.3,21.1,46.421,25.228,42.3l10.441,2.611a4.781,4.781,0,0,1,3.626,4.644v5.088H35.465V50.811H33.55v3.829H31.636V45.067h-6.7A4.784,4.784,0,0,0,21.1,46.985a4.784,4.784,0,0,0-3.829-1.918h-6.7v9.574H8.659V50.811H6.744v3.829H2.915V49.552A4.781,4.781,0,0,1,6.54,44.908ZM23.116,58.47H22.062V49.854a2.876,2.876,0,0,1,2.872-2.872h4.787v7.659H27.806A4.8,4.8,0,0,0,23.116,58.47ZM14.4,54.641H12.488V46.982h4.787a2.876,2.876,0,0,1,2.872,2.872V58.47H19.093A4.8,4.8,0,0,0,14.4,54.641ZM2.915,56.556H14.4a2.868,2.868,0,0,1,2.7,1.915H2.915Zm22.2,1.915a2.868,2.868,0,0,1,2.7-1.915H39.294V58.47Zm12.27-14.96a6.739,6.739,0,0,0-1.247-.46l-.667-.167V38.366H37.38Zm17.233-7.06V34.536h3.829v1.915Z" transform="translate(0 0)"/>
      <path id="Trazado_1050445" data-name="Trazado 1050445" d="M47.787,25.574A4.787,4.787,0,1,0,43,20.787,4.792,4.792,0,0,0,47.787,25.574Zm0-7.659a2.872,2.872,0,1,1-2.872,2.872A2.876,2.876,0,0,1,47.787,17.915Z" transform="translate(-1.791 -0.611)"/>
      <path id="Trazado_1050446" data-name="Trazado 1050446" d="M25.659,33H23.744a1.915,1.915,0,0,1-3.829,0H18a3.829,3.829,0,0,0,7.659,0Z" transform="translate(-0.725 -1.336)"/>
      <path id="Trazado_1050447" data-name="Trazado 1050447" d="M57,48h1.915v1.915H57Z" transform="translate(-2.388 -1.975)"/>
      <path id="Trazado_1050448" data-name="Trazado 1050448" d="M57,52h1.915v1.915H57Z" transform="translate(-2.388 -2.146)"/>
      <path id="Trazado_1050449" data-name="Trazado 1050449" d="M51,42h1.915v1.915H51Z" transform="translate(-2.132 -1.72)"/>
      <path id="Trazado_1050450" data-name="Trazado 1050450" d="M51,46h1.915v1.915H51Z" transform="translate(-2.132 -1.89)"/>
      <path id="Trazado_1050451" data-name="Trazado 1050451" d="M43,42h1.915v1.915H43Z" transform="translate(-1.791 -1.72)"/>
      <path id="Trazado_1050452" data-name="Trazado 1050452" d="M43,46h1.915v1.915H43Z" transform="translate(-1.791 -1.89)"/>
    </g>
  </g>
</svg>
