<svg xmlns="http://www.w3.org/2000/svg" xmlns:xlink="http://www.w3.org/1999/xlink" width="383.497" height="382.815" viewBox="0 0 383.497 382.815">
  <defs>
    <filter id="Trazado_1050018" x="197.13" y="0" width="186.367" height="241.946" filterUnits="userSpaceOnUse">
      <feOffset dy="3" input="SourceAlpha"/>
      <feGaussianBlur stdDeviation="3" result="blur"/>
      <feFlood flood-opacity="0.161"/>
      <feComposite operator="in" in2="blur"/>
      <feComposite in="SourceGraphic"/>
    </filter>
    <filter id="Trazado_1050019" x="140.869" y="196.448" width="241.946" height="186.367" filterUnits="userSpaceOnUse">
      <feOffset dy="3" input="SourceAlpha"/>
      <feGaussianBlur stdDeviation="3" result="blur-2"/>
      <feFlood flood-opacity="0.161"/>
      <feComposite operator="in" in2="blur-2"/>
      <feComposite in="SourceGraphic"/>
    </filter>
    <filter id="Trazado_1050020" x="0" y="140.187" width="186.367" height="241.946" filterUnits="userSpaceOnUse">
      <feOffset dy="3" input="SourceAlpha"/>
      <feGaussianBlur stdDeviation="3" result="blur-3"/>
      <feFlood flood-opacity="0.161"/>
      <feComposite operator="in" in2="blur-3"/>
      <feComposite in="SourceGraphic"/>
    </filter>
    <filter id="Elipse_12975" x="103" y="102.121" width="178" height="178" filterUnits="userSpaceOnUse">
      <feOffset dy="3" input="SourceAlpha"/>
      <feGaussianBlur stdDeviation="3" result="blur-4"/>
      <feFlood flood-opacity="0.161"/>
      <feComposite operator="in" in2="blur-4"/>
      <feComposite in="SourceGraphic"/>
    </filter>
  </defs>
  <g id="Grupo_1207139" data-name="Grupo 1207139" transform="translate(-618.151 -2091.879)">
    <g id="Grupo_1207138" data-name="Grupo 1207138">
      <g id="Grupo_1206893" data-name="Grupo 1206893">
        <path id="Trazado_1050017" data-name="Trazado 1050017" d="M182.749,0C87.124,0,8.665,73.45.682,167.008l45.005-33.754L92.5,168.367a91.394,91.394,0,0,1,90.244-76.993c2.488,0,4.952.1,7.39.3l34.489-45.986L190.494.174C187.924.067,185.344,0,182.749,0Z" transform="translate(627.151 2097.198)" fill="#6ca3f2"/>
        <g transform="matrix(1, 0, 0, 1, 618.15, 2091.88)" filter="url(#Trazado_1050018)">
          <path id="Trazado_1050018-2" data-name="Trazado 1050018" d="M232.243,45.687,197.13,92.5a91.393,91.393,0,0,1,76.993,90.243c0,2.489-.1,4.953-.3,7.391l45.986,34.489,45.513-34.134c.107-2.57.174-5.149.174-7.746C365.5,87.123,292.047,8.665,198.489.682Z" transform="translate(9 5.32)" fill="#29d9c2"/>
        </g>
        <g transform="matrix(1, 0, 0, 1, 618.15, 2091.88)" filter="url(#Trazado_1050019)">
          <path id="Trazado_1050019-2" data-name="Trazado 1050019" d="M182.749,274.123c-2.489,0-4.953-.1-7.391-.3L140.869,319.81,175,365.322c2.57.107,5.149.175,7.746.175,95.625,0,174.083-73.45,182.066-167.008L319.81,232.243,272.992,197.13a91.393,91.393,0,0,1-90.243,76.993" transform="translate(9 5.32)" fill="#6ca3f2"/>
        </g>
        <g transform="matrix(1, 0, 0, 1, 618.15, 2091.88)" filter="url(#Trazado_1050020)">
          <path id="Trazado_1050020-2" data-name="Trazado 1050020" d="M.175,175c-.107,2.57-.175,5.15-.175,7.745,0,95.625,73.45,174.084,167.008,182.067L133.254,319.81l35.113-46.818a91.394,91.394,0,0,1-76.993-90.244c0-2.488.1-4.952.3-7.39L45.687,140.869Z" transform="translate(9 5.32)" fill="#29d9c2"/>
        </g>
        <g transform="matrix(1, 0, 0, 1, 618.15, 2091.88)" filter="url(#Elipse_12975)">
          <circle id="Elipse_12975-2" data-name="Elipse 12975" cx="80" cy="80" r="80" transform="translate(112 108.12)" fill="#fff"/>
        </g>
        <path id="Trazado_1050737" data-name="Trazado 1050737" d="M-29.942-11.477h2.227l3.3,9.7,3.273-9.7h2.2V0h-1.477V-6.773q0-.352.016-1.164t.016-1.742L-23.661,0H-25.2l-3.3-9.68v.352q0,.422.02,1.285t.02,1.27V0h-1.484Zm16.666,2.922a3.817,3.817,0,0,1,1.727.418,3.184,3.184,0,0,1,1.273,1.082,3.733,3.733,0,0,1,.563,1.477,9.661,9.661,0,0,1,.125,1.844h-6.133a3.579,3.579,0,0,0,.6,2.043,2.014,2.014,0,0,0,1.742.77,2.252,2.252,0,0,0,1.758-.727,2.449,2.449,0,0,0,.531-.977h1.383A2.912,2.912,0,0,1-10.07-1.6a3.654,3.654,0,0,1-.691.926,3.277,3.277,0,0,1-1.586.844A4.818,4.818,0,0,1-13.5.3,3.524,3.524,0,0,1-16.144-.84,4.423,4.423,0,0,1-17.23-4.023,4.809,4.809,0,0,1-16.136-7.3,3.608,3.608,0,0,1-13.277-8.555Zm2.242,3.7a3.643,3.643,0,0,0-.4-1.461,2.042,2.042,0,0,0-1.93-1.016,2.139,2.139,0,0,0-1.625.7,2.641,2.641,0,0,0-.7,1.777Zm3.173-3.516H-6.47V-7.18a4.674,4.674,0,0,1,.906-.9,2.726,2.726,0,0,1,1.578-.477,2.484,2.484,0,0,1,1.609.492,2.573,2.573,0,0,1,.625.828,3.039,3.039,0,0,1,1.1-1A3.073,3.073,0,0,1,.772-8.555a2.325,2.325,0,0,1,2.3,1.219A3.984,3.984,0,0,1,3.4-5.57V0H1.936V-5.812a1.354,1.354,0,0,0-.418-1.148A1.654,1.654,0,0,0,.5-7.273a2.024,2.024,0,0,0-1.426.555,2.436,2.436,0,0,0-.6,1.852V0h-1.43V-5.461a2.837,2.837,0,0,0-.2-1.242,1.239,1.239,0,0,0-1.2-.586A2.062,2.062,0,0,0-5.8-6.672a3.025,3.025,0,0,0-.652,2.234V0H-7.861ZM8.789-.906a1.939,1.939,0,0,0,1.918-1.059,5.274,5.274,0,0,0,.52-2.355,4.194,4.194,0,0,0-.375-1.906A2.11,2.11,0,0,0,8.8-7.383,2.018,2.018,0,0,0,6.93-6.4a4.563,4.563,0,0,0-.586,2.375A3.969,3.969,0,0,0,6.93-1.8,2.064,2.064,0,0,0,8.789-.906Zm.055-7.7a3.789,3.789,0,0,1,2.734,1.078A4.21,4.21,0,0,1,12.7-4.359a5.442,5.442,0,0,1-.984,3.344A3.561,3.561,0,0,1,8.656.3,3.449,3.449,0,0,1,5.914-.863,4.613,4.613,0,0,1,4.9-4a4.991,4.991,0,0,1,1.07-3.359A3.592,3.592,0,0,1,8.844-8.609Zm5.564.242h1.336v1.445a3.193,3.193,0,0,1,.8-1.027,2.086,2.086,0,0,1,1.477-.605q.039,0,.133.008l.32.031v1.484a2.1,2.1,0,0,0-.23-.031q-.105-.008-.23-.008a2.007,2.007,0,0,0-1.633.684,2.386,2.386,0,0,0-.57,1.574V0H14.408Zm5.291.039h1.43V0H19.7Zm0-3.148h1.43v1.594H19.7Zm4.634,9.25a1.158,1.158,0,0,0,.445.961,1.651,1.651,0,0,0,1.055.352,3.207,3.207,0,0,0,1.438-.344,1.935,1.935,0,0,0,1.172-1.867V-4.258a2.406,2.406,0,0,1-.664.273,5.659,5.659,0,0,1-.8.156l-.852.109a3.257,3.257,0,0,0-1.148.32A1.248,1.248,0,0,0,24.333-2.227ZM27.739-5.07a.764.764,0,0,0,.648-.406,1.236,1.236,0,0,0,.094-.539,1.142,1.142,0,0,0-.512-1.043A2.745,2.745,0,0,0,26.5-7.383a1.861,1.861,0,0,0-1.562.594,1.953,1.953,0,0,0-.336.977H23.294a2.416,2.416,0,0,1,1-2.152,4.122,4.122,0,0,1,2.238-.605,4.554,4.554,0,0,1,2.4.563,1.908,1.908,0,0,1,.914,1.75v4.82a.617.617,0,0,0,.09.352.433.433,0,0,0,.379.133q.094,0,.211-.012T30.778-1V.039a3.917,3.917,0,0,1-.5.117,3.654,3.654,0,0,1-.469.023,1.157,1.157,0,0,1-1.055-.516,1.99,1.99,0,0,1-.242-.773,3.578,3.578,0,0,1-1.234.977A3.818,3.818,0,0,1,25.5.281a2.637,2.637,0,0,1-1.9-.707,2.349,2.349,0,0,1-.738-1.77A2.279,2.279,0,0,1,23.591-4,3.457,3.457,0,0,1,25.5-4.789Z" transform="translate(731.806 2180.381)" fill="#0b0a0a"/>
        <path id="Trazado_1050738" data-name="Trazado 1050738" d="M-4.493.281A3.205,3.205,0,0,1-7.528-1.234,8.768,8.768,0,0,1-8.4-5.555a8.815,8.815,0,0,1,.871-4.328,3.2,3.2,0,0,1,3.035-1.523A3.21,3.21,0,0,1-1.454-9.883,8.849,8.849,0,0,1-.587-5.555a8.768,8.768,0,0,1-.871,4.32A3.205,3.205,0,0,1-4.493.281Zm1.3-2.852a11.146,11.146,0,0,0,.3-2.984,10.933,10.933,0,0,0-.309-3.031,1.261,1.261,0,0,0-1.3-.984,1.279,1.279,0,0,0-1.312.984,10.552,10.552,0,0,0-.32,3.031,10.67,10.67,0,0,0,.32,2.988A1.29,1.29,0,0,0-4.493-1.531,1.279,1.279,0,0,0-3.188-2.57ZM6.055,0H3.774V-7.812H1.11V-9.328a9.869,9.869,0,0,0,1.477-.141,2.083,2.083,0,0,0,1.094-.594,1.955,1.955,0,0,0,.438-.812,1.865,1.865,0,0,0,.086-.453H6.055Z" transform="translate(681.335 2209.267)" fill="#0b0a0a"/>
        <path id="Trazado_1050743" data-name="Trazado 1050743" d="M-4.493.281A3.205,3.205,0,0,1-7.528-1.234,8.768,8.768,0,0,1-8.4-5.555a8.815,8.815,0,0,1,.871-4.328,3.2,3.2,0,0,1,3.035-1.523A3.21,3.21,0,0,1-1.454-9.883,8.849,8.849,0,0,1-.587-5.555a8.768,8.768,0,0,1-.871,4.32A3.205,3.205,0,0,1-4.493.281Zm1.3-2.852a11.146,11.146,0,0,0,.3-2.984,10.933,10.933,0,0,0-.309-3.031,1.261,1.261,0,0,0-1.3-.984,1.279,1.279,0,0,0-1.312.984,10.552,10.552,0,0,0-.32,3.031,10.67,10.67,0,0,0,.32,2.988A1.29,1.29,0,0,0-4.493-1.531,1.279,1.279,0,0,0-3.188-2.57ZM5.563-9.023A1.4,1.4,0,0,0,4.423-9.5a1.391,1.391,0,0,0-1.383.758,3.758,3.758,0,0,0-.25,1.391H.626a5.473,5.473,0,0,1,.523-2.336,3.26,3.26,0,0,1,3.164-1.7,4.012,4.012,0,0,1,2.859,1A3.444,3.444,0,0,1,8.235-7.75a3.57,3.57,0,0,1-.75,2.234A7.472,7.472,0,0,1,5.868-4.07l-.891.633q-.836.594-1.145.859a2.518,2.518,0,0,0-.52.617H8.259V0H.5a5.323,5.323,0,0,1,.523-2.227,6.3,6.3,0,0,1,2.25-2.4A16.5,16.5,0,0,0,5.266-6.2a2.332,2.332,0,0,0,.7-1.625A1.8,1.8,0,0,0,5.563-9.023Z" transform="translate(948.335 2300.328)" fill="#0b0a0a"/>
        <path id="Trazado_1050739" data-name="Trazado 1050739" d="M-4.493.281A3.205,3.205,0,0,1-7.528-1.234,8.768,8.768,0,0,1-8.4-5.555a8.815,8.815,0,0,1,.871-4.328,3.2,3.2,0,0,1,3.035-1.523A3.21,3.21,0,0,1-1.454-9.883,8.849,8.849,0,0,1-.587-5.555a8.768,8.768,0,0,1-.871,4.32A3.205,3.205,0,0,1-4.493.281Zm1.3-2.852a11.146,11.146,0,0,0,.3-2.984,10.933,10.933,0,0,0-.309-3.031,1.261,1.261,0,0,0-1.3-.984,1.279,1.279,0,0,0-1.312.984,10.552,10.552,0,0,0-.32,3.031,10.67,10.67,0,0,0,.32,2.988A1.29,1.29,0,0,0-4.493-1.531,1.279,1.279,0,0,0-3.188-2.57ZM8.368-4.18v1.742H7.087V0H4.907V-2.437H.423V-4.383l4.164-6.875h2.5V-4.18Zm-6.3,0H4.907V-9.07Z" transform="translate(675.335 2271.564)" fill="#0b0a0a"/>
        <path id="Trazado_1050741" data-name="Trazado 1050741" d="M-4.493.281A3.205,3.205,0,0,1-7.528-1.234,8.768,8.768,0,0,1-8.4-5.555a8.815,8.815,0,0,1,.871-4.328,3.2,3.2,0,0,1,3.035-1.523A3.21,3.21,0,0,1-1.454-9.883,8.849,8.849,0,0,1-.587-5.555a8.768,8.768,0,0,1-.871,4.32A3.205,3.205,0,0,1-4.493.281Zm1.3-2.852a11.146,11.146,0,0,0,.3-2.984,10.933,10.933,0,0,0-.309-3.031,1.261,1.261,0,0,0-1.3-.984,1.279,1.279,0,0,0-1.312.984,10.552,10.552,0,0,0-.32,3.031,10.67,10.67,0,0,0,.32,2.988A1.29,1.29,0,0,0-4.493-1.531,1.279,1.279,0,0,0-3.188-2.57Zm6.252-6.5A2.106,2.106,0,0,0,2.7-7.734H.626a5.588,5.588,0,0,1,.289-1.6,3.6,3.6,0,0,1,.859-1.227,2.994,2.994,0,0,1,1.039-.609,4.5,4.5,0,0,1,1.477-.211,3.93,3.93,0,0,1,2.621.84,2.8,2.8,0,0,1,1,2.254A2.492,2.492,0,0,1,7.313-6.6a2.028,2.028,0,0,1-.781.586,1.607,1.607,0,0,1,.875.523,2.8,2.8,0,0,1,.852,2.156,3.632,3.632,0,0,1-1,2.527A3.8,3.8,0,0,1,4.313.281,3.568,3.568,0,0,1,.97-1.289,4.661,4.661,0,0,1,.423-3.477H2.61a2.547,2.547,0,0,0,.219,1.125,1.5,1.5,0,0,0,1.477.82A1.636,1.636,0,0,0,5.45-1.98a1.669,1.669,0,0,0,.488-1.293,1.457,1.457,0,0,0-.906-1.492,4.6,4.6,0,0,0-1.625-.211V-6.57a4.216,4.216,0,0,0,1.516-.211,1.3,1.3,0,0,0,.742-1.328,1.484,1.484,0,0,0-.379-1.055A1.387,1.387,0,0,0,4.22-9.57,1.339,1.339,0,0,0,3.063-9.07Z" transform="translate(800 2422.705)" fill="#0b0a0a"/>
        <path id="Trazado_1050744" data-name="Trazado 1050744" d="M-24.029-4.7l-1.742-5.07L-27.623-4.7Zm-2.555-6.773h1.758L-20.662,0h-1.7l-1.164-3.437h-4.539L-29.31,0H-30.9Zm7.431.773h1.422v2.336h1.336v1.148h-1.336v5.461a.591.591,0,0,0,.3.586,1.262,1.262,0,0,0,.547.086q.1,0,.219,0t.273-.02V0a3.139,3.139,0,0,1-.5.1,4.791,4.791,0,0,1-.566.031,1.527,1.527,0,0,1-1.336-.5,2.239,2.239,0,0,1-.352-1.309V-7.219h-1.133V-8.367h1.133Zm7.65,2.148a3.817,3.817,0,0,1,1.727.418A3.184,3.184,0,0,1-8.5-7.055,3.733,3.733,0,0,1-7.94-5.578a9.661,9.661,0,0,1,.125,1.844h-6.133a3.579,3.579,0,0,0,.6,2.043,2.014,2.014,0,0,0,1.742.77,2.252,2.252,0,0,0,1.758-.727,2.449,2.449,0,0,0,.531-.977h1.383A2.912,2.912,0,0,1-8.3-1.6a3.654,3.654,0,0,1-.691.926,3.277,3.277,0,0,1-1.586.844A4.818,4.818,0,0,1-11.721.3,3.524,3.524,0,0,1-14.37-.84a4.423,4.423,0,0,1-1.086-3.184A4.809,4.809,0,0,1-14.362-7.3,3.608,3.608,0,0,1-11.5-8.555Zm2.242,3.7a3.643,3.643,0,0,0-.4-1.461,2.042,2.042,0,0,0-1.93-1.016,2.139,2.139,0,0,0-1.625.7,2.641,2.641,0,0,0-.7,1.777Zm3.173-3.516h1.336V-7.18A3.747,3.747,0,0,1-3.493-8.234a3.354,3.354,0,0,1,1.477-.32A2.435,2.435,0,0,1,.39-7.312,4.411,4.411,0,0,1,.734-5.367V0H-.7V-5.273A2.856,2.856,0,0,0-.923-6.508a1.374,1.374,0,0,0-1.359-.781,2.768,2.768,0,0,0-.82.1A2.113,2.113,0,0,0-4.118-6.5a2.07,2.07,0,0,0-.457.855A5.758,5.758,0,0,0-4.68-4.383V0H-6.087ZM6.04-8.609a3.648,3.648,0,0,1,2.3.688A3.294,3.294,0,0,1,9.407-5.555H8.04A2.524,2.524,0,0,0,7.47-6.84a1.8,1.8,0,0,0-1.43-.512A1.975,1.975,0,0,0,4.118-6.039a5.214,5.214,0,0,0-.375,2.1A3.955,3.955,0,0,0,4.274-1.82a1.822,1.822,0,0,0,1.672.859A1.828,1.828,0,0,0,7.333-1.5,2.943,2.943,0,0,0,8.04-2.961H9.407A3.67,3.67,0,0,1,8.235-.527a3.656,3.656,0,0,1-2.4.77A3.2,3.2,0,0,1,3.22-.957a4.59,4.59,0,0,1-.977-3,5.048,5.048,0,0,1,1.07-3.43A3.459,3.459,0,0,1,6.04-8.609Zm4.775.281h1.43V0h-1.43Zm0-3.148h1.43v1.594h-1.43ZM17.692-.906a1.939,1.939,0,0,0,1.918-1.059,5.274,5.274,0,0,0,.52-2.355,4.194,4.194,0,0,0-.375-1.906,2.11,2.11,0,0,0-2.047-1.156,2.018,2.018,0,0,0-1.875.984,4.563,4.563,0,0,0-.586,2.375A3.969,3.969,0,0,0,15.832-1.8,2.064,2.064,0,0,0,17.692-.906Zm.055-7.7a3.789,3.789,0,0,1,2.734,1.078A4.21,4.21,0,0,1,21.6-4.359a5.442,5.442,0,0,1-.984,3.344A3.561,3.561,0,0,1,17.559.3,3.449,3.449,0,0,1,14.817-.863,4.613,4.613,0,0,1,13.8-4a4.991,4.991,0,0,1,1.07-3.359A3.592,3.592,0,0,1,17.746-8.609Zm1.633-3.125L17.293-9.477H16.215l1.43-2.258Zm3.892,3.367h1.336V-7.18a3.747,3.747,0,0,1,1.258-1.055,3.354,3.354,0,0,1,1.477-.32,2.435,2.435,0,0,1,2.406,1.242,4.411,4.411,0,0,1,.344,1.945V0h-1.43V-5.273a2.856,2.856,0,0,0-.227-1.234,1.374,1.374,0,0,0-1.359-.781,2.768,2.768,0,0,0-.82.1A2.113,2.113,0,0,0,25.24-6.5a2.07,2.07,0,0,0-.457.855,5.758,5.758,0,0,0-.105,1.262V0H23.271Z" transform="translate(938.151 2236)" fill="#212429"/>
        <path id="Trazado_1050742" data-name="Trazado 1050742" d="M-35.131-3.7a3.136,3.136,0,0,0,.461,1.586A3.055,3.055,0,0,0-31.944-.977a4.826,4.826,0,0,0,1.594-.25A1.771,1.771,0,0,0-28.96-2.961,1.5,1.5,0,0,0-29.545-4.3a5.916,5.916,0,0,0-1.859-.68l-1.555-.352a7.04,7.04,0,0,1-2.156-.758A2.4,2.4,0,0,1-36.21-8.234a3.308,3.308,0,0,1,1.07-2.539,4.294,4.294,0,0,1,3.031-.992,5.265,5.265,0,0,1,3.066.871A3.144,3.144,0,0,1-27.78-8.109h-1.461a2.876,2.876,0,0,0-.5-1.414,2.9,2.9,0,0,0-2.414-.9,2.793,2.793,0,0,0-1.977.578,1.809,1.809,0,0,0-.6,1.344,1.312,1.312,0,0,0,.7,1.234,10.318,10.318,0,0,0,2.086.625l1.609.367a4.931,4.931,0,0,1,1.8.727,2.721,2.721,0,0,1,1.094,2.336A2.916,2.916,0,0,1-28.831-.484a6.21,6.21,0,0,1-3.223.82A4.819,4.819,0,0,1-35.4-.758,3.69,3.69,0,0,1-36.592-3.7Zm12.955-4.852a3.817,3.817,0,0,1,1.727.418,3.184,3.184,0,0,1,1.273,1.082,3.733,3.733,0,0,1,.563,1.477,9.661,9.661,0,0,1,.125,1.844h-6.133a3.579,3.579,0,0,0,.6,2.043,2.014,2.014,0,0,0,1.742.77,2.252,2.252,0,0,0,1.758-.727,2.449,2.449,0,0,0,.531-.977h1.383A2.912,2.912,0,0,1-18.97-1.6a3.654,3.654,0,0,1-.691.926,3.277,3.277,0,0,1-1.586.844A4.818,4.818,0,0,1-22.4.3,3.524,3.524,0,0,1-25.044-.84,4.423,4.423,0,0,1-26.13-4.023,4.809,4.809,0,0,1-25.036-7.3,3.608,3.608,0,0,1-22.177-8.555Zm2.242,3.7a3.643,3.643,0,0,0-.4-1.461,2.042,2.042,0,0,0-1.93-1.016,2.139,2.139,0,0,0-1.625.7,2.641,2.641,0,0,0-.7,1.777Zm3.173-3.516h1.336V-7.18a3.747,3.747,0,0,1,1.258-1.055,3.354,3.354,0,0,1,1.477-.32,2.435,2.435,0,0,1,2.406,1.242,4.411,4.411,0,0,1,.344,1.945V0h-1.43V-5.273A2.856,2.856,0,0,0-11.6-6.508a1.374,1.374,0,0,0-1.359-.781,2.768,2.768,0,0,0-.82.1,2.113,2.113,0,0,0-1.016.688,2.07,2.07,0,0,0-.457.855,5.758,5.758,0,0,0-.105,1.262V0h-1.406Zm9.736,5.742a2.045,2.045,0,0,0,.352,1.078,2.209,2.209,0,0,0,1.844.68,2.719,2.719,0,0,0,1.375-.34,1.129,1.129,0,0,0,.594-1.051.9.9,0,0,0-.477-.82,5.666,5.666,0,0,0-1.2-.4l-1.117-.281a5.45,5.45,0,0,1-1.578-.594A1.775,1.775,0,0,1-8.142-5.93a2.411,2.411,0,0,1,.855-1.922,3.413,3.413,0,0,1,2.3-.734A3.194,3.194,0,0,1-2.259-7.477a2.407,2.407,0,0,1,.508,1.516H-3.08a1.627,1.627,0,0,0-.336-.867A2.143,2.143,0,0,0-5.1-7.383a2.008,2.008,0,0,0-1.207.3.955.955,0,0,0-.41.8.991.991,0,0,0,.539.875,3.239,3.239,0,0,0,.922.344l.93.227a7.188,7.188,0,0,1,2.031.711,1.882,1.882,0,0,1,.82,1.7,2.584,2.584,0,0,1-.848,1.93A3.608,3.608,0,0,1-4.9.32,3.464,3.464,0,0,1-7.545-.527a3.206,3.206,0,0,1-.832-2.1Zm8.244.4a1.158,1.158,0,0,0,.445.961,1.651,1.651,0,0,0,1.055.352,3.207,3.207,0,0,0,1.438-.344A1.935,1.935,0,0,0,5.328-3.125V-4.258a2.406,2.406,0,0,1-.664.273,5.659,5.659,0,0,1-.8.156l-.852.109a3.257,3.257,0,0,0-1.148.32A1.248,1.248,0,0,0,1.219-2.227ZM4.625-5.07a.764.764,0,0,0,.648-.406,1.236,1.236,0,0,0,.094-.539,1.142,1.142,0,0,0-.512-1.043,2.745,2.745,0,0,0-1.465-.324,1.861,1.861,0,0,0-1.562.594,1.953,1.953,0,0,0-.336.977H.18a2.416,2.416,0,0,1,1-2.152A4.122,4.122,0,0,1,3.422-8.57a4.554,4.554,0,0,1,2.4.563,1.908,1.908,0,0,1,.914,1.75v4.82a.617.617,0,0,0,.09.352A.433.433,0,0,0,7.2-.953q.094,0,.211-.012T7.664-1V.039a3.917,3.917,0,0,1-.5.117A3.654,3.654,0,0,1,6.7.18,1.157,1.157,0,0,1,5.641-.336,1.99,1.99,0,0,1,5.4-1.109a3.578,3.578,0,0,1-1.234.977A3.818,3.818,0,0,1,2.391.281a2.637,2.637,0,0,1-1.9-.707A2.349,2.349,0,0,1-.25-2.2,2.279,2.279,0,0,1,.477-4a3.457,3.457,0,0,1,1.906-.789Zm7.642-3.539a3.648,3.648,0,0,1,2.3.688,3.294,3.294,0,0,1,1.066,2.367H14.267A2.524,2.524,0,0,0,13.7-6.84a1.8,1.8,0,0,0-1.43-.512,1.975,1.975,0,0,0-1.922,1.313,5.214,5.214,0,0,0-.375,2.1A3.955,3.955,0,0,0,10.5-1.82a1.822,1.822,0,0,0,1.672.859A1.828,1.828,0,0,0,13.56-1.5a2.943,2.943,0,0,0,.707-1.465h1.367A3.67,3.67,0,0,1,14.463-.527a3.656,3.656,0,0,1-2.4.77,3.2,3.2,0,0,1-2.617-1.2,4.59,4.59,0,0,1-.977-3,5.048,5.048,0,0,1,1.07-3.43A3.459,3.459,0,0,1,12.267-8.609Zm4.775.281h1.43V0h-1.43Zm0-3.148h1.43v1.594h-1.43ZM23.919-.906a1.939,1.939,0,0,0,1.918-1.059,5.274,5.274,0,0,0,.52-2.355,4.194,4.194,0,0,0-.375-1.906,2.11,2.11,0,0,0-2.047-1.156,2.018,2.018,0,0,0-1.875.984,4.563,4.563,0,0,0-.586,2.375A3.969,3.969,0,0,0,22.059-1.8,2.064,2.064,0,0,0,23.919-.906Zm.055-7.7a3.789,3.789,0,0,1,2.734,1.078,4.21,4.21,0,0,1,1.117,3.172,5.442,5.442,0,0,1-.984,3.344A3.561,3.561,0,0,1,23.786.3,3.449,3.449,0,0,1,21.044-.863,4.613,4.613,0,0,1,20.028-4,4.991,4.991,0,0,1,21.1-7.359,3.592,3.592,0,0,1,23.974-8.609Zm1.633-3.125L23.52-9.477H22.442l1.43-2.258ZM29.5-8.367h1.336V-7.18a3.747,3.747,0,0,1,1.258-1.055,3.354,3.354,0,0,1,1.477-.32,2.435,2.435,0,0,1,2.406,1.242,4.411,4.411,0,0,1,.344,1.945V0h-1.43V-5.273a2.856,2.856,0,0,0-.227-1.234A1.374,1.374,0,0,0,33.3-7.289a2.768,2.768,0,0,0-.82.1,2.113,2.113,0,0,0-1.016.688,2.07,2.07,0,0,0-.457.855A5.758,5.758,0,0,0,30.9-4.383V0H29.5Z" transform="translate(867.285 2412.705)" fill="#212429"/>
        <g id="_x32_4_brain" transform="translate(758.722 2057.501)">
          <g id="Grupo_1206885" data-name="Grupo 1206885" transform="translate(9.298 64.689)">
            <path id="Trazado_1050021" data-name="Trazado 1050021" d="M278.765,88.231a5.493,5.493,0,0,1-5.49,5.5,4.66,4.66,0,0,1-.591-.035,5.417,5.417,0,0,1,.586,2.469,5.485,5.485,0,0,1-6.444,5.406,5.491,5.491,0,0,1-10.826-1.3V76.2A5.492,5.492,0,0,1,266.826,74.9a5.493,5.493,0,0,1,5.858,7.88,4.659,4.659,0,0,1,.591-.035A5.492,5.492,0,0,1,278.765,88.231Z" transform="translate(-232.665 -70.138)" fill="#fe9738"/>
            <path id="Trazado_1050022" data-name="Trazado 1050022" d="M15.315,88.236a5.493,5.493,0,0,1,5.49-5.5,4.659,4.659,0,0,1,.591.035,5.417,5.417,0,0,1-.586-2.469A5.485,5.485,0,0,1,27.254,74.9,5.491,5.491,0,0,1,38.08,76.2v24.062a5.492,5.492,0,0,1-10.826,1.307,5.493,5.493,0,0,1-5.858-7.88,4.66,4.66,0,0,1-.591.035,5.492,5.492,0,0,1-5.49-5.49Z" transform="translate(-14.746 -70.138)" fill="#eed534"/>
            <path id="Trazado_1050023" data-name="Trazado 1050023" d="M432.391,363.39a.89.89,0,0,0,.109.009,1.242,1.242,0,0,1-.05.114C432.432,363.472,432.414,363.431,432.391,363.39Z" transform="translate(-392.372 -335.137)" opacity="0.12"/>
            <path id="Trazado_1050024" data-name="Trazado 1050024" d="M272.755,82.66a5.465,5.465,0,0,0-5.914-3.055,5.489,5.489,0,0,0-10.823,1.307v-4.7a5.489,5.489,0,0,1,10.823-1.307,5.477,5.477,0,0,1,6.447,5.409,5.339,5.339,0,0,1-.533,2.345Z" transform="translate(-232.682 -70.147)" opacity="0.12"/>
            <path id="Trazado_1050025" data-name="Trazado 1050025" d="M438.474,203.435a5.4,5.4,0,0,1-.528,2.349,5.489,5.489,0,0,0-4.963-3.142,5.1,5.1,0,0,0-.592.032,5.418,5.418,0,0,0,.587-2.468,5.489,5.489,0,0,0-.478-2.24,4.244,4.244,0,0,1,.483-.023A5.494,5.494,0,0,1,438.474,203.435Z" transform="translate(-392.372 -185.34)" opacity="0.12"/>
            <path id="Trazado_1050026" data-name="Trazado 1050026" d="M21.411,202.674a5.041,5.041,0,0,0-.592-.032,5.482,5.482,0,0,0-4.958,3.142,5.4,5.4,0,0,1-.528-2.345,5.491,5.491,0,0,1,5.486-5.5,4.3,4.3,0,0,1,.487.023,5.5,5.5,0,0,0,.1,4.708Z" transform="translate(-14.762 -185.339)" opacity="0.12"/>
            <path id="Trazado_1050027" data-name="Trazado 1050027" d="M78.594,363.39c-.018.041-.041.077-.055.118a1.163,1.163,0,0,1-.05-.109A.836.836,0,0,0,78.594,363.39Z" transform="translate(-71.945 -335.137)" opacity="0.12"/>
            <path id="Trazado_1050028" data-name="Trazado 1050028" d="M90.7,76.214v4.7a5.491,5.491,0,0,0-10.827-1.3,5.464,5.464,0,0,0-5.914,3.055,5.326,5.326,0,0,1-.528-2.349,5.473,5.473,0,0,1,6.443-5.4,5.491,5.491,0,0,1,10.827,1.3Z" transform="translate(-67.369 -70.148)" opacity="0.12"/>
            <path id="Trazado_1050029" data-name="Trazado 1050029" d="M432.5,197.094a.887.887,0,0,0-.109.009.724.724,0,0,0,.055-.123C432.465,197.016,432.483,197.053,432.5,197.094Z" transform="translate(-392.373 -184.467)" opacity="0.12"/>
            <path id="Trazado_1050030" data-name="Trazado 1050030" d="M78.594,197.147a.816.816,0,0,0-.1-.009,1.193,1.193,0,0,1,.05-.109A.941.941,0,0,0,78.594,197.147Z" transform="translate(-71.945 -184.512)" opacity="0.12"/>
            <path id="Trazado_1050031" data-name="Trazado 1050031" d="M50.178,76.728A6.1,6.1,0,0,0,48.7,70.572s-.011-.006-.016-.011a6.037,6.037,0,0,0-4.272-1.768c-.181,0-.362.008-.544.025A6.054,6.054,0,0,0,32.632,68.2a6.054,6.054,0,0,0-11.238.618,6.121,6.121,0,0,0-4.828,1.75c-.006.006-.008.014-.013.02a6.059,6.059,0,0,0-1.468,6.136,6.062,6.062,0,0,0,0,12.112,6.068,6.068,0,0,0,6.309,7.91,6.055,6.055,0,0,0,11.237.613,6.054,6.054,0,0,0,11.237-.618,6.068,6.068,0,0,0,6.309-7.906,6.062,6.062,0,0,0,0-12.112ZM27.137,99.741a4.909,4.909,0,0,1-4.778-3.754.569.569,0,0,0-.652-.425,4.926,4.926,0,0,1-4.335-8.332.569.569,0,0,0-.8-.8A6.085,6.085,0,0,0,15.6,87.7a4.922,4.922,0,1,1,.28-9.81.569.569,0,0,0,.579-.823c-2.515-4.934,3.96-9.611,7.878-5.693a.569.569,0,0,0,.8-.8,6.016,6.016,0,0,0-2.608-1.534,4.92,4.92,0,0,1,9.533,1.717V94.815A4.932,4.932,0,0,1,27.137,99.741ZM49.389,87.678a.569.569,0,0,0-.579.823c2.512,4.928-3.959,9.612-7.878,5.693a.569.569,0,0,0-.8.8,6.016,6.016,0,0,0,2.608,1.534A4.92,4.92,0,0,1,33.2,94.815V70.753a4.922,4.922,0,0,1,9.7-1.172.565.565,0,0,0,.652.425,4.932,4.932,0,0,1,4.335,8.332.569.569,0,0,0,.8.8,6.039,6.039,0,0,0,.968-1.276,4.922,4.922,0,1,1-.277,9.81Z" transform="translate(-9.298 -64.689)"/>
            <path id="Trazado_1050032" data-name="Trazado 1050032" d="M305.638,176.9a2.586,2.586,0,0,0-5.172,0,.569.569,0,0,0,1.138,0,1.448,1.448,0,0,1,2.9,0A.569.569,0,0,0,305.638,176.9Z" transform="translate(-272.926 -163.949)"/>
            <path id="Trazado_1050033" data-name="Trazado 1050033" d="M355.067,235.642a1.448,1.448,0,0,1-2.048,2.048.569.569,0,0,0-.8.8,2.586,2.586,0,1,0,3.658-3.658A.569.569,0,0,0,355.067,235.642Z" transform="translate(-319.621 -218.585)"/>
            <path id="Trazado_1050034" data-name="Trazado 1050034" d="M294.756,300.257a1.441,1.441,0,0,1-1.443,1.446h0a1.466,1.466,0,0,1-1.459-1.46.569.569,0,0,0-1.138,0,2.608,2.608,0,0,0,2.594,2.6h.008a2.579,2.579,0,0,0,2.581-2.587A.569.569,0,0,0,294.756,300.257Z" transform="translate(-264.094 -277.45)"/>
            <path id="Trazado_1050035" data-name="Trazado 1050035" d="M160.883,304.936a1.448,1.448,0,0,1-2.9,0,.569.569,0,0,0-1.138,0,2.586,2.586,0,0,0,5.172,0A.569.569,0,0,0,160.883,304.936Z" transform="translate(-142.893 -281.701)"/>
            <path id="Trazado_1050036" data-name="Trazado 1050036" d="M115.863,229.58a2.586,2.586,0,1,0-3.658,3.658.569.569,0,0,0,.8-.8,1.448,1.448,0,0,1,2.048-2.048A.569.569,0,0,0,115.863,229.58Z" transform="translate(-101.787 -213.299)"/>
            <path id="Trazado_1050037" data-name="Trazado 1050037" d="M169.083,178.859h-.008a2.579,2.579,0,0,0-2.581,2.587.569.569,0,0,0,1.138,0A1.441,1.441,0,0,1,169.076,180h0a1.466,1.466,0,0,1,1.459,1.46.569.569,0,0,0,1.138,0A2.607,2.607,0,0,0,169.083,178.859Z" transform="translate(-151.626 -168.06)"/>
          </g>
        </g>
        <g id="vision_5156136" transform="translate(699.805 2362.705)">
          <g id="Grupo_1206888" data-name="Grupo 1206888" transform="translate(0.646 0.672)">
            <g id="Grupo_1206887" data-name="Grupo 1206887">
              <path id="Trazado_1050059" data-name="Trazado 1050059" d="M119.5,62.64c1.117.516,3.873,7.958,3.873,7.958.977,2.956.207,6.857-1,10.235a.257.257,0,0,0,.243.343l1.142.084h13.124a.257.257,0,0,0,.252-.206c.529-2.591,1.384-6.183,5.35-5.645a22.562,22.562,0,0,0,4.62.418,3.178,3.178,0,0,0,2.912-2.278,2.409,2.409,0,0,0-.372-2,.582.582,0,0,1,.186-.721,2.589,2.589,0,0,1,.61-.3.679.679,0,0,0,.457-.684,1.215,1.215,0,0,0-.529-.869.085.085,0,0,1-.014-.125,6.679,6.679,0,0,1,.891-.836l.017-.014a.688.688,0,0,0-.03-1.078c-.556-.42-1.825-1.546-.2-2.047,1.056-.325,1.549-.838,1.55-1.625,0-.674-.428-1.061-.99-1.494a8.579,8.579,0,0,1-2.415-2.666,1.066,1.066,0,0,1-.055-.937c.31-.728,1.1-1.485.925-2.221a9.038,9.038,0,0,1-.859-2.75c-.4-6.079-4.9-9.741-10.506-10.859a15.177,15.177,0,0,0-1.892-.25l-.469-.033-.969.359-6.66-.9Z" transform="translate(-109.876 -38.606)" fill="#e3a76f"/>
              <path id="Trazado_1050060" data-name="Trazado 1050060" d="M140.734,53.175a16.227,16.227,0,0,0-4.409-11.132L128.7,41.5l-9.2,21.14c.824.38,2.162,4.532,2.807,6.683h0c.229.764.371,1.275.371,1.275a16.836,16.836,0,0,1-.513,10.319.257.257,0,0,0,.243.343h1.348a17.116,17.116,0,0,0,.529-11.139.514.514,0,0,1,.485-.662A16.321,16.321,0,0,0,140.734,53.175Z" transform="translate(-109.876 -38.605)" fill="#d6995c"/>
              <path id="Trazado_1050061" data-name="Trazado 1050061" d="M40.968,22.388A14.57,14.57,0,0,0,15.829,12.36s-.464.6-.718.919a14.254,14.254,0,0,0-2.875,9.109A13.754,13.754,0,0,0,26.4,36.4c4.363,0,8.182-1.412,10.852-4.45.186-.212.516-.54.734-.767.135-.141.223-.25.223-.25a14.505,14.505,0,0,0,2.764-8.54Z" transform="translate(-11.829 -7.818)" fill="#f9f8f9"/>
              <path id="Trazado_1050062" data-name="Trazado 1050062" d="M33.888,78.765A14.57,14.57,0,1,1,11.543,60.17,14.57,14.57,0,0,0,33.888,78.765Z" transform="translate(-7.501 -55.671)" fill="#e8e8e8"/>
            </g>
            <path id="Trazado_1050063" data-name="Trazado 1050063" d="M88.593,126.985a.343.343,0,0,0,0-.516C87.471,125.481,83.2,122,78.867,122c-4.381.411-7.987,3.481-9.109,4.468a.343.343,0,0,0,0,.516c1.123.987,4.816,4.083,9.109,4.468C83.2,131.453,87.471,127.972,88.593,126.985Z" transform="translate(-64.3 -112.188)" fill="#e8e8e8"/>
            <path id="Trazado_1050064" data-name="Trazado 1050064" d="M64.292,127.1a19.23,19.23,0,0,0,7.617,4.445c-4.2-.2-8.247-3.5-9.336-4.459a.342.342,0,0,1,0-.516c1.089-.958,5.136-4.262,9.336-4.459a19.23,19.23,0,0,0-7.617,4.445A.375.375,0,0,0,64.292,127.1Z" transform="translate(-57.733 -112.288)" fill="#dcdbdd"/>
            <path id="Trazado_1050065" data-name="Trazado 1050065" d="M134.041,126.726a4.727,4.727,0,0,0-7.473-3.847l-.47.448a4.482,4.482,0,0,0-1.267,3.4,4.343,4.343,0,0,0,4.483,4.509,4.512,4.512,0,0,0,3.541-1.445c.1-.116.313-.326.313-.326A4.7,4.7,0,0,0,134.041,126.726Z" transform="translate(-114.748 -112.188)" fill="#91dafa"/>
            <path id="Trazado_1050066" data-name="Trazado 1050066" d="M130.581,138.743a4.727,4.727,0,1,1-6.59-6.591,4.727,4.727,0,0,0,6.59,6.591Z" transform="translate(-112.161 -121.467)" fill="#75cff9"/>
            <path id="Trazado_1050067" data-name="Trazado 1050067" d="M157.99,154.148a2.149,2.149,0,0,0-3.081-1.936s-.141.094-.214.14a2,2,0,0,0-.843,1.8,1.855,1.855,0,0,0,1.989,1.949,1.9,1.9,0,0,0,1.907-1.113,1.053,1.053,0,0,1,.142-.188A2.148,2.148,0,0,0,157.99,154.148Z" transform="translate(-141.275 -139.609)" fill="#857e87"/>
            <path id="Trazado_1050068" data-name="Trazado 1050068" d="M156.2,157.054a2.149,2.149,0,1,1-2.982-2.583,2.172,2.172,0,0,0-.1.647,2.149,2.149,0,0,0,3.08,1.936Z" transform="translate(-139.582 -141.868)" fill="#766e7a"/>
          </g>
          <g id="Grupo_1206889" data-name="Grupo 1206889" transform="translate(0.001)">
            <path id="Trazado_1050069" data-name="Trazado 1050069" d="M331.715,64.087a2.484,2.484,0,0,0,1.987-2.24,2.528,2.528,0,0,0-1.239-2.01,8.219,8.219,0,0,1-2.017-2.1,1.135,1.135,0,0,1-.007-1.2l.113-.181a2.65,2.65,0,0,0,.6-2,4,4,0,0,0-.307-.788,4.726,4.726,0,0,1-.535-1.868,11.606,11.606,0,0,0-3.929-8.143A15.589,15.589,0,0,0,318.028,40a.645.645,0,0,0-.167,1.278c5.111.67,10.727,3.78,11.164,10.5a5.983,5.983,0,0,0,.656,2.334,3.161,3.161,0,0,1,.217.53c.055.237-.206.652-.436,1.018l-.12.192a2.43,2.43,0,0,0,.021,2.574,9.419,9.419,0,0,0,2.312,2.424c.58.449.739.661.738.988,0,.242,0,.648-1.109,1.021a1.522,1.522,0,0,0-1.143,1.185,2.336,2.336,0,0,0,.981,1.992.175.175,0,0,1,.073.111.372.372,0,0,1-.1.246,1.2,1.2,0,0,1-.62.447.626.626,0,0,0-.532.511.651.651,0,0,0,.328.684c.121.069.4.243.42.38a.168.168,0,0,1-.1.151,3.232,3.232,0,0,0-.679.347,1.2,1.2,0,0,0-.381,1.566,1.9,1.9,0,0,1,.309,1.539c-.246,1-1,1.576-2.386,1.8a16.977,16.977,0,0,1-3.546-.3l-.876-.122a4.395,4.395,0,0,0-4.65,2.041,12.984,12.984,0,0,0-1.453,4.342.645.645,0,1,0,1.264.255c.643-3.193,1.439-5.8,4.666-5.36.292.04.583.081.87.121a16.3,16.3,0,0,0,3.936.3c1.9-.313,3.056-1.244,3.429-2.769a2.987,2.987,0,0,0-.387-2.389,3.864,3.864,0,0,1,.407-.19,1.45,1.45,0,0,0,.856-1.485,1.43,1.43,0,0,0-.253-.661,2.685,2.685,0,0,0,.4-.422,1.593,1.593,0,0,0,.351-1.2,1.452,1.452,0,0,0-.571-.965,1.2,1.2,0,0,1-.488-.757C331.438,64.228,331.519,64.153,331.715,64.087Z" transform="translate(-289.703 -36.561)"/>
            <path id="Trazado_1050070" data-name="Trazado 1050070" d="M143.082,372.526a.645.645,0,0,0-.411.814,16.524,16.524,0,0,1-.63,10.269.645.645,0,1,0,1.205.457,17.621,17.621,0,0,0,.649-11.13A.644.644,0,0,0,143.082,372.526Z" transform="translate(-129.797 -340.483)"/>
            <path id="Trazado_1050071" data-name="Trazado 1050071" d="M266.071,101.9a15.063,15.063,0,0,0-1.552-6.7.645.645,0,0,0-1.157.569,13.934,13.934,0,0,1-5.25,18.018.644.644,0,1,0,.673,1.1,15.2,15.2,0,0,0,7.286-12.986Z" transform="translate(-235.65 -86.688)"/>
            <path id="Trazado_1050072" data-name="Trazado 1050072" d="M19.872,28.334a13.924,13.924,0,1,1,6.308-21.7.645.645,0,1,0,1.015-.795A15.2,15.2,0,1,0,20.3,29.548a.644.644,0,1,0-.431-1.215Z" transform="translate(-0.001)"/>
            <path id="Trazado_1050073" data-name="Trazado 1050073" d="M147.294,150.086a2.793,2.793,0,1,0-2.793-2.793A2.8,2.8,0,0,0,147.294,150.086Zm0-4.3a1.5,1.5,0,1,1-1.5,1.5A1.506,1.506,0,0,1,147.294,145.789Z" transform="translate(-132.083 -132.082)"/>
            <path id="Trazado_1050074" data-name="Trazado 1050074" d="M74.313,119.871a.645.645,0,0,0-.2-.466c-.21-.2-5.2-4.9-10.456-4.9s-10.246,4.7-10.456,4.9a.645.645,0,0,0,0,.933c.21.2,5.2,4.9,10.456,4.9s10.246-4.7,10.456-4.9A.645.645,0,0,0,74.313,119.871Zm-15.138-2.955a5.3,5.3,0,0,0-.675,1.451.645.645,0,1,0,1.238.361,4.138,4.138,0,0,1,3.92-2.938,4.082,4.082,0,1,1,0,8.164,4.145,4.145,0,0,1-3.833-2.675.645.645,0,0,0-1.21.444,5.327,5.327,0,0,0,.557,1.1,21.544,21.544,0,0,1-4.551-2.953A21.542,21.542,0,0,1,59.175,116.916Zm8.963,5.911a5.356,5.356,0,0,0,0-5.911,21.545,21.545,0,0,1,4.555,2.956A21.542,21.542,0,0,1,68.139,122.827Z" transform="translate(-48.446 -104.66)"/>
            <path id="Trazado_1050075" data-name="Trazado 1050075" d="M231.434,80.34a.643.643,0,0,0,.494-.23l1.373-1.636a.645.645,0,0,0-.987-.829l-1.373,1.636a.645.645,0,0,0,.493,1.059Z" transform="translate(-210.957 -70.762)"/>
            <path id="Trazado_1050076" data-name="Trazado 1050076" d="M93.757,242.772l-1.373,1.636a.645.645,0,0,0,.987.829l1.373-1.637a.645.645,0,0,0-.987-.829Z" transform="translate(-84.307 -221.698)"/>
            <path id="Trazado_1050077" data-name="Trazado 1050077" d="M170.79,57.959V55.645a.645.645,0,0,0-1.289,0v2.314a.645.645,0,1,0,1.289,0Z" transform="translate(-154.935 -50.273)"/>
            <path id="Trazado_1050078" data-name="Trazado 1050078" d="M169.5,257.716v2.314a.645.645,0,0,0,1.289,0v-2.314a.645.645,0,0,0-1.289,0Z" transform="translate(-154.935 -234.979)"/>
            <path id="Trazado_1050079" data-name="Trazado 1050079" d="M94.251,80.342a.644.644,0,0,0,.493-1.059l-1.373-1.637a.644.644,0,1,0-.987.829l1.373,1.637A.643.643,0,0,0,94.251,80.342Z" transform="translate(-84.307 -70.763)"/>
            <path id="Trazado_1050080" data-name="Trazado 1050080" d="M233.3,244.408l-1.373-1.637a.644.644,0,1,0-.987.829l1.373,1.637a.644.644,0,1,0,.987-.828Z" transform="translate(-210.958 -221.698)"/>
          </g>
        </g>
        <path id="Trazado_1050740" data-name="Trazado 1050740" d="M-38.663-11.477H-33.5a3.5,3.5,0,0,1,2.469.863,3.133,3.133,0,0,1,.938,2.426,3.527,3.527,0,0,1-.836,2.34,3.167,3.167,0,0,1-2.57,1h-3.609V0h-1.555Zm7,3.3A1.727,1.727,0,0,0-32.6-9.9a3.385,3.385,0,0,0-1.414-.242h-3.094v3.977h3.094a2.957,2.957,0,0,0,1.7-.445A1.765,1.765,0,0,0-31.663-8.18Zm6.822-.375a3.817,3.817,0,0,1,1.727.418,3.184,3.184,0,0,1,1.273,1.082,3.733,3.733,0,0,1,.563,1.477,9.661,9.661,0,0,1,.125,1.844h-6.133a3.579,3.579,0,0,0,.6,2.043,2.014,2.014,0,0,0,1.742.77,2.252,2.252,0,0,0,1.758-.727,2.449,2.449,0,0,0,.531-.977h1.383A2.912,2.912,0,0,1-21.635-1.6a3.654,3.654,0,0,1-.691.926,3.277,3.277,0,0,1-1.586.844A4.818,4.818,0,0,1-25.06.3,3.524,3.524,0,0,1-27.709-.84a4.423,4.423,0,0,1-1.086-3.184A4.809,4.809,0,0,1-27.7-7.3,3.608,3.608,0,0,1-24.842-8.555Zm2.242,3.7A3.643,3.643,0,0,0-23-6.312a2.042,2.042,0,0,0-1.93-1.016,2.139,2.139,0,0,0-1.625.7,2.641,2.641,0,0,0-.7,1.777Zm3.213-3.516h1.336v1.445a3.193,3.193,0,0,1,.8-1.027,2.086,2.086,0,0,1,1.477-.605q.039,0,.133.008l.32.031v1.484a2.1,2.1,0,0,0-.23-.031q-.105-.008-.23-.008a2.007,2.007,0,0,0-1.633.684,2.386,2.386,0,0,0-.57,1.574V0h-1.406Zm8.517-.242a3.648,3.648,0,0,1,2.3.688A3.294,3.294,0,0,1-7.5-5.555H-8.87A2.524,2.524,0,0,0-9.44-6.84a1.8,1.8,0,0,0-1.43-.512,1.975,1.975,0,0,0-1.922,1.313,5.214,5.214,0,0,0-.375,2.1,3.955,3.955,0,0,0,.531,2.117,1.822,1.822,0,0,0,1.672.859A1.828,1.828,0,0,0-9.577-1.5,2.943,2.943,0,0,0-8.87-2.961H-7.5A3.67,3.67,0,0,1-8.674-.527a3.656,3.656,0,0,1-2.4.77,3.2,3.2,0,0,1-2.617-1.2,4.59,4.59,0,0,1-.977-3,5.048,5.048,0,0,1,1.07-3.43A3.459,3.459,0,0,1-10.87-8.609Zm8.259.055a3.817,3.817,0,0,1,1.727.418A3.184,3.184,0,0,1,.39-7.055,3.733,3.733,0,0,1,.952-5.578a9.661,9.661,0,0,1,.125,1.844H-5.055a3.579,3.579,0,0,0,.6,2.043,2.014,2.014,0,0,0,1.742.77A2.252,2.252,0,0,0-.954-1.648a2.449,2.449,0,0,0,.531-.977H.96A2.912,2.912,0,0,1,.6-1.6a3.654,3.654,0,0,1-.691.926A3.277,3.277,0,0,1-1.68.172,4.818,4.818,0,0,1-2.829.3,3.524,3.524,0,0,1-5.477-.84,4.423,4.423,0,0,1-6.563-4.023,4.809,4.809,0,0,1-5.47-7.3,3.608,3.608,0,0,1-2.61-8.555Zm2.242,3.7a3.643,3.643,0,0,0-.4-1.461A2.042,2.042,0,0,0-2.7-7.328a2.139,2.139,0,0,0-1.625.7,2.641,2.641,0,0,0-.7,1.777Zm6.7,3.906A2.006,2.006,0,0,0,7.973-1.77a3.922,3.922,0,0,0,.652-2.465,4.6,4.6,0,0,0-.289-1.719,2,2,0,0,0-2-1.383,1.994,1.994,0,0,0-2,1.461,5.79,5.79,0,0,0-.289,1.984,4.207,4.207,0,0,0,.289,1.648A1.994,1.994,0,0,0,6.337-.945ZM2.7-8.328H4.063v1.109A3.413,3.413,0,0,1,4.985-8.1,2.967,2.967,0,0,1,6.657-8.57,3.144,3.144,0,0,1,9.071-7.48a4.465,4.465,0,0,1,.992,3.113A4.781,4.781,0,0,1,8.634-.461,3.23,3.23,0,0,1,6.524.281,2.863,2.863,0,0,1,4.938-.133a3.654,3.654,0,0,1-.836-.8V3.336H2.7Zm12.236-.281a3.648,3.648,0,0,1,2.3.688A3.294,3.294,0,0,1,18.3-5.555H16.932a2.524,2.524,0,0,0-.57-1.285,1.8,1.8,0,0,0-1.43-.512A1.975,1.975,0,0,0,13.01-6.039a5.214,5.214,0,0,0-.375,2.1,3.955,3.955,0,0,0,.531,2.117,1.822,1.822,0,0,0,1.672.859A1.828,1.828,0,0,0,16.225-1.5a2.943,2.943,0,0,0,.707-1.465H18.3A3.67,3.67,0,0,1,17.127-.527a3.656,3.656,0,0,1-2.4.77,3.2,3.2,0,0,1-2.617-1.2,4.59,4.59,0,0,1-.977-3,5.048,5.048,0,0,1,1.07-3.43A3.459,3.459,0,0,1,14.932-8.609Zm4.775.281h1.43V0h-1.43Zm0-3.148h1.43v1.594h-1.43ZM26.584-.906A1.939,1.939,0,0,0,28.5-1.965a5.274,5.274,0,0,0,.52-2.355,4.194,4.194,0,0,0-.375-1.906A2.11,2.11,0,0,0,26.6-7.383a2.018,2.018,0,0,0-1.875.984,4.563,4.563,0,0,0-.586,2.375A3.969,3.969,0,0,0,24.724-1.8,2.064,2.064,0,0,0,26.584-.906Zm.055-7.7a3.789,3.789,0,0,1,2.734,1.078A4.21,4.21,0,0,1,30.49-4.359a5.442,5.442,0,0,1-.984,3.344A3.561,3.561,0,0,1,26.451.3,3.449,3.449,0,0,1,23.709-.863,4.613,4.613,0,0,1,22.693-4a4.991,4.991,0,0,1,1.07-3.359A3.592,3.592,0,0,1,26.638-8.609Zm1.633-3.125L26.185-9.477H25.107l1.43-2.258Zm3.892,3.367H33.5V-7.18a3.747,3.747,0,0,1,1.258-1.055,3.354,3.354,0,0,1,1.477-.32A2.435,2.435,0,0,1,38.64-7.312a4.411,4.411,0,0,1,.344,1.945V0h-1.43V-5.273a2.856,2.856,0,0,0-.227-1.234,1.374,1.374,0,0,0-1.359-.781,2.768,2.768,0,0,0-.82.1,2.113,2.113,0,0,0-1.016.688,2.07,2.07,0,0,0-.457.855,5.758,5.758,0,0,0-.105,1.262V0H32.163Z" transform="translate(694.806 2352.511)" fill="#0b0a0a"/>
        <g id="soft-skills_16754582" transform="translate(884.852 2329.164)">
          <g id="Grupo_1206892" data-name="Grupo 1206892" transform="translate(20.905 18.294)">
            <g id="Grupo_1206890" data-name="Grupo 1206890">
              <path id="Trazado_1050081" data-name="Trazado 1050081" d="M118.16,160.106h14.493q.912-5.111,6.164-3.919,3.5.609,3.43-.981c.013-1.642.293-2.239.716-2.557.938-.721-.106-1.652-1.18-2.234.9-.071,2.063-.8,1.813-1.38-.4-1.367-.212-1.917.406-2.237q1.8-.881.734-2.244a12.864,12.864,0,0,1-1.965-2.736,4.547,4.547,0,0,1-.509-2.658c.043-.441.066-.888.066-1.342a13.307,13.307,0,1,0-23.461,8.6,4.521,4.521,0,0,1,1.092,2.54,20.225,20.225,0,0,1-2.2,10.511.449.449,0,0,0,.406.638Z" transform="translate(-115.714 -124.509)" fill="#f6dccd" fill-rule="evenodd"/>
              <path id="Trazado_1050082" data-name="Trazado 1050082" d="M118.16,160.106h2.691a.449.449,0,0,1-.406-.638,20.225,20.225,0,0,0,2.2-10.511,4.522,4.522,0,0,0-1.092-2.54,13.308,13.308,0,0,1,8.809-21.84,13.152,13.152,0,0,0-1.344-.068,13.308,13.308,0,0,0-10.156,21.908,4.522,4.522,0,0,1,1.092,2.54,20.225,20.225,0,0,1-2.2,10.511.449.449,0,0,0,.406.638Zm20.271-4c.129.025.257.05.386.081a5.74,5.74,0,0,0,2.756.01l-.066-.01a6.619,6.619,0,0,0-3.077-.081Z" transform="translate(-115.714 -124.509)" fill="#f1cbbc" fill-rule="evenodd"/>
            </g>
            <g id="Grupo_1206891" data-name="Grupo 1206891" transform="translate(4.907 5.105)">
              <path id="Trazado_1050083" data-name="Trazado 1050083" d="M175.079,191.694c-2.9-1.7-8.239-5.617-8.31-9.519-.079-4.344,4.8-6.316,8.477-2.579,3.674-3.734,8.56-1.765,8.481,2.579-.071,3.9-5.41,7.814-8.31,9.519A.322.322,0,0,1,175.079,191.694Z" transform="translate(-166.768 -177.623)" fill="#fe646f" fill-rule="evenodd"/>
              <path id="Trazado_1050084" data-name="Trazado 1050084" d="M254.22,177.665a4.237,4.237,0,0,1,4.74,4.525c-.071,3.9-5.41,7.814-8.31,9.519a.322.322,0,0,1-.339,0l-.311-.186c2.953-1.791,7.93-5.567,8-9.333A4.234,4.234,0,0,0,254.22,177.665Z" transform="translate(-242 -177.638)" fill="#fd4755" fill-rule="evenodd"/>
            </g>
          </g>
          <path id="Trazado_1050085" data-name="Trazado 1050085" d="M21.949,53.564c1.918-3.9,2.783-7.576,2.436-10.725h0a3.777,3.777,0,0,0-.917-2.126v0a14.078,14.078,0,1,1,24.819-9.1,13.794,13.794,0,0,1-.07,1.421,3.782,3.782,0,0,0,.428,2.224v0a11.949,11.949,0,0,0,1.846,2.567q.021.022.04.047a2.055,2.055,0,0,1,.477,1.958,2.65,2.65,0,0,1-1.467,1.449c-.16.086-.208.231-.192.477a4.036,4.036,0,0,0,.163.823,1.277,1.277,0,0,1-.22,1.252,2.542,2.542,0,0,1-.692.6,2.866,2.866,0,0,1,.348.4,1.671,1.671,0,0,1,.335,1.107,1.551,1.551,0,0,1-.658,1.115l-.014.01a.927.927,0,0,0-.289.586,6.667,6.667,0,0,0-.119,1.339,1.69,1.69,0,0,1-.351,1.146,1.939,1.939,0,0,1-1.026.646,7.058,7.058,0,0,1-2.953-.042l-.038-.008a4.669,4.669,0,0,0-3.583.284A4.233,4.233,0,0,0,38.6,54.038a.769.769,0,0,1-.757.634H22.639a.769.769,0,0,1-.69-1.108Zm25.787-7.77a.6.6,0,0,0-.036-.064,1.687,1.687,0,0,0-.314-.328,4.749,4.749,0,0,0-.779-.516.769.769,0,0,1,.306-1.442,2.053,2.053,0,0,0,.925-.338,1.488,1.488,0,0,0,.181-.155,3.275,3.275,0,0,1-.06-2.121,1.787,1.787,0,0,1,.883-.92l.014-.007c.359-.176.617-.327.691-.551.053-.161-.057-.316-.208-.508a13.447,13.447,0,0,1-2.058-2.877,5.256,5.256,0,0,1-.6-3.09v0a12.267,12.267,0,0,0,.062-1.265,12.538,12.538,0,1,0-22.108,8.105,5.252,5.252,0,0,1,1.273,2.955A20.6,20.6,0,0,1,23.85,53.134H37.223a5.355,5.355,0,0,1,2.207-3.415,6.119,6.119,0,0,1,4.728-.491,7.033,7.033,0,0,0,1.982.128c.312-.04.54-.077.528-.316q0-.022,0-.044c.019-2.051.493-2.766,1.024-3.162.015-.012.031-.027.044-.041ZM33.731,38.141a26.861,26.861,0,0,1-6.38-5.134,8.319,8.319,0,0,1-2.306-5.032h0A5.022,5.022,0,0,1,28.4,22.913a6.034,6.034,0,0,1,5.894,1.417,6.04,6.04,0,0,1,5.895-1.416,5.02,5.02,0,0,1,3.355,5.06h0a8.319,8.319,0,0,1-2.306,5.032,26.861,26.861,0,0,1-6.38,5.134,1.074,1.074,0,0,1-1.124,0Zm.561-1.455a24.929,24.929,0,0,0,5.775-4.681A6.788,6.788,0,0,0,42,27.947a3.526,3.526,0,0,0-2.312-3.577,4.74,4.74,0,0,0-4.852,1.551.769.769,0,0,1-1.1,0,4.734,4.734,0,0,0-4.849-1.553,3.528,3.528,0,0,0-2.311,3.578,6.788,6.788,0,0,0,1.936,4.058A24.929,24.929,0,0,0,34.293,36.686Zm-.769-24.771V7.769a.769.769,0,1,1,1.538,0v4.146l.569-.5a.769.769,0,1,1,1.018,1.153L34.8,14.2a.769.769,0,0,1-1.018,0l-1.847-1.63a.769.769,0,1,1,1.018-1.153Zm-7.842,2.1.242-.72a.769.769,0,0,1,1.458.49L26.6,16.122a.769.769,0,0,1-.881.509L23.3,16.142a.769.769,0,1,1,.3-1.507l.744.15-2.073-3.591a.769.769,0,1,1,1.332-.769Zm-7.072,6.51-.151-.744a.769.769,0,1,1,1.507-.3l.488,2.414a.769.769,0,0,1-.509.881l-2.335.784a.769.769,0,1,1-.49-1.458l.72-.242L14.25,19.785a.769.769,0,1,1,.769-1.332ZM15.739,29.7l-.5-.569a.769.769,0,1,1,1.153-1.018l1.63,1.847a.769.769,0,0,1,0,1.018l-1.63,1.847a.769.769,0,1,1-1.153-1.018l.5-.569H11.593a.769.769,0,0,1,0-1.538ZM42.9,14.016l2.073-3.591a.769.769,0,1,1,1.332.769l-2.073,3.591.744-.15a.769.769,0,1,1,.3,1.507l-2.414.488a.769.769,0,0,1-.881-.509L41.2,13.787a.769.769,0,1,1,1.458-.49Zm7.072,6.51,3.591-2.073a.769.769,0,1,1,.769,1.332l-3.591,2.073.72.242a.769.769,0,0,1-.49,1.458l-2.335-.784a.769.769,0,0,1-.509-.881l.488-2.414a.769.769,0,1,1,1.507.3Zm2.87,9.174h4.146a.769.769,0,1,1,0,1.538H52.846l.5.569A.769.769,0,1,1,52.2,32.824l-1.63-1.847a.769.769,0,0,1,0-1.018l1.63-1.847a.769.769,0,1,1,1.153,1.018Z" transform="translate(0)" fill-rule="evenodd"/>
        </g>
        <g id="XMLID_675_" transform="translate(884.463 2157.586)">
          <g id="XMLID_43_" transform="translate(8.487 0.93)">
            <path id="XMLID_2298_" d="M142.027,227.862v-6.948a7.827,7.827,0,0,0-6.3-7.677l-1.94-.385a3.558,3.558,0,0,1-2.712-2.458h-4.117a3.558,3.558,0,0,1-2.712,2.458l-1.94.385a7.827,7.827,0,0,0-6.3,7.677v6.948Z" transform="translate(-113.499 -191.767)" fill="#fe9738"/>
            <path id="XMLID_2295_" d="M213.923,212.58a4.335,4.335,0,0,0,7.765,0l.014-.024a3.558,3.558,0,0,1-1.838-2.162h-4.117a3.557,3.557,0,0,1-1.855,2.171Z" transform="translate(-202.29 -191.767)" fill="#ffdcd5"/>
            <path id="XMLID_2294_" d="M175.8,28.886a8.219,8.219,0,0,1-8.219-8.219V18.219a8.219,8.219,0,1,1,16.437,0v2.449A8.219,8.219,0,0,1,175.8,28.886Z" transform="translate(-160.284 -10)" fill="#ffdcd5"/>
            <g id="Grupo_1207118" data-name="Grupo 1207118">
              <path id="XMLID_2293_" d="M168.047,18.571a10.141,10.141,0,0,0,9.966-8.269,8.224,8.224,0,0,0-10.433,7.916v.352Z" transform="translate(-160.284 -10)" fill="#6d92ac"/>
              <path id="XMLID_2292_" d="M242.14,18.571a10.141,10.141,0,0,1-9.966-8.269,8.224,8.224,0,0,1,10.433,7.916v.352Z" transform="translate(-218.874 -10)" fill="#6d92ac"/>
              <path id="XMLID_2363_" d="M89.111,101.482l2.2-.588-.588,2.2a5.113,5.113,0,0,0,5.306-6.913,5.113,5.113,0,0,0-6.913,5.306Z" transform="translate(-89.084 -87.862)" fill="#6d92ac"/>
              <path id="XMLID_1556_" d="M351.878,101.482l-2.2-.588.588,2.2a5.113,5.113,0,0,1-5.306-6.913,5.113,5.113,0,0,1,6.913,5.306Z" transform="translate(-320.876 -87.862)" fill="#6d92ac"/>
            </g>
          </g>
          <path id="XMLID_1590_" d="M10.228,298.692l6.244-6.244a11.175,11.175,0,0,1,7.9-3.273,7.824,7.824,0,0,1,5.532,2.291H36a2.566,2.566,0,1,1,0,5.131h.189a14.117,14.117,0,0,0,10.4-4.576l4.748-5.177a2.633,2.633,0,1,1,3.866,3.575l-6.021,6.458A17.209,17.209,0,0,1,36.6,302.351H23.828l-3.718,3.718H10.228Z" transform="translate(-9.07 -259.409)" fill="#ffd0c7"/>
          <g id="XMLID_1072_" transform="translate(0.228 0)">
            <path id="XMLID_1133_" d="M239.265,152.4a.929.929,0,0,0-1.315-1.314.451.451,0,0,1-.637,0A.929.929,0,0,0,236,152.4a2.31,2.31,0,0,0,3.267,0Z" transform="translate(-213.837 -136.8)"/>
            <path id="XMLID_1134_" d="M119.782,452h-8.591a.93.93,0,0,0-.657.272l-3.718,3.718a.929.929,0,0,0,1.314,1.315l3.446-3.446h8.206a.929.929,0,1,0,0-1.859Z" transform="translate(-96.661 -409.987)"/>
            <path id="XMLID_1142_" d="M47.76,28.886a3.563,3.563,0,0,0-6.173-2.078l-3.643,3.973v-.7a8.778,8.778,0,0,0-7.051-8.589l-1.94-.385a2.623,2.623,0,0,1-1.588-1,9.2,9.2,0,0,0,5.214-5.328,6.022,6.022,0,0,0,4.767,2.338,6.127,6.127,0,0,0,.631-.033.929.929,0,0,0,.8-1.165l-.172-.641.641.172a.93.93,0,0,0,1.165-.8,6.042,6.042,0,0,0-7.322-6.524,9.148,9.148,0,0,0-18.18,0A6.042,6.042,0,0,0,7.59,14.646a.93.93,0,0,0,1.165.8l.641-.172-.172.641a.929.929,0,0,0,.8,1.165,6.127,6.127,0,0,0,.631.033,6.022,6.022,0,0,0,4.767-2.338A9.2,9.2,0,0,0,20.638,20.1a2.624,2.624,0,0,1-1.588,1l-1.94.385a8.777,8.777,0,0,0-7.05,8.537,12.119,12.119,0,0,0-3.316,2.357L.5,38.626a.929.929,0,1,0,1.314,1.314L8.059,33.7a10.179,10.179,0,0,1,7.245-3,6.849,6.849,0,0,1,4.875,2.019.93.93,0,0,0,.657.272h6.1a1.636,1.636,0,1,1,0,3.272H19.866a.929.929,0,0,0,0,1.859H27.12a15.084,15.084,0,0,0,11.09-4.877l4.748-5.177a1.7,1.7,0,0,1,2.266-.22,1.7,1.7,0,0,1,.236,2.533l-6.021,6.458a16.244,16.244,0,0,1-7.98,4.7.929.929,0,1,0,.448,1.8A18.1,18.1,0,0,0,40.8,38.1l6.021-6.458A3.566,3.566,0,0,0,47.76,28.886ZM33.313,9.981a4.185,4.185,0,0,1,5.218,3.35l-1-.267A.929.929,0,0,0,36.4,14.2l.267,1a4.185,4.185,0,0,1-3.349-5.218Zm-2.05-1.453a9.974,9.974,0,0,1-5.99-2.749,10.994,10.994,0,0,0,1.608-3.327A7.3,7.3,0,0,1,31.263,8.528ZM24,1.859a7.314,7.314,0,0,1,1.091.082,9.207,9.207,0,0,1-8.354,6.616A7.3,7.3,0,0,1,24,1.859ZM13.609,14.031A4.164,4.164,0,0,1,11.341,15.2l.267-1a.929.929,0,0,0-1.138-1.138l-1,.267a4.185,4.185,0,0,1,5.218-3.35,4.194,4.194,0,0,1-1.081,4.05Zm3.1-2.434V10.42A11.063,11.063,0,0,0,24.069,7.2a11.84,11.84,0,0,0,7.222,3.2v1.2a7.289,7.289,0,0,1-14.578,0ZM24,20.745a9.17,9.17,0,0,0,1.5-.123,4.474,4.474,0,0,0,1.119,1.37,3.4,3.4,0,0,1-5.234,0,4.474,4.474,0,0,0,1.119-1.37,9.155,9.155,0,0,0,1.5.123Zm2.93,10.383H21.209a8.69,8.69,0,0,0-5.9-2.291,12.158,12.158,0,0,0-3.34.465,6.916,6.916,0,0,1,5.509-5.991l1.94-.385c.1-.02.2-.043.293-.069a5.265,5.265,0,0,0,8.593,0c.1.026.194.049.293.069l1.94.385a6.914,6.914,0,0,1,5.554,6.765v2.666a13.237,13.237,0,0,1-5.9,3.153,3.493,3.493,0,0,0-3.254-4.768Z" transform="translate(-0.228 0)"/>
            <path id="XMLID_1527_" d="M284.9,452a.93.93,0,1,0,.657.272A.936.936,0,0,0,284.9,452Z" transform="translate(-257.595 -409.987)"/>
          </g>
        </g>
      </g>
    </g>
  </g>
</svg>
